<?xml version="1.0" encoding="UTF-8" standalone="no"?>
<svg
   xmlns:dc="http://purl.org/dc/elements/1.1/"
   xmlns:cc="http://creativecommons.org/ns#"
   xmlns:rdf="http://www.w3.org/1999/02/22-rdf-syntax-ns#"
   xmlns:svg="http://www.w3.org/2000/svg"
   xmlns="http://www.w3.org/2000/svg"
   xmlns:sodipodi="http://sodipodi.sourceforge.net/DTD/sodipodi-0.dtd"
   xmlns:inkscape="http://www.inkscape.org/namespaces/inkscape"
   width="297mm"
   height="210mm"
   viewBox="0 0 297 210"
   version="1.1"
   id="svg8"
   inkscape:version="1.0.2 (e86c870879, 2021-01-15)"
   sodipodi:docname="zunixion-logo-air-spray.svg">
  <defs
     id="defs2">
    <rect
       x="33.979757"
       y="-73.362108"
       width="37.100336"
       height="14.39187"
       id="rect254" />
    <inkscape:perspective
       sodipodi:type="inkscape:persp3d"
       inkscape:vp_x="0 : 105 : 1"
       inkscape:vp_y="0 : 1000 : 0"
       inkscape:vp_z="297 : 105 : 1"
       inkscape:persp3d-origin="148.5 : 70 : 1"
       id="perspective136" />
    <rect
       x="39.672449"
       y="81.394483"
       width="78.180661"
       height="30.266305"
       id="rect132" />
    <filter
       inkscape:label="Air Spray"
       inkscape:menu="Scatter"
       inkscape:menu-tooltip="Convert to small scattered particles with some thickness"
       width="2"
       height="2"
       y="-0.5"
       x="-0.5"
       style="color-interpolation-filters:sRGB;"
       id="filter118552">
      <feGaussianBlur
         stdDeviation="0.01"
         result="result1"
         id="feGaussianBlur118540" />
      <feBlend
         in2="result1"
         result="fbSourceGraphic"
         mode="multiply"
         id="feBlend118542" />
      <feTurbulence
         baseFrequency="0.8"
         type="fractalNoise"
         seed="0"
         numOctaves="3"
         result="result3"
         id="feTurbulence118544" />
      <feDisplacementMap
         in="fbSourceGraphic"
         xChannelSelector="R"
         yChannelSelector="G"
         scale="50"
         result="result2"
         in2="result3"
         id="feDisplacementMap118546" />
      <feMorphology
         radius="1"
         operator="dilate"
         result="result4"
         id="feMorphology118548" />
      <feBlend
         mode="screen"
         in2="result2"
         id="feBlend118550" />
    </filter>
  </defs>
  <sodipodi:namedview
     id="base"
     pagecolor="#ffffff"
     bordercolor="#666666"
     borderopacity="1.0"
     inkscape:pageopacity="0.0"
     inkscape:pageshadow="2"
     inkscape:zoom="1"
     inkscape:cx="662.63617"
     inkscape:cy="-265.71429"
     inkscape:document-units="px"
     inkscape:current-layer="layer1"
     inkscape:document-rotation="0"
     showgrid="false"
     showborder="false"
     inkscape:window-width="1920"
     inkscape:window-height="999"
     inkscape:window-x="0"
     inkscape:window-y="28"
     inkscape:window-maximized="1"
     inkscape:lockguides="false" />
  <metadata
     id="metadata5">
    <rdf:RDF>
      <cc:Work
         rdf:about="">
        <dc:format>image/svg+xml</dc:format>
        <dc:type
           rdf:resource="http://purl.org/dc/dcmitype/StillImage" />
        <dc:title></dc:title>
      </cc:Work>
    </rdf:RDF>
  </metadata>
  <g
     inkscape:label="Layer 1"
     inkscape:groupmode="layer"
     id="layer1">
    <text
       xml:space="preserve"
       id="text130"
       style="fill:black;fill-opacity:1;line-height:1.25;stroke:none;font-family:sans-serif;font-style:normal;font-weight:normal;font-size:10.58333333px;white-space:pre;shape-inside:url(#rect132);" />
    <g
       sodipodi:type="inkscape:box3d"
       id="g138"
       style="fill:#000000;fill-opacity:0"
       inkscape:perspectiveID="#perspective136"
       inkscape:corner0="1.3504972 : 0.1016989 : 0 : 1"
       inkscape:corner7="0.94323696 : 0.061633107 : 0.25 : 1">
      <path
         sodipodi:type="inkscape:box3dside"
         id="path150"
         style="fill:#e9e9ff;fill-rule:evenodd;stroke:none;stroke-linejoin:round"
         inkscape:box3dsidetype="11"
         d="M 85.656695,79.351479 101.56221,74.588828 V 92.85671 l -15.905515,1.901743 z"
         points="101.56221,74.588828 101.56221,92.85671 85.656695,94.758453 85.656695,79.351479 " />
      <path
         sodipodi:type="inkscape:box3dside"
         id="path140"
         style="fill:#353564;fill-rule:evenodd;stroke:none;stroke-linejoin:round"
         inkscape:box3dsidetype="6"
         d="m 63.178121,76.62349 v 17.045668 l 22.478574,1.089295 V 79.351479 Z"
         points="63.178121,93.669158 85.656695,94.758453 85.656695,79.351479 63.178121,76.62349 " />
      <path
         sodipodi:type="inkscape:box3dside"
         id="path142"
         style="fill:#4d4d9f;fill-rule:evenodd;stroke:none;stroke-linejoin:round"
         inkscape:box3dsidetype="5"
         d="m 63.178121,76.62349 13.240761,-5.947099 25.143328,3.912437 -15.905515,4.762651 z"
         points="76.418882,70.676391 101.56221,74.588828 85.656695,79.351479 63.178121,76.62349 " />
      <path
         sodipodi:type="inkscape:box3dside"
         id="path148"
         style="fill:#afafde;fill-rule:evenodd;stroke:none;stroke-linejoin:round"
         inkscape:box3dsidetype="13"
         d="M 63.178121,93.669158 76.418882,91.29446 101.56221,92.85671 85.656695,94.758453 Z"
         points="76.418882,91.29446 101.56221,92.85671 85.656695,94.758453 63.178121,93.669158 " />
      <path
         sodipodi:type="inkscape:box3dside"
         id="path146"
         style="fill:#d7d7ff;fill-rule:evenodd;stroke:none;stroke-linejoin:round"
         inkscape:box3dsidetype="14"
         d="M 76.418882,70.676391 V 91.29446 l 25.143328,1.56225 V 74.588828 Z"
         points="76.418882,91.29446 101.56221,92.85671 101.56221,74.588828 76.418882,70.676391 " />
      <path
         sodipodi:type="inkscape:box3dside"
         id="path144"
         style="fill:#8686bf;fill-rule:evenodd;stroke:none;stroke-linejoin:round"
         inkscape:box3dsidetype="3"
         d="M 63.178121,76.62349 76.418882,70.676391 V 91.29446 l -13.240761,2.374698 z"
         points="76.418882,70.676391 76.418882,91.29446 63.178121,93.669158 63.178121,76.62349 " />
    </g>
    <g
       sodipodi:type="inkscape:box3d"
       id="g152"
       style="fill:#000000;fill-opacity:0"
       inkscape:perspectiveID="#perspective136"
       inkscape:corner0="1.907659 : 0.12490315 : 0 : 1"
       inkscape:corner7="1.3504972 : 0.061633107 : 0.25 : 1">
      <path
         sodipodi:type="inkscape:box3dside"
         id="path164"
         style="fill:#e9e9ff;fill-rule:evenodd;stroke:none;stroke-linejoin:round"
         inkscape:box3dsidetype="11"
         d="m 70.542764,76.528541 15.113931,-6.100068 v 24.32998 l -15.113931,1.807098 z"
         points="85.656695,70.428473 85.656695,94.758453 70.542764,96.565551 70.542764,76.528541 " />
      <path
         sodipodi:type="inkscape:box3dside"
         id="path154"
         style="fill:#353564;fill-rule:evenodd;stroke:none;stroke-linejoin:round"
         inkscape:box3dsidetype="6"
         d="m 51.072012,74.08057 v 21.759789 l 19.470752,0.725192 v -20.03701 z"
         points="51.072012,95.840359 70.542764,96.565551 70.542764,76.528541 51.072012,74.08057 " />
      <path
         sodipodi:type="inkscape:box3dside"
         id="path156"
         style="fill:#4d4d9f;fill-rule:evenodd;stroke:none;stroke-linejoin:round"
         inkscape:box3dsidetype="5"
         d="m 51.072012,74.08057 12.106109,-7.32914 22.478574,3.677043 -15.113931,6.100068 z"
         points="63.178121,66.75143 85.656695,70.428473 70.542764,76.528541 51.072012,74.08057 " />
      <path
         sodipodi:type="inkscape:box3dside"
         id="path162"
         style="fill:#afafde;fill-rule:evenodd;stroke:none;stroke-linejoin:round"
         inkscape:box3dsidetype="13"
         d="m 51.072012,95.840359 12.106109,-2.171201 22.478574,1.089295 -15.113931,1.807098 z"
         points="63.178121,93.669158 85.656695,94.758453 70.542764,96.565551 51.072012,95.840359 " />
      <path
         sodipodi:type="inkscape:box3dside"
         id="path160"
         style="fill:#d7d7ff;fill-rule:evenodd;stroke:none;stroke-linejoin:round"
         inkscape:box3dsidetype="14"
         d="m 63.178121,66.75143 v 26.917728 l 22.478574,1.089295 v -24.32998 z"
         points="63.178121,93.669158 85.656695,94.758453 85.656695,70.428473 63.178121,66.75143 " />
      <path
         sodipodi:type="inkscape:box3dside"
         id="path158"
         style="fill:#8686bf;fill-rule:evenodd;stroke:none;stroke-linejoin:round"
         inkscape:box3dsidetype="3"
         d="M 51.072012,74.08057 63.178121,66.75143 V 93.669158 L 51.072012,95.840359 Z"
         points="63.178121,66.75143 63.178121,93.669158 51.072012,95.840359 51.072012,74.08057 " />
    </g>
    <g
       sodipodi:type="inkscape:box3d"
       id="g166"
       style="fill:#000000;fill-opacity:0"
       inkscape:perspectiveID="#perspective136"
       inkscape:corner0="0.92598423 : 0.025292457 : 0 : 1"
       inkscape:corner7="0.43482895 : -0.011778383 : 0.25 : 1">
      <path
         sodipodi:type="inkscape:box3dside"
         id="path178"
         style="fill:#e9e9ff;fill-rule:evenodd;stroke:none;stroke-linejoin:round"
         inkscape:box3dsidetype="11"
         d="m 102.36747,109.46122 29.84179,1.30052 v 22.00273 l -29.84179,-6.2669 z"
         points="132.20926,110.76174 132.20926,132.76447 102.36747,126.49757 102.36747,109.46122 " />
      <path
         sodipodi:type="inkscape:box3dside"
         id="path168"
         style="fill:#353564;fill-rule:evenodd;stroke:none;stroke-linejoin:round"
         inkscape:box3dsidetype="6"
         d="m 77.103433,110.0403 v 19.24774 l 25.264037,-2.79047 v -17.03635 z"
         points="77.103433,129.28804 102.36747,126.49757 102.36747,109.46122 77.103433,110.0403 " />
      <path
         sodipodi:type="inkscape:box3dside"
         id="path176"
         style="fill:#afafde;fill-rule:evenodd;stroke:none;stroke-linejoin:round"
         inkscape:box3dsidetype="13"
         d="m 77.103433,129.28804 26.393217,8.31402 28.71261,-4.83759 -29.84179,-6.2669 z"
         points="103.49665,137.60206 132.20926,132.76447 102.36747,126.49757 77.103433,129.28804 " />
      <path
         sodipodi:type="inkscape:box3dside"
         id="path170"
         style="fill:#4d4d9f;fill-rule:evenodd;stroke:none;stroke-linejoin:round"
         inkscape:box3dsidetype="5"
         d="m 77.103433,110.0403 26.393217,1.72534 28.71261,-1.0039 -29.84179,-1.30052 z"
         points="103.49665,111.76564 132.20926,110.76174 102.36747,109.46122 77.103433,110.0403 " />
      <path
         sodipodi:type="inkscape:box3dside"
         id="path174"
         style="fill:#d7d7ff;fill-rule:evenodd;stroke:none;stroke-linejoin:round"
         inkscape:box3dsidetype="14"
         d="m 103.49665,111.76564 v 25.83642 l 28.71261,-4.83759 v -22.00273 z"
         points="103.49665,137.60206 132.20926,132.76447 132.20926,110.76174 103.49665,111.76564 " />
      <path
         sodipodi:type="inkscape:box3dside"
         id="path172"
         style="fill:#8686bf;fill-rule:evenodd;stroke:none;stroke-linejoin:round"
         inkscape:box3dsidetype="3"
         d="m 77.103433,110.0403 26.393217,1.72534 v 25.83642 l -26.393217,-8.31402 z"
         points="103.49665,111.76564 103.49665,137.60206 77.103433,129.28804 77.103433,110.0403 " />
    </g>
    <text
       xml:space="preserve"
       id="text252"
       style="fill:black;fill-opacity:1;line-height:1.25;stroke:none;font-family:sans-serif;font-style:normal;font-weight:normal;font-size:10.58333336px;white-space:pre;shape-inside:url(#rect254);" />
    <text
       xml:space="preserve"
       style="font-style:normal;font-weight:normal;font-size:10.5833px;line-height:1.25;font-family:sans-serif;fill:#000000;fill-opacity:1;stroke:none;stroke-width:0.264583"
       x="56.556366"
       y="-68.146957"
       id="text260"><tspan
         sodipodi:role="line"
         id="tspan258"
         x="56.556366"
         y="-68.146957"
         style="stroke-width:0.264583" /></text>
    <ellipse
       style="fill:#000000;fill-opacity:0;stroke-width:0.264583"
       id="path262"
       cx="72.186981"
       cy="-74.68264"
       rx="2.4958909"
       ry="0.72782218" />
    <ellipse
       style="fill:#000000;fill-opacity:0;stroke-width:0.264583"
       id="path264"
       cx="73.55899"
       cy="-78.155777"
       rx="4.9616318"
       ry="2.8193207" />
    <ellipse
       style="fill:#000000;fill-opacity:0;stroke-width:0.264583"
       id="path266"
       cx="93.198318"
       cy="-72.973373"
       rx="24.173977"
       ry="10.091277" />
    <ellipse
       style="fill:#000000;fill-opacity:0;stroke-width:0.264583"
       id="path268"
       cx="43.337582"
       cy="-76.368706"
       rx="41.647312"
       ry="27.774708" />
    <ellipse
       style="fill:#000000;fill-opacity:0;stroke-width:0.264583"
       id="path270"
       cx="39.348568"
       cy="-87.742592"
       rx="21.223124"
       ry="8.6642761" />
    <path
       id="path118316"
       style="font-style:italic;font-variant:normal;font-weight:bold;font-stretch:normal;font-size:25.0384px;line-height:1.25;font-family:sans-serif;-inkscape-font-specification:'sans-serif, Bold Italic';font-variant-ligatures:normal;font-variant-caps:normal;font-variant-numeric:normal;font-variant-east-asian:normal;fill:#55ddff;fill-opacity:1;stroke:none;stroke-width:1.10898;filter:url(#filter118552)"
       d="M 482.3418 -416.62891 L 482.3418 -404.79297 C 481.62401 -406.09504 480.71273 -407.05861 479.61133 -407.68359 C 478.5223 -408.32163 477.21035 -408.64062 475.67578 -408.64062 C 473.16358 -408.64063 471.11728 -407.58594 469.5332 -405.47656 C 467.96155 -403.36718 467.17578 -400.59376 467.17578 -397.15625 C 467.17578 -393.71877 467.96155 -390.94532 469.5332 -388.83594 C 471.11728 -386.72656 473.16358 -385.67188 475.67578 -385.67188 C 477.21035 -385.67187 478.5223 -385.98437 479.61133 -386.60938 C 480.71273 -387.24738 481.62401 -388.21743 482.3418 -389.51953 L 482.3418 -386.23828 L 485.75586 -386.23828 L 485.75586 -416.62891 L 482.3418 -416.62891 z M 553.06641 -416.62891 L 553.06641 -412.07812 L 556.48242 -412.07812 L 556.48242 -416.62891 L 553.06641 -416.62891 z M 598.21094 -416.62891 L 598.21094 -412.07812 L 601.62695 -412.07812 L 601.62695 -416.62891 L 598.21094 -416.62891 z M 615.38281 -408.64258 C 612.83347 -408.64258 610.86652 -408.08269 609.48047 -406.96289 C 608.09442 -405.84312 607.40039 -404.25456 607.40039 -402.19727 C 607.40039 -400.50457 607.87 -399.16994 608.81055 -398.19336 C 609.75107 -397.22983 611.28028 -396.51368 613.39648 -396.04492 L 614.58398 -395.75 C 616.70017 -395.26826 618.06872 -394.76694 618.6875 -394.24609 C 619.31863 -393.72525 619.63281 -392.97655 619.63281 -392 C 619.63281 -390.94531 619.20025 -390.12499 618.33398 -389.53906 C 617.46772 -388.96614 616.22991 -388.67969 614.62109 -388.67969 C 613.42069 -388.67969 612.20759 -388.84898 610.98242 -389.1875 C 609.75728 -389.5391 608.51426 -390.05991 607.25195 -390.75 L 607.25195 -387.03906 C 608.58852 -386.58323 609.85624 -386.24467 611.05664 -386.02344 C 612.26942 -385.78911 613.43307 -385.67187 614.54688 -385.67188 C 617.21996 -385.67188 619.31768 -386.26431 620.83984 -387.44922 C 622.37441 -388.6341 623.14258 -390.24217 623.14258 -392.27344 C 623.14258 -394.0573 622.62871 -395.44404 621.60156 -396.43359 C 620.58678 -397.4362 618.86701 -398.21094 616.44141 -398.75781 L 615.27148 -399.03125 C 613.4399 -399.46096 612.22162 -399.91017 611.61523 -400.37891 C 611.00885 -400.8607 610.70508 -401.51825 610.70508 -402.35156 C 610.70508 -403.44533 611.12525 -404.26563 611.9668 -404.8125 C 612.82067 -405.35937 614.09557 -405.63281 615.79102 -405.63281 C 616.90482 -405.63281 617.98196 -405.5026 619.02148 -405.24219 C 620.06101 -404.98178 621.06401 -404.59116 622.0293 -404.07031 L 622.0293 -407.46875 C 621.08877 -407.8594 620.06107 -408.15238 618.94727 -408.34766 C 617.83349 -408.54318 616.6451 -408.64258 615.38281 -408.64258 z M 428.56445 -408.64062 C 427.45068 -408.64063 426.30459 -408.51043 425.12891 -408.25 C 423.95327 -408.00262 422.74015 -407.625 421.49023 -407.11719 L 421.49023 -403.79688 C 422.52976 -404.39585 423.61406 -404.84507 424.74023 -405.14453 C 425.86638 -405.444 427.02291 -405.59375 428.21094 -405.59375 C 430.07964 -405.59375 431.52751 -405.13798 432.55469 -404.22656 C 433.59418 -403.32812 434.11328 -402.05211 434.11328 -400.39844 L 434.11328 -400.04688 L 429.32422 -400.04688 C 426.21798 -400.04688 423.88027 -399.42187 422.30859 -398.17188 C 420.74929 -396.92186 419.96875 -395.06642 419.96875 -392.60547 C 419.96875 -390.49611 420.59381 -388.80989 421.84375 -387.54688 C 423.10604 -386.29686 424.80113 -385.67188 426.92969 -385.67188 C 428.61274 -385.67187 430.03591 -385.98437 431.19922 -386.60938 C 432.36248 -387.24738 433.33364 -388.23047 434.11328 -389.55859 L 434.11328 -386.23828 L 437.5293 -386.23828 L 437.5293 -398.71875 C 437.5293 -402.05207 436.78781 -404.53904 435.30273 -406.17969 C 433.81771 -407.8203 431.5717 -408.64063 428.56445 -408.64062 z M 454.58984 -408.64062 C 453.14193 -408.64062 451.85987 -408.31512 450.74609 -407.66406 C 449.64466 -407.01305 448.6859 -406.02994 447.86914 -404.71484 L 447.86914 -408.11328 L 444.43555 -408.11328 L 444.43555 -386.23828 L 447.86914 -386.23828 L 447.86914 -398.60156 C 447.86914 -400.73697 448.40058 -402.42317 449.46484 -403.66016 C 450.52913 -404.89715 451.98417 -405.51563 453.82812 -405.51562 C 455.36266 -405.51563 456.51398 -405.00132 457.28125 -403.97266 C 458.04854 -402.94402 458.43164 -401.39454 458.43164 -399.32422 L 458.43164 -386.23828 L 461.84766 -386.23828 L 461.84766 -399.44141 C 461.84766 -402.46223 461.23494 -404.74739 460.00977 -406.29688 C 458.78459 -407.85938 456.9783 -408.64062 454.58984 -408.64062 z M 538.99609 -408.64062 C 537.54816 -408.64062 536.26612 -408.31512 535.15234 -407.66406 C 534.05094 -407.01305 533.09217 -406.02994 532.27539 -404.71484 L 532.27539 -408.11328 L 528.8418 -408.11328 L 528.8418 -386.23828 L 532.27539 -386.23828 L 532.27539 -398.60156 C 532.27539 -400.73697 532.80876 -402.42317 533.87305 -403.66016 C 534.93731 -404.89715 536.39042 -405.51563 538.23438 -405.51562 C 539.76891 -405.51563 540.92023 -405.00132 541.6875 -403.97266 C 542.45479 -402.94402 542.83789 -401.39454 542.83789 -399.32422 L 542.83789 -386.23828 L 546.25391 -386.23828 L 546.25391 -399.44141 C 546.25391 -402.46223 545.64119 -404.74739 544.41602 -406.29688 C 543.19084 -407.85938 541.38455 -408.64062 538.99609 -408.64062 z M 648.72266 -408.64062 C 645.74018 -408.64062 643.4005 -407.62502 641.70508 -405.59375 C 640.022 -403.56251 639.17969 -400.75 639.17969 -397.15625 C 639.17969 -393.57553 640.022 -390.76302 641.70508 -388.71875 C 643.4005 -386.68751 645.74018 -385.67188 648.72266 -385.67188 C 651.69276 -385.67187 654.02526 -386.68751 655.7207 -388.71875 C 657.41612 -390.76302 658.26367 -393.57553 658.26367 -397.15625 C 658.26367 -400.75 657.41612 -403.56251 655.7207 -405.59375 C 654.02526 -407.62502 651.69276 -408.64062 648.72266 -408.64062 z M 673.94922 -408.64062 C 672.50128 -408.64062 671.22122 -408.31512 670.10742 -407.66406 C 669.00604 -407.01305 668.04728 -406.02994 667.23047 -404.71484 L 667.23047 -408.11328 L 663.79492 -408.11328 L 663.79492 -386.23828 L 667.23047 -386.23828 L 667.23047 -398.60156 C 667.23047 -400.73697 667.76186 -402.42317 668.82617 -403.66016 C 669.89044 -404.89715 671.34357 -405.51563 673.1875 -405.51562 C 674.72206 -405.51563 675.87336 -405.00132 676.64062 -403.97266 C 677.40792 -402.94402 677.79297 -401.39454 677.79297 -399.32422 L 677.79297 -386.23828 L 681.20703 -386.23828 L 681.20703 -399.44141 C 681.20703 -402.46223 680.59429 -404.74739 679.36914 -406.29688 C 678.14397 -407.85938 676.33768 -408.64062 673.94922 -408.64062 z M 504.52344 -408.11328 L 504.52344 -394.87109 C 504.52344 -391.8633 505.14332 -389.57813 506.38086 -388.01562 C 507.6184 -386.45312 509.4299 -385.67188 511.81836 -385.67188 C 513.26627 -385.67187 514.53594 -385.99087 515.625 -386.62891 C 516.72638 -387.27994 517.69035 -388.26953 518.51953 -389.59766 L 518.51953 -386.23828 L 521.93555 -386.23828 L 521.93555 -408.11328 L 518.51953 -408.11328 L 518.51953 -395.71094 C 518.51953 -393.5755 517.98291 -391.88931 516.90625 -390.65234 C 515.84196 -389.41535 514.3869 -388.79688 512.54297 -388.79688 C 511.0084 -388.79688 509.85714 -389.31118 509.08984 -390.33984 C 508.32257 -391.38151 507.93945 -392.93749 507.93945 -395.00781 L 507.93945 -408.11328 L 504.52344 -408.11328 z M 553.06641 -408.11328 L 553.06641 -386.23828 L 556.48242 -386.23828 L 556.48242 -408.11328 L 553.06641 -408.11328 z M 561.82812 -408.11328 L 569.2168 -397.68359 L 561.14062 -386.23828 L 565.16992 -386.23828 L 571.2207 -394.83203 L 577.27344 -386.23828 L 581.30078 -386.23828 L 573.39258 -397.46875 L 580.91016 -408.11328 L 576.88281 -408.11328 L 571.36914 -400.32031 L 565.85547 -408.11328 L 561.82812 -408.11328 z M 598.21094 -408.11328 L 598.21094 -386.23828 L 601.62695 -386.23828 L 601.62695 -408.11328 L 598.21094 -408.11328 z M 329.9082 -407.57422 L 329.9082 -393.17383 L 393.12695 -393.17383 L 328.33008 -294.14844 L 328.33008 -281.10156 L 412.00391 -281.10156 L 412.00391 -295.50195 L 345.62695 -295.50195 L 410.42578 -394.5293 L 410.42578 -407.57422 L 329.9082 -407.57422 z M 476.51172 -405.63281 C 478.31853 -405.63281 479.7417 -404.87759 480.78125 -403.36719 C 481.82077 -401.86976 482.3418 -399.79948 482.3418 -397.15625 C 482.3418 -394.51302 481.82077 -392.43618 480.78125 -390.92578 C 479.7417 -389.42838 478.31853 -388.67969 476.51172 -388.67969 C 474.7049 -388.67969 473.28173 -389.42838 472.24219 -390.92578 C 471.21504 -392.43618 470.70117 -394.51302 470.70117 -397.15625 C 470.70117 -399.79948 471.21504 -401.86976 472.24219 -403.36719 C 473.28173 -404.87759 474.7049 -405.63281 476.51172 -405.63281 z M 648.72266 -405.59375 C 650.54184 -405.59375 651.98259 -404.83202 653.04688 -403.30859 C 654.11116 -401.79817 654.64453 -399.74739 654.64453 -397.15625 C 654.64453 -394.55208 654.11116 -392.49477 653.04688 -390.98438 C 651.98259 -389.47395 650.54184 -388.71875 648.72266 -388.71875 C 646.87873 -388.71875 645.42364 -389.46742 644.35938 -390.96484 C 643.30743 -392.47524 642.78125 -394.53908 642.78125 -397.15625 C 642.78125 -399.77345 643.31459 -401.83073 644.37891 -403.32812 C 645.4432 -404.83852 646.89112 -405.59375 648.72266 -405.59375 z M 430.7168 -397.23438 L 434.11328 -397.23438 L 434.11328 -396.43359 C 434.11328 -394.08986 433.53761 -392.20835 432.38672 -390.78906 C 431.2482 -389.38283 429.73331 -388.67969 427.83984 -388.67969 C 426.46619 -388.67969 425.37668 -389.0508 424.57227 -389.79297 C 423.78025 -390.54819 423.38477 -391.5638 423.38477 -392.83984 C 423.38477 -394.44138 423.91618 -395.57419 424.98047 -396.23828 C 426.04473 -396.90232 427.95709 -397.23438 430.7168 -397.23438 z M 688.50195 -391.19922 L 688.50195 -386.23828 L 692.41992 -386.23828 L 692.41992 -391.19922 L 688.50195 -391.19922 z M 700.58789 -391.19922 L 700.58789 -386.23828 L 704.50391 -386.23828 L 704.50391 -391.19922 L 700.58789 -391.19922 z M 605.51758 -384.89062 L 591.41992 -384.80469 L 589.51562 -368.87109 L 603.65039 -368.95703 L 605.51758 -384.89062 z M 526.30078 -384.4082 L 512.20508 -384.32227 L 510.29883 -368.38867 L 524.43555 -368.47461 L 526.30078 -384.4082 z M 700.00781 -363.16406 C 697.16238 -363.14674 694.45405 -362.27495 691.88281 -360.55078 C 689.31157 -358.82661 686.77482 -356.19563 684.27148 -352.6543 L 685.35742 -361.60352 L 671.26172 -361.51758 L 664.12891 -300.40234 L 678.18555 -300.48828 L 681.72461 -330.55469 C 682.40603 -336.12061 683.742 -340.47298 685.73242 -343.61133 C 687.74814 -346.78617 690.2039 -348.38275 693.10156 -348.40039 C 694.79837 -348.41072 696.11956 -347.78219 697.0625 -346.51562 C 698.03155 -345.24922 698.54229 -343.45312 698.5957 -341.12695 C 698.6151 -340.29098 698.54981 -339.14442 698.40039 -337.68945 C 698.27635 -336.27099 698.08203 -334.52482 697.81641 -332.45117 L 694.12305 -300.58594 L 708.17969 -300.67188 L 712.5332 -337.88477 C 712.72976 -339.55813 712.86374 -341.10334 712.93555 -342.52148 C 713.03331 -343.93979 713.06968 -345.23144 713.04297 -346.39453 C 712.92013 -351.73745 711.72924 -355.87398 709.46875 -358.80469 C 707.20824 -361.73546 704.05407 -363.18876 700.00781 -363.16406 z M 636.33789 -362.77734 C 631.95223 -362.75065 627.96908 -361.63451 624.39062 -359.43164 C 620.83827 -357.22893 617.80656 -354.01136 615.29297 -349.7793 C 613.13151 -346.13099 611.50013 -342.10444 610.40039 -337.69922 C 609.29979 -333.33034 608.80288 -328.85699 608.9082 -324.27734 C 609.09118 -316.31748 611.08933 -310.0407 614.90234 -305.44727 C 618.74146 -300.85399 623.88408 -298.57598 630.33203 -298.61523 C 634.79598 -298.64241 638.81803 -299.75807 642.39648 -301.96094 C 645.97497 -304.16381 649.04527 -307.41758 651.60938 -311.72266 C 653.77169 -315.33461 655.39152 -319.3063 656.4668 -323.63867 C 657.54124 -328.00739 658.026 -332.5012 657.91992 -337.11719 C 657.73694 -345.07705 655.72584 -351.35204 651.88672 -355.94531 C 648.04758 -360.53859 642.86413 -362.81708 636.33789 -362.77734 z M 481.11719 -361.83203 C 478.27173 -361.81471 475.5634 -360.94292 472.99219 -359.21875 C 470.42095 -357.49458 467.88419 -354.86164 465.38086 -351.32031 L 466.4668 -360.26953 L 452.37109 -360.18359 L 445.23828 -299.07031 L 459.29492 -299.15625 L 462.83398 -329.22266 C 463.51538 -334.78858 464.85135 -339.14096 466.8418 -342.2793 C 468.85749 -345.45415 471.31327 -347.04877 474.21094 -347.06641 C 475.90777 -347.07673 477.22896 -346.45016 478.17188 -345.18359 C 479.14097 -343.91719 479.65166 -342.12109 479.70508 -339.79492 C 479.72448 -338.95896 479.65918 -337.81239 479.50977 -336.35742 C 479.38572 -334.93896 479.19141 -333.19279 478.92578 -331.11914 L 475.23242 -299.25391 L 489.28906 -299.33789 L 493.64258 -336.55273 C 493.83911 -338.2261 493.97311 -339.77131 494.04492 -341.18945 C 494.14269 -342.60776 494.17905 -343.89942 494.15234 -345.0625 C 494.02951 -350.40542 492.83861 -354.54195 490.57812 -357.47266 C 488.31764 -360.40343 485.16347 -361.85672 481.11719 -361.83203 z M 602.77344 -361.09961 L 588.67773 -361.01367 L 581.54492 -299.90039 L 595.60352 -299.98633 L 602.77344 -361.09961 z M 579.75 -360.95898 L 564.51758 -360.86719 L 553.53906 -342.69727 L 546.62305 -360.75781 L 532.05664 -360.66992 L 544.37109 -330.91797 L 524.0625 -299.55078 L 539.29492 -299.64258 L 551.45898 -319.01953 L 558.79492 -299.76172 L 573.40039 -299.85156 L 560.46289 -331.125 L 579.75 -360.95898 z M 523.55859 -360.61719 L 509.46289 -360.53125 L 502.33008 -299.41797 L 516.38672 -299.50391 L 523.55859 -360.61719 z M 438.90039 -360.10156 L 424.8418 -360.01758 L 421.30469 -329.95117 C 420.64937 -324.38541 419.3134 -320.03303 417.29688 -316.89453 C 415.28032 -313.75603 412.82342 -312.17779 409.92578 -312.16016 C 408.22895 -312.14983 406.90776 -312.77836 405.96484 -314.04492 C 405.02193 -315.31148 404.52532 -317.08908 404.47266 -319.37891 C 404.45351 -320.21487 404.50569 -321.35964 404.62891 -322.81445 C 404.75209 -324.26926 404.94529 -326.03377 405.21094 -328.10742 L 408.90625 -359.91992 L 394.84766 -359.83398 L 390.57617 -322.51172 C 390.40231 -320.9839 390.27884 -319.50994 390.20703 -318.0918 C 390.13522 -316.67365 390.11335 -315.32877 390.14258 -314.05664 C 390.26624 -308.67738 391.45824 -304.52251 393.71875 -301.5918 C 395.97924 -298.66121 399.10748 -297.20823 403.10156 -297.23242 C 406.0253 -297.25022 408.78435 -298.13972 411.38086 -299.90039 C 413.97734 -301.66106 416.43721 -304.31134 418.75781 -307.85156 L 417.66992 -298.90234 L 431.80664 -298.98828 L 438.90039 -360.10156 z M 635.52344 -348.8125 C 637.95123 -348.82728 639.81431 -347.83908 641.11328 -345.84766 C 642.43843 -343.85639 643.14474 -340.95309 643.23242 -337.13672 C 643.3962 -330.01283 642.35663 -324.1342 640.11328 -319.50391 C 637.86912 -314.91005 634.93331 -312.60225 631.30469 -312.58008 C 628.87692 -312.5653 626.99893 -313.55366 625.67383 -315.54492 C 624.37387 -317.57269 623.68024 -320.51447 623.5918 -324.36719 C 623.42887 -331.45473 624.46873 -337.29473 626.71289 -341.88867 C 628.95707 -346.48253 631.89484 -348.79033 635.52344 -348.8125 z "
       transform="scale(0.26458333)" />
  </g>
</svg>
