<?xml version="1.0" encoding="UTF-8" standalone="no"?>
<svg
   xmlns:dc="http://purl.org/dc/elements/1.1/"
   xmlns:cc="http://creativecommons.org/ns#"
   xmlns:rdf="http://www.w3.org/1999/02/22-rdf-syntax-ns#"
   xmlns:svg="http://www.w3.org/2000/svg"
   xmlns="http://www.w3.org/2000/svg"
   xmlns:sodipodi="http://sodipodi.sourceforge.net/DTD/sodipodi-0.dtd"
   xmlns:inkscape="http://www.inkscape.org/namespaces/inkscape"
   width="297mm"
   height="210mm"
   viewBox="0 0 297 210"
   version="1.1"
   id="svg8"
   inkscape:version="1.0.2 (e86c870879, 2021-01-15)"
   sodipodi:docname="zunixion-logo0.svg">
  <defs
     id="defs2">
    <rect
       x="33.979757"
       y="-73.362108"
       width="37.100336"
       height="14.39187"
       id="rect254" />
    <inkscape:perspective
       sodipodi:type="inkscape:persp3d"
       inkscape:vp_x="0 : 105 : 1"
       inkscape:vp_y="0 : 1000 : 0"
       inkscape:vp_z="297 : 105 : 1"
       inkscape:persp3d-origin="148.5 : 70 : 1"
       id="perspective136" />
    <rect
       x="39.672449"
       y="81.394483"
       width="78.180661"
       height="30.266305"
       id="rect132" />
    <filter
       inkscape:label="Drop Shadow"
       inkscape:menu="Materials"
       inkscape:menu-tooltip="3D warped, fibered wood texture"
       style="color-interpolation-filters:sRGB;"
       id="filter121233"
       height="1.5"
       y="-0.25"
       width="1.5"
       x="-0.25">
      <feGaussianBlur
         stdDeviation="2.3"
         in="SourceAlpha"
         result="result0"
         id="feGaussianBlur121207" />
      <feMorphology
         in="SourceAlpha"
         radius="6.6"
         result="result1"
         id="feMorphology121209" />
      <feGaussianBlur
         stdDeviation="8.9"
         in="result1"
         id="feGaussianBlur121211" />
      <feColorMatrix
         values="1 0 0 0 0 0 1 0 0 0 0 0 1 0 0 0 0 0 0.3 0"
         result="result91"
         id="feColorMatrix121213" />
      <feComposite
         in="result0"
         operator="out"
         result="result2"
         in2="result91"
         id="feComposite121215" />
      <feGaussianBlur
         stdDeviation="1.7"
         result="result4"
         id="feGaussianBlur121217" />
      <feDiffuseLighting
         surfaceScale="10"
         id="feDiffuseLighting121221">
        <feDistantLight
           azimuth="225"
           elevation="45"
           id="feDistantLight121219" />
      </feDiffuseLighting>
      <feBlend
         in2="SourceGraphic"
         mode="multiply"
         id="feBlend121223" />
      <feComposite
         in2="SourceAlpha"
         operator="in"
         result="result3"
         id="feComposite121225" />
      <feSpecularLighting
         in="result4"
         surfaceScale="5"
         specularExponent="17.9"
         id="feSpecularLighting121229">
        <feDistantLight
           azimuth="225"
           elevation="45"
           id="feDistantLight121227" />
      </feSpecularLighting>
      <feComposite
         in2="result3"
         operator="atop"
         id="feComposite121231"
         result="fbSourceGraphic" />
      <feColorMatrix
         result="fbSourceGraphicAlpha"
         in="fbSourceGraphic"
         values="0 0 0 -1 0 0 0 0 -1 0 0 0 0 -1 0 0 0 0 1 0"
         id="feColorMatrix121235" />
      <feMorphology
         id="feMorphology121237"
         radius="4.3"
         in="fbSourceGraphicAlpha"
         result="result91" />
      <feComposite
         in2="result91"
         id="feComposite121239"
         operator="out"
         in="fbSourceGraphic" />
      <feGaussianBlur
         id="feGaussianBlur121241"
         result="result0"
         stdDeviation="1.2" />
      <feDiffuseLighting
         id="feDiffuseLighting121243"
         diffuseConstant="1"
         result="result92">
        <feDistantLight
           id="feDistantLight121245"
           elevation="66"
           azimuth="225" />
      </feDiffuseLighting>
      <feBlend
         in2="fbSourceGraphic"
         id="feBlend121247"
         mode="multiply"
         result="result93" />
      <feComposite
         in2="fbSourceGraphicAlpha"
         id="feComposite121249"
         operator="in"
         result="fbSourceGraphic" />
      <feColorMatrix
         result="fbSourceGraphicAlpha"
         in="fbSourceGraphic"
         values="0 0 0 -1 0 0 0 0 -1 0 0 0 0 -1 0 0 0 0 1 0"
         id="feColorMatrix121384" />
      <feGaussianBlur
         id="feGaussianBlur121386"
         result="result8"
         stdDeviation="4"
         in="fbSourceGraphic" />
      <feTurbulence
         id="feTurbulence121388"
         baseFrequency="0.025 0.2"
         numOctaves="3"
         type="fractalNoise"
         result="result7"
         seed="22" />
      <feComposite
         in2="result8"
         id="feComposite121390"
         operator="in"
         in="fbSourceGraphic"
         result="result6" />
      <feDisplacementMap
         in2="result6"
         id="feDisplacementMap121392"
         result="result4"
         scale="50"
         yChannelSelector="A"
         xChannelSelector="A"
         in="result7" />
      <feFlood
         id="feFlood121394"
         flood-color="rgb(230,211,138)"
         flood-opacity="1"
         result="result94" />
      <feComposite
         in2="result4"
         id="feComposite121396"
         operator="atop"
         result="result2" />
      <feComposite
         in2="fbSourceGraphic"
         id="feComposite121398"
         operator="atop"
         in="result2"
         result="result9" />
      <feGaussianBlur
         id="feGaussianBlur121400"
         result="result0"
         in="result9"
         stdDeviation="8" />
      <feSpecularLighting
         id="feSpecularLighting121402"
         specularExponent="15"
         specularConstant="0.7"
         surfaceScale="5"
         lighting-color="rgb(255,255,255)"
         result="result1"
         in="result0">
        <feDistantLight
           id="feDistantLight121404"
           azimuth="235"
           elevation="50" />
      </feSpecularLighting>
      <feComposite
         in2="result9"
         id="feComposite121406"
         operator="in"
         result="result2"
         in="result1" />
      <feComposite
         in2="result2"
         id="feComposite121408"
         k3="0.5"
         k2="0.5"
         operator="arithmetic"
         result="result4"
         in="result9" />
      <feConvolveMatrix
         id="feConvolveMatrix121410"
         order="3 3"
         kernelMatrix="2 0 0 0 2 0 0 0 -2 "
         targetX="2"
         targetY="2"
         result="result10" />
      <feBlend
         in2="result10"
         id="feBlend121412"
         mode="multiply"
         in="result10"
         result="fbSourceGraphic" />
      <feColorMatrix
         result="fbSourceGraphicAlpha"
         in="fbSourceGraphic"
         values="0 0 0 -1 0 0 0 0 -1 0 0 0 0 -1 0 0 0 0 1 0"
         id="feColorMatrix121482" />
      <feFlood
         id="feFlood121484"
         flood-opacity="0.498039"
         flood-color="rgb(0,0,0)"
         result="flood"
         in="fbSourceGraphic" />
      <feComposite
         in2="fbSourceGraphic"
         id="feComposite121486"
         in="flood"
         operator="in"
         result="composite1" />
      <feGaussianBlur
         id="feGaussianBlur121488"
         in="composite1"
         stdDeviation="3"
         result="blur" />
      <feOffset
         id="feOffset121490"
         dx="6"
         dy="6"
         result="offset" />
      <feComposite
         in2="offset"
         id="feComposite121492"
         in="fbSourceGraphic"
         operator="over"
         result="composite2" />
    </filter>
    <filter
       inkscape:label="Pointillism"
       style="color-interpolation-filters:sRGB;"
       inkscape:menu-tooltip="Gives a turbulent pointillist HSL sensitive transparency"
       inkscape:menu="Scatter"
       height="1.2"
       width="1.2"
       y="-0.1"
       x="-0.1"
       id="filter603">
      <feTurbulence
         seed="50"
         type="fractalNoise"
         baseFrequency="1"
         numOctaves="3"
         result="result1"
         id="feTurbulence585" />
      <feColorMatrix
         type="luminanceToAlpha"
         in="SourceGraphic"
         result="result0"
         id="feColorMatrix587" />
      <feColorMatrix
         result="result2"
         values="1 0 0 0 0 0 1 0 0 0 0 0 1 0 0 0 0 0 0.5 0 "
         id="feColorMatrix589" />
      <feComposite
         result="result3"
         operator="over"
         in="result1"
         in2="result2"
         id="feComposite591" />
      <feColorMatrix
         result="result91"
         values="1 0 0 0 0 0 1 0 0 0 0 0 1 0 0 0 0 0 5 -3.2"
         id="feColorMatrix593" />
      <feComposite
         in2="result91"
         operator="arithmetic"
         k1="1.5"
         result="result93"
         id="feComposite595" />
      <feComposite
         in2="result93"
         in="SourceGraphic"
         operator="out"
         result="result4"
         id="feComposite597" />
      <feComposite
         in2="result4"
         operator="arithmetic"
         k2="0.5"
         k1="1"
         id="feComposite599" />
      <feDisplacementMap
         scale="15"
         xChannelSelector="R"
         yChannelSelector="A"
         in2="result1"
         result="result92"
         id="feDisplacementMap601" />
    </filter>
  </defs>
  <sodipodi:namedview
     id="base"
     pagecolor="#ffffff"
     bordercolor="#666666"
     borderopacity="1.0"
     inkscape:pageopacity="0.0"
     inkscape:pageshadow="2"
     inkscape:zoom="1.4142136"
     inkscape:cx="665.78977"
     inkscape:cy="-275.34632"
     inkscape:document-units="px"
     inkscape:current-layer="layer2"
     inkscape:document-rotation="0"
     showgrid="false"
     showborder="false"
     inkscape:window-width="1920"
     inkscape:window-height="999"
     inkscape:window-x="0"
     inkscape:window-y="28"
     inkscape:window-maximized="1"
     inkscape:lockguides="true" />
  <metadata
     id="metadata5">
    <rdf:RDF>
      <cc:Work
         rdf:about="">
        <dc:format>image/svg+xml</dc:format>
        <dc:type
           rdf:resource="http://purl.org/dc/dcmitype/StillImage" />
        <dc:title></dc:title>
      </cc:Work>
    </rdf:RDF>
  </metadata>
  <g
     inkscape:groupmode="layer"
     id="layer2"
     inkscape:label="Layer 2">
    <rect
       style="fill:#5599ff;fill-rule:evenodd;stroke-width:0.264583;filter:url(#filter603)"
       id="rect511"
       width="38.182838"
       height="32.769936"
       x="117.50186"
       y="-92.140976"
       transform="matrix(2.2631565,0,0,2.3071509,-123.91174,107.16747)" />
  </g>
  <g
     inkscape:label="Layer 1"
     inkscape:groupmode="layer"
     id="layer1">
    <text
       xml:space="preserve"
       id="text130"
       style="font-style:normal;font-weight:normal;font-size:10.5833px;line-height:1.25;font-family:sans-serif;white-space:pre;shape-inside:url(#rect132);fill:#000000;fill-opacity:1;stroke:none;" />
    <g
       sodipodi:type="inkscape:box3d"
       id="g138"
       style="fill:#000000;fill-opacity:0"
       inkscape:perspectiveID="#perspective136"
       inkscape:corner0="1.3504972 : 0.1016989 : 0 : 1"
       inkscape:corner7="0.94323696 : 0.061633107 : 0.25 : 1">
      <g
         id="g137">
        <path
           sodipodi:type="inkscape:box3dside"
           id="path150"
           style="fill:#e9e9ff;fill-rule:evenodd;stroke:none;stroke-linejoin:round"
           inkscape:box3dsidetype="11"
           d="M 85.656695,79.351479 101.56221,74.588828 V 92.85671 l -15.905515,1.901743 z"
           points="101.56221,74.588828 101.56221,92.85671 85.656695,94.758453 85.656695,79.351479 " />
        <path
           style="fill:none;stroke:none;stroke-width:1"
           d="m 86.296535,79.436079 -0.187628,0.187628 c -0.250171,0.250171 -0.250171,1.372703 0,1.122532 l 1.369,-1.369 c 0.561266,-0.561266 2.163587,-1.041055 1.602321,-0.479789 l -2.738,2.738 c -0.561266,0.561266 -0.561266,1.683798 0,1.122532 l 4.340321,-4.340321 c 0.561266,-0.561266 2.163587,-1.041055 1.602321,-0.479789 l -5.942643,5.942643 c -0.561266,0.561266 -0.561266,1.683798 0,1.122532 l 7.544964,-7.544964 c 0.561266,-0.561266 2.163587,-1.041055 1.602321,-0.479789 l -9.147285,9.147285 c -0.561266,0.561266 -0.561266,1.683798 0,1.122532 L 97.091833,76.498505 c 0.561266,-0.561266 2.163587,-1.041055 1.602321,-0.479789 L 86.342226,88.370644 c -0.561266,0.561266 -0.561266,1.683798 0,1.122532 L 100.29648,75.538927 c 0.56126,-0.561266 1.14146,-0.01893 0.5802,0.542331 L 86.342227,90.615707 c -0.561266,0.561266 -0.561266,1.683798 0,1.122532 L 100.87668,77.20379 c 0.56126,-0.561266 0.56126,0.561266 0,1.122532 L 86.342227,92.860771 c -0.561266,0.561266 -0.561266,1.683798 0,1.122532 L 100.87668,79.448854 c 0.56126,-0.561266 0.56126,0.561266 0,1.122532 L 87.553482,93.89458 c -0.561266,0.561266 0.713708,0.408824 1.274974,-0.152442 l 12.048224,-12.04822 c 0.56126,-0.561266 0.56126,0.561266 0,1.122532 L 90.103431,93.589695 c -0.561266,0.561266 0.713708,0.408824 1.274974,-0.152442 l 9.498275,-9.498271 c 0.56126,-0.561266 0.56126,0.561266 0,1.122532 l -8.223301,8.223297 c -0.561266,0.561266 0.713708,0.408824 1.274974,-0.152442 l 6.948327,-6.948323 c 0.56126,-0.561266 0.56126,0.561266 0,1.122532 l -5.673353,5.673349 c -0.561266,0.561266 0.713708,0.408824 1.274974,-0.152442 l 4.398379,-4.398374 c 0.56126,-0.561266 0.56126,0.561266 0,1.122532 l -3.123405,3.1234 c -0.561266,0.561266 0.713708,0.408824 1.274974,-0.152442 l 1.848431,-1.848426 c 0.56126,-0.561266 0.56126,0.561266 0,1.122532 l -0.924218,0.924213 c -0.09358,0.09358 1.181388,-0.05886 1.274978,-0.152442 l 0.0702,-0.07019"
           id="path135" />
      </g>
      <g
         id="g143">
        <path
           sodipodi:type="inkscape:box3dside"
           id="path140"
           style="fill:#353564;fill-rule:evenodd;stroke:none;stroke-linejoin:round"
           inkscape:box3dsidetype="6"
           d="m 63.178121,76.62349 v 17.045668 l 22.478574,1.089295 V 79.351479 Z"
           points="63.178121,93.669158 85.656695,94.758453 85.656695,79.351479 63.178121,76.62349 " />
        <path
           style="fill:none;stroke:none;stroke-width:1"
           d="m 63.442704,77.365632 0.197754,-0.197754 c 0.263672,-0.263672 1.264718,-0.142186 1.001045,0.121486 l -0.77785,0.77785 c -0.561266,0.561266 -0.561266,1.683798 0,1.122532 l 1.555701,-1.555701 c 0.561266,-0.561266 1.562311,-0.43978 1.001045,0.121486 l -2.556746,2.556746 c -0.561266,0.561266 -0.561266,1.683798 0,1.122532 l 3.557792,-3.557792 c 0.561266,-0.561266 1.562311,-0.43978 1.001045,0.121486 l -4.558837,4.558837 c -0.561266,0.561266 -0.561266,1.683798 0,1.122532 l 5.559883,-5.559883 c 0.561266,-0.561266 1.562311,-0.43978 1.001045,0.121486 l -6.560928,6.560928 c -0.561266,0.561266 -0.561266,1.683798 0,1.122532 l 7.561974,-7.561974 c 0.561266,-0.561266 1.562311,-0.43978 1.001045,0.121486 l -8.563019,8.563019 c -0.561266,0.561266 -0.561266,1.683798 0,1.122532 l 9.564065,-9.564065 c 0.561266,-0.561266 1.562311,-0.43978 1.001045,0.121486 l -10.56511,10.56511 c -0.561266,0.561266 -0.561266,1.683798 0,1.122532 L 75.429809,78.848905 c 0.561266,-0.561266 1.562311,-0.43978 1.001045,0.121486 L 63.863653,91.537592 c -0.561266,0.561266 -0.561266,1.683798 0,1.122532 L 77.431899,79.091878 c 0.561266,-0.561266 1.562311,-0.43978 1.001045,0.121486 L 64.613823,93.032485 c -0.561266,0.561266 0.509383,0.613149 1.070649,0.05188 L 79.433989,79.334851 c 0.561266,-0.561266 1.562311,-0.43978 1.001045,0.121486 L 66.755121,93.13625 c -0.561266,0.561266 0.509383,0.613149 1.070649,0.05188 L 81.43608,79.57782 c 0.561266,-0.561266 1.562311,-0.43978 1.001045,0.121486 L 68.896419,93.240015 c -0.561266,0.561266 0.509383,0.613149 1.070649,0.05188 l 13.471103,-13.4711 c 0.561266,-0.561266 1.562311,-0.43978 1.001045,0.121486 L 71.037717,93.34378 c -0.561266,0.561266 0.509383,0.613149 1.070649,0.05188 L 84.97116,80.532869 c 0.561266,-0.561266 0.561266,0.561266 0,1.122532 L 73.179015,93.447546 c -0.561266,0.561266 0.509383,0.613149 1.070649,0.05188 L 84.97116,82.777933 c 0.561266,-0.561266 0.561266,0.561266 0,1.122532 l -9.650847,9.650847 c -0.561266,0.561266 0.509383,0.613149 1.070649,0.05188 l 8.580198,-8.580198 c 0.561266,-0.561266 0.561266,0.561266 0,1.122532 l -7.509549,7.509549 c -0.561266,0.561266 0.509383,0.613149 1.070649,0.05188 l 6.4389,-6.4389 c 0.561266,-0.561266 0.561266,0.561266 0,1.122532 l -5.368251,5.368251 c -0.561266,0.561266 0.509383,0.613149 1.070649,0.05188 l 4.297602,-4.297602 c 0.561266,-0.561266 0.561266,0.561266 0,1.122532 l -3.226953,3.226953 c -0.561266,0.561266 0.509383,0.613149 1.070649,0.05188 l 2.156304,-2.156304 c 0.561266,-0.561266 0.561266,0.561266 0,1.122532 l -1.085655,1.085655 c -0.561266,0.561266 0.509383,0.613149 1.070649,0.05188 l 0.435955,-0.435955"
           id="path141" />
      </g>
      <g
         id="g148">
        <path
           sodipodi:type="inkscape:box3dside"
           id="path142"
           style="fill:#4d4d9f;fill-rule:evenodd;stroke:none;stroke-linejoin:round"
           inkscape:box3dsidetype="5"
           d="m 63.178121,76.62349 13.240761,-5.947099 25.143328,3.912437 -15.905515,4.762651 z"
           points="76.418882,70.676391 101.56221,74.588828 85.656695,79.351479 63.178121,76.62349 " />
        <path
           style="fill:none;stroke:none;stroke-width:1"
           d="m 64.433558,76.349655 -0.0712,0.0712 c -0.09493,0.09493 0.906119,0.216412 1.001045,0.121486 l 0.68702,-0.68702 c 0.561266,-0.561266 2.599087,-1.476555 2.037821,-0.915289 l -1.374041,1.374041 c -0.561266,0.561266 0.43978,0.682752 1.001045,0.121486 l 2.410816,-2.410816 c 0.561266,-0.561266 2.599087,-1.476555 2.037821,-0.915289 l -3.447592,3.447592 c -0.561266,0.561266 0.43978,0.682752 1.001045,0.121486 L 74.20171,72.19416 c 0.561266,-0.561266 2.49193,-1.369398 1.930664,-0.808132 l -5.413985,5.413985 c -0.561266,0.561266 0.43978,0.682752 1.001045,0.121486 l 5.38432,-5.38432 c 0.561266,-0.561266 1.532646,-0.410114 0.97138,0.151152 l -5.354654,5.354654 c -0.561266,0.561266 0.43978,0.682752 1.001045,0.121486 l 5.324989,-5.324989 c 0.561266,-0.561266 1.532646,-0.410114 0.97138,0.151152 l -5.295323,5.295323 c -0.561266,0.561266 0.43978,0.682752 1.001045,0.121486 l 5.265658,-5.265658 c 0.561266,-0.561266 1.532646,-0.410114 0.97138,0.151152 l -5.235992,5.235992 c -0.561266,0.561266 0.43978,0.682752 1.001045,0.121486 l 5.206327,-5.206327 c 0.561266,-0.561266 1.532646,-0.410114 0.97138,0.151152 l -5.176661,5.176661 c -0.561266,0.561266 0.43978,0.682752 1.001045,0.121486 l 5.146995,-5.146995 c 0.561266,-0.561266 1.532646,-0.410114 0.97138,0.151152 l -5.11733,5.11733 c -0.561266,0.561266 0.43978,0.682752 1.001045,0.121486 l 5.087664,-5.087664 c 0.561266,-0.561266 1.532646,-0.410114 0.97138,0.151152 l -5.057999,5.057999 c -0.561266,0.561266 0.43978,0.682752 1.001045,0.121486 L 88.760311,73.351 c 0.561266,-0.561266 1.532646,-0.410114 0.97138,0.151152 l -4.998668,4.998668 c -0.561266,0.561266 0.43978,0.682752 1.001045,0.121486 l 4.969002,-4.969002 c 0.561266,-0.561266 1.532646,-0.410114 0.97138,0.151152 l -4.530629,4.530629 c -0.561266,0.561266 1.041055,0.08148 1.602321,-0.479789 l 3.899688,-3.899688 c 0.561266,-0.561266 1.532646,-0.410114 0.97138,0.151152 l -3.268747,3.268747 c -0.561266,0.561266 1.041055,0.08148 1.602321,-0.479789 l 2.637805,-2.637805 c 0.561266,-0.561266 1.532646,-0.410114 0.97138,0.151152 l -2.006864,2.006864 c -0.561266,0.561266 1.041055,0.08148 1.602321,-0.479789 l 1.375923,-1.375923 c 0.561266,-0.561266 1.532646,-0.410114 0.97138,0.151152 l -0.744981,0.744981 c -0.561266,0.561266 1.041055,0.08148 1.602321,-0.479789 L 98.73256,74.60407 c 0.216665,-0.216665 1.188045,-0.06551 0.97138,0.151152 l -0.162499,0.162499"
           id="path146" />
      </g>
      <g
         id="g153">
        <path
           sodipodi:type="inkscape:box3dside"
           id="path148"
           style="fill:#afafde;fill-rule:evenodd;stroke:none;stroke-linejoin:round"
           inkscape:box3dsidetype="13"
           d="M 63.178121,93.669158 76.418882,91.29446 101.56221,92.85671 85.656695,94.758453 Z"
           points="76.418882,91.29446 101.56221,92.85671 85.656695,94.758453 63.178121,93.669158 " />
        <path
           style="fill:none;stroke:none;stroke-width:1"
           d="m 67.292456,93.200067 -0.192461,0.192461 c -0.256615,0.256615 0.814034,0.308497 1.070649,0.05188 l 0.148602,-0.148602 c 0.454751,-0.454751 1.822603,-0.700072 1.367853,-0.245321 l -0.217317,0.217317 c -0.561266,0.561266 0.509383,0.613149 1.070649,0.05188 l 0.434635,-0.434635 c 0.561266,-0.561266 1.929119,-0.806587 1.367853,-0.245321 l -0.731839,0.731839 c -0.561266,0.561266 0.509383,0.613149 1.070649,0.05188 l 1.029043,-1.029043 c 0.561266,-0.561266 1.929119,-0.806587 1.367853,-0.245321 l -1.326246,1.326246 c -0.561266,0.561266 0.509383,0.613149 1.070649,0.05188 l 1.524966,-1.524966 c 0.561266,-0.561266 1.618131,-0.495599 1.056865,0.06567 l -1.511182,1.511182 c -0.561266,0.561266 0.509383,0.613149 1.070649,0.05188 l 1.497397,-1.497397 c 0.561266,-0.561266 1.618131,-0.495599 1.056865,0.06567 l -1.483613,1.483613 c -0.561266,0.561266 0.509383,0.613149 1.070649,0.05188 l 1.469829,-1.469829 c 0.561266,-0.561266 1.618131,-0.495599 1.056865,0.06567 l -1.456045,1.456045 c -0.561266,0.561266 0.509383,0.613149 1.070649,0.05188 l 1.442261,-1.442261 c 0.561266,-0.561266 1.618131,-0.495599 1.056865,0.06567 L 82.317571,93.8904 c -0.561266,0.561266 0.509383,0.613149 1.070649,0.05188 l 1.414693,-1.414693 c 0.561266,-0.561266 1.618131,-0.495599 1.056865,0.06567 l -1.400908,1.400908 c -0.561266,0.561266 0.509383,0.613149 1.070649,0.05188 l 1.387124,-1.387124 c 0.561266,-0.561266 1.618131,-0.495599 1.056865,0.06567 l -1.271833,1.271833 c -0.561266,0.561266 0.713708,0.408824 1.274974,-0.152442 l 1.053724,-1.053724 c 0.561266,-0.561266 1.618131,-0.495599 1.056865,0.06567 l -0.835614,0.835614 c -0.561266,0.561266 0.713708,0.408824 1.274974,-0.152442 l 0.617505,-0.617505 c 0.561266,-0.561266 1.618131,-0.495599 1.056865,0.06567 l -0.399396,0.399396 c -0.561266,0.561266 0.713708,0.408824 1.274974,-0.152442 l 0.199698,-0.199698 c 0.536717,-0.536717 1.593582,-0.47105 1.056865,0.06567 l -0.109055,0.109055 c -0.391311,0.391311 0.883663,0.238869 1.274974,-0.152442 l 0.109055,-0.109055 c 0.245905,-0.245905 1.30277,-0.180238 1.056865,0.06567 l -0.109055,0.109055 c -0.100499,0.100499 1.174475,-0.05194 1.274974,-0.152442 l 0.07537,-0.07537"
           id="path151" />
      </g>
      <g
         id="g159">
        <path
           sodipodi:type="inkscape:box3dside"
           id="path155"
           style="fill:#d7d7ff;fill-rule:evenodd;stroke:none;stroke-linejoin:round"
           inkscape:box3dsidetype="14"
           d="M 76.418882,70.676391 V 91.29446 l 25.143328,1.56225 V 74.588828 Z"
           points="76.418882,91.29446 101.56221,92.85671 101.56221,74.588828 76.418882,70.676391 " />
        <path
           style="fill:none;stroke:none;stroke-width:1"
           d="M 76.683465,71.488005 76.90096,71.27051 c 0.289993,-0.289993 1.261373,-0.138841 0.97138,0.151152 l -0.767925,0.767925 c -0.561266,0.561266 -0.561266,1.683798 0,1.122532 l 1.535851,-1.535851 c 0.561266,-0.561266 1.532646,-0.410114 0.97138,0.151152 l -2.507231,2.507231 c -0.561266,0.561266 -0.561266,1.683798 0,1.122532 l 3.47861,-3.47861 c 0.561266,-0.561266 1.532646,-0.410114 0.97138,0.151152 l -4.44999,4.44999 c -0.561266,0.561266 -0.561266,1.683798 0,1.122532 l 5.42137,-5.42137 c 0.561266,-0.561266 1.532646,-0.410114 0.97138,0.151152 l -6.39275,6.39275 c -0.561266,0.561266 -0.561266,1.683798 0,1.122532 l 7.36413,-7.36413 c 0.561266,-0.561266 1.532646,-0.410114 0.97138,0.151152 l -8.33551,8.33551 c -0.561266,0.561266 -0.561266,1.683798 0,1.122532 l 9.30689,-9.30689 c 0.561266,-0.561266 1.532646,-0.410114 0.97138,0.151152 l -10.27827,10.27827 c -0.561266,0.561266 -0.561266,1.683798 0,1.122532 l 11.24965,-11.24965 c 0.561266,-0.561266 1.532646,-0.410114 0.97138,0.151152 l -12.22103,12.22103 c -0.561266,0.561266 -0.561266,1.683798 0,1.122532 l 13.19241,-13.19241 c 0.561266,-0.561266 1.532646,-0.410114 0.97138,0.151152 l -14.16379,14.16379 c -0.561266,0.561266 -0.561266,1.683798 0,1.122532 l 15.13517,-15.13517 c 0.561266,-0.561266 1.532646,-0.410114 0.97138,0.151152 l -16.10655,16.10655 c -0.561266,0.561266 0.04861,1.073919 0.609879,0.512653 L 94.182345,74.194701 c 0.561266,-0.561266 1.532646,-0.410114 0.97138,0.151152 L 78.771159,90.728419 c -0.561266,0.561266 0.495599,0.626933 1.056865,0.06567 L 96.125105,74.497005 c 0.561266,-0.561266 1.532646,-0.410114 0.97138,0.151152 L 80.884889,90.859753 c -0.561266,0.561266 0.495599,0.626933 1.056865,0.06567 L 98.067865,74.799309 c 0.561266,-0.561266 1.532646,-0.410114 0.97138,0.151152 L 82.998619,90.991087 c -0.561266,0.561266 0.495599,0.626933 1.056865,0.06567 L 100.01062,75.101613 c 0.56127,-0.561266 1.42732,-0.304787 0.86606,0.256479 L 85.112349,91.122421 c -0.561266,0.561266 0.495599,0.626933 1.056865,0.06567 L 100.87668,76.480624 c 0.56126,-0.561266 0.56126,0.561266 0,1.122532 l -13.650602,13.6506 c -0.561266,0.561266 0.495599,0.626933 1.056865,0.06567 L 100.87668,78.725688 c 0.56126,-0.561266 0.56126,0.561266 0,1.122532 L 89.339808,91.38509 c -0.561266,0.561266 0.495599,0.626933 1.056865,0.06567 L 100.87668,80.970752 c 0.56126,-0.561266 0.56126,0.561266 0,1.122532 l -9.423142,9.42314 c -0.561266,0.561266 0.495599,0.626933 1.056865,0.06567 l 8.366277,-8.366275 c 0.56126,-0.561266 0.56126,0.561266 0,1.122532 l -7.309412,7.30941 c -0.561266,0.561266 0.495599,0.626933 1.056865,0.06567 l 6.252547,-6.252545 c 0.56126,-0.561266 0.56126,0.561266 0,1.122532 l -5.195683,5.195681 c -0.561266,0.561266 0.495599,0.626933 1.056865,0.06567 l 4.138818,-4.138816 c 0.56126,-0.561266 0.56126,0.561266 0,1.122532 l -3.081953,3.081951 c -0.561266,0.561266 0.495599,0.626933 1.056865,0.06567 l 2.025088,-2.025086 c 0.56126,-0.561266 0.56126,0.561266 0,1.122532 l -1.012545,1.012543 c -0.50217,0.50217 0.554695,0.567837 1.056865,0.06567 l 0.37663,-0.376628"
           id="path157" />
      </g>
      <g
         id="g164">
        <path
           sodipodi:type="inkscape:box3dside"
           id="path144"
           style="fill:#8686bf;fill-rule:evenodd;stroke:none;stroke-linejoin:round"
           inkscape:box3dsidetype="3"
           d="M 63.178121,76.62349 76.418882,70.676391 V 91.29446 l -13.240761,2.374698 z"
           points="76.418882,70.676391 76.418882,91.29446 63.178121,93.669158 63.178121,76.62349 " />
        <path
           style="fill:none;stroke:none;stroke-width:1"
           d="m 64.949709,76.117826 -1.086055,1.086055 c -0.561266,0.561266 -0.561266,1.683798 0,1.122532 l 2.702927,-2.702927 c 0.561266,-0.561266 2.599087,-1.476555 2.037821,-0.915289 l -4.740747,4.740747 c -0.561266,0.561266 -0.561266,1.683798 0,1.122532 l 6.778568,-6.778568 c 0.561266,-0.561266 2.599087,-1.476555 2.037821,-0.915289 l -8.816389,8.816389 c -0.561266,0.561266 -0.561266,1.683798 0,1.122532 l 10.85421,-10.85421 c 0.561266,-0.561266 1.576751,-0.45422 1.015486,0.107046 L 63.863656,83.939071 c -0.561266,0.561266 -0.561266,1.683798 0,1.122532 L 75.733351,73.191908 c 0.561266,-0.561266 0.561266,0.561266 0,1.122532 L 63.863656,86.184135 c -0.561266,0.561266 -0.561266,1.683798 0,1.122532 L 75.733351,75.436972 c 0.561266,-0.561266 0.561266,0.561266 0,1.122532 L 63.863656,88.429199 c -0.561266,0.561266 -0.561266,1.683798 0,1.122532 L 75.733351,77.682036 c 0.561266,-0.561266 0.561266,0.561266 0,1.122532 L 63.863656,90.674263 c -0.561266,0.561266 -0.561266,1.683798 0,1.122532 L 75.733351,79.9271 c 0.561266,-0.561266 0.561266,0.561266 0,1.122532 L 63.863656,92.919327 c -0.561266,0.561266 0.791204,0.331328 1.35247,-0.229938 L 75.733351,82.172164 c 0.561266,-0.561266 0.561266,0.561266 0,1.122532 l -9.149372,9.149372 c -0.561266,0.561266 0.806587,0.315945 1.367853,-0.245321 l 7.781519,-7.781519 c 0.561266,-0.561266 0.561266,0.561266 0,1.122532 l -6.413666,6.413666 c -0.561266,0.561266 0.806587,0.315945 1.367853,-0.245321 l 5.045813,-5.045813 c 0.561266,-0.561266 0.561266,0.561266 0,1.122532 l -3.67796,3.67796 c -0.561266,0.561266 0.806587,0.315945 1.367853,-0.245321 l 2.310107,-2.310107 c 0.561266,-0.561266 0.561266,0.561266 0,1.122532 l -1.155054,1.155054 c -0.277534,0.277534 1.090319,0.03221 1.367853,-0.245321 l 0.20815,-0.20815"
           id="path162" />
      </g>
    </g>
    <g
       sodipodi:type="inkscape:box3d"
       id="g152"
       style="fill:#000000;fill-opacity:0"
       inkscape:perspectiveID="#perspective136"
       inkscape:corner0="1.907659 : 0.12490315 : 0 : 1"
       inkscape:corner7="1.3504972 : 0.061633107 : 0.25 : 1">
      <g
         id="g170">
        <path
           sodipodi:type="inkscape:box3dside"
           id="path164"
           style="fill:#e9e9ff;fill-rule:evenodd;stroke:none;stroke-linejoin:round"
           inkscape:box3dsidetype="11"
           d="m 70.542764,76.528541 15.113931,-6.100068 v 24.32998 l -15.113931,1.807098 z"
           points="85.656695,70.428473 85.656695,94.758453 70.542764,96.565551 70.542764,76.528541 " />
        <path
           style="fill:none;stroke:none;stroke-width:1"
           d="m 71.798018,76.307234 -0.569721,0.569721 c -0.561266,0.561266 -0.561266,1.683798 0,1.122532 l 2.030969,-2.030969 c 0.561266,-0.561266 2.443463,-1.320931 1.882197,-0.759666 l -3.913167,3.913167 c -0.561266,0.561266 -0.561266,1.683798 0,1.122532 l 5.795364,-5.795364 c 0.561266,-0.561266 2.443463,-1.320931 1.882197,-0.759666 l -7.677562,7.677562 c -0.561266,0.561266 -0.561266,1.683798 0,1.122532 l 9.559759,-9.559759 C 81.34932,72.36859 83.231517,71.608925 82.670251,72.17019 L 71.228295,83.612146 c -0.561266,0.561266 -0.561266,1.683798 0,1.122532 L 84.552449,71.410524 c 0.561266,-0.561266 0.979978,0.142554 0.418712,0.70382 L 71.228296,85.857209 c -0.561266,0.561266 -0.561266,1.683798 0,1.122532 L 84.971161,73.236876 c 0.561266,-0.561266 0.561266,0.561266 0,1.122532 L 71.228296,88.102273 c -0.561266,0.561266 -0.561266,1.683798 0,1.122532 L 84.971161,75.48194 c 0.561266,-0.561266 0.561266,0.561266 0,1.122532 L 71.228296,90.347337 c -0.561266,0.561266 -0.561266,1.683798 0,1.122532 L 84.971161,77.727004 c 0.561266,-0.561266 0.561266,0.561266 0,1.122532 L 71.228296,92.592401 c -0.561266,0.561266 -0.561266,1.683798 0,1.122532 L 84.971161,79.972068 c 0.561266,-0.561266 0.561266,0.561266 0,1.122532 L 71.228296,94.837465 c -0.561266,0.561266 -0.432354,1.554886 0.128912,0.99362 L 84.971162,82.217131 c 0.561266,-0.561266 0.561266,0.561266 0,1.122532 L 72.632183,95.678642 c -0.561266,0.561266 0.713708,0.408824 1.274974,-0.152442 L 84.971162,84.462195 c 0.561266,-0.561266 0.561266,0.561266 0,1.122532 l -9.789031,9.789031 c -0.561266,0.561266 0.713708,0.408824 1.274974,-0.152442 l 8.514057,-8.514057 c 0.561266,-0.561266 0.561266,0.561266 0,1.122532 l -7.239082,7.239082 c -0.561266,0.561266 0.713708,0.408824 1.274974,-0.152442 l 5.964108,-5.964108 c 0.561266,-0.561266 0.561266,0.561266 0,1.122532 l -4.689134,4.689134 c -0.561266,0.561266 0.713708,0.408824 1.274974,-0.152442 l 3.41416,-3.41416 c 0.561266,-0.561266 0.561266,0.561266 0,1.122532 l -2.139185,2.139185 c -0.561266,0.561266 0.713708,0.408824 1.274974,-0.152442 l 1.069593,-1.069593 c 0.287424,-0.287424 0.287424,0.835108 0,1.122532 l -0.215568,0.215568"
           id="path168" />
      </g>
      <g
         id="g175">
        <path
           sodipodi:type="inkscape:box3dside"
           id="path154"
           style="fill:#353564;fill-rule:evenodd;stroke:none;stroke-linejoin:round"
           inkscape:box3dsidetype="6"
           d="m 51.072012,74.08057 v 21.759789 l 19.470752,0.725192 v -20.03701 z"
           points="51.072012,95.840359 70.542764,96.565551 70.542764,76.528541 51.072012,74.08057 " />
        <path
           style="fill:none;stroke:none;stroke-width:1"
           d="m 51.336595,74.88445 0.223833,-0.223833 c 0.298444,-0.298444 1.295607,-0.173075 0.997163,0.125369 l -0.800047,0.800047 c -0.561266,0.561266 -0.561266,1.683798 0,1.122532 l 1.600093,-1.600093 c 0.561266,-0.561266 1.558429,-0.435897 0.997163,0.125369 l -2.597256,2.597256 c -0.561266,0.561266 -0.561266,1.683798 0,1.122532 l 3.594419,-3.594419 c 0.561266,-0.561266 1.558429,-0.435897 0.997163,0.125369 l -4.591582,4.591582 c -0.561266,0.561266 -0.561266,1.683798 0,1.122532 l 5.588745,-5.588745 c 0.561266,-0.561266 1.558429,-0.435897 0.997163,0.125369 l -6.585908,6.585908 c -0.561266,0.561266 -0.561266,1.683798 0,1.122532 l 7.583071,-7.583071 c 0.561266,-0.561266 1.558429,-0.435897 0.997163,0.125369 l -8.580234,8.580234 c -0.561266,0.561266 -0.561266,1.683798 0,1.122532 l 9.577397,-9.577397 c 0.561266,-0.561266 1.558429,-0.435897 0.997163,0.125369 l -10.57456,10.57456 c -0.561266,0.561266 -0.561266,1.683798 0,1.122532 L 63.329267,76.362162 c 0.561266,-0.561266 1.558429,-0.435897 0.997163,0.125369 L 51.757544,89.056417 c -0.561266,0.561266 -0.561266,1.683798 0,1.122532 l 13.56605,-13.56605 c 0.561266,-0.561266 1.558429,-0.435897 0.997163,0.125369 L 51.757544,91.301481 c -0.561266,0.561266 -0.561266,1.683798 0,1.122532 L 67.31792,76.863637 c 0.561266,-0.561266 1.558429,-0.435897 0.997163,0.125369 L 51.757544,93.546545 c -0.561266,0.561266 -0.561266,1.683798 0,1.122532 L 69.312246,77.114375 c 0.561266,-0.561266 1.106251,0.01628 0.544985,0.577547 L 52.362136,95.187017 c -0.561266,0.561266 0.520958,0.601574 1.082224,0.04031 L 69.857231,78.814454 c 0.561266,-0.561266 0.561266,0.561266 0,1.122532 L 54.526584,95.267633 c -0.561266,0.561266 0.520958,0.601574 1.082224,0.04031 L 69.85723,81.059519 c 0.561266,-0.561266 0.561266,0.561266 0,1.122532 L 56.691032,95.348249 c -0.561266,0.561266 0.520958,0.601574 1.082224,0.04031 L 69.85723,83.304583 c 0.561266,-0.561266 0.561266,0.561266 0,1.122532 l -11.00175,11.00175 c -0.561266,0.561266 0.520958,0.601574 1.082224,0.04031 l 9.919526,-9.919526 c 0.561266,-0.561266 0.561266,0.561266 0,1.122532 l -8.837301,8.837301 c -0.561266,0.561266 0.520958,0.601574 1.082224,0.04031 l 7.755077,-7.755077 c 0.561266,-0.561266 0.561266,0.561266 0,1.122532 L 63.184377,95.5901 c -0.561266,0.561266 0.520958,0.601574 1.082224,0.04031 l 5.590629,-5.590629 c 0.561266,-0.561266 0.561266,0.561266 0,1.122532 l -4.508404,4.508404 c -0.561266,0.561266 0.520958,0.601574 1.082224,0.04031 l 3.42618,-3.42618 c 0.561266,-0.561266 0.561266,0.561266 0,1.122532 l -2.343956,2.343956 c -0.561266,0.561266 0.520958,0.601574 1.082224,0.04031 l 1.261732,-1.261732 c 0.561266,-0.561266 0.561266,0.561266 0,1.122532 l -0.600457,0.600457"
           id="path173" />
      </g>
      <g
         id="g180">
        <path
           sodipodi:type="inkscape:box3dside"
           id="path156"
           style="fill:#4d4d9f;fill-rule:evenodd;stroke:none;stroke-linejoin:round"
           inkscape:box3dsidetype="5"
           d="m 51.072012,74.08057 12.106109,-7.32914 22.478574,3.677043 -15.113931,6.100068 z"
           points="63.178121,66.75143 85.656695,70.428473 70.542764,76.528541 51.072012,74.08057 " />
        <path
           style="fill:none;stroke:none;stroke-width:1"
           d="m 54.814647,72.124041 -1.498175,1.498175 c -0.561266,0.561266 0.435897,0.686635 0.997163,0.125369 l 3.345807,-3.345807 m 2.844793,-1.722262 -5.193438,5.193438 c -0.561266,0.561266 0.435897,0.686635 0.997163,0.125369 l 6.542572,-6.542572 c 0.561266,-0.561266 1.525989,-0.403457 0.964723,0.157809 l -6.510131,6.510131 c -0.561266,0.561266 0.435897,0.686635 0.997163,0.125369 l 6.477691,-6.477691 c 0.561266,-0.561266 1.525989,-0.403457 0.964723,0.157809 l -6.44525,6.44525 c -0.561266,0.561266 0.435897,0.686635 0.997163,0.125369 l 6.41281,-6.41281 c 0.561266,-0.561266 1.525989,-0.403457 0.964723,0.157809 l -6.38037,6.38037 c -0.561266,0.561266 0.435897,0.686635 0.997163,0.125369 l 6.347929,-6.347929 c 0.561266,-0.561266 1.525989,-0.403457 0.964723,0.157809 l -6.315489,6.315489 c -0.561266,0.561266 0.435897,0.686635 0.997163,0.125369 l 6.283049,-6.283049 c 0.561266,-0.561266 1.525989,-0.403457 0.964723,0.157809 l -6.250608,6.250608 c -0.561266,0.561266 0.435897,0.686635 0.997163,0.125369 l 6.218168,-6.218168 c 0.561266,-0.561266 1.525989,-0.403457 0.964723,0.157809 l -6.185727,6.185727 c -0.561266,0.561266 0.435897,0.686635 0.997163,0.125369 l 6.153287,-6.153287 c 0.561266,-0.561266 1.525989,-0.403457 0.964723,0.157809 l -6.120847,6.120847 c -0.561266,0.561266 0.435897,0.686635 0.997163,0.125369 l 6.088406,-6.088406 c 0.561266,-0.561266 1.525989,-0.403457 0.964723,0.157809 l -5.75692,5.75692 c -0.561266,0.561266 1.320931,-0.1984 1.882197,-0.759666 l 4.839445,-4.839445 c 0.561266,-0.561266 1.525989,-0.403457 0.964723,0.157809 l -3.92197,3.92197 c -0.561266,0.561266 1.320931,-0.1984 1.882197,-0.759666 l 3.004496,-3.004496 c 0.561266,-0.561266 1.525989,-0.403457 0.964723,0.157809 l -2.087021,2.087021 c -0.561266,0.561266 1.320931,-0.1984 1.882197,-0.759666 l 1.169546,-1.169546 c 0.561266,-0.561266 1.525989,-0.403457 0.964723,0.157809 l -0.584773,0.584773 c -0.117664,0.117664 1.764534,-0.642002 1.882197,-0.759666 l 0.08825,-0.08825"
           id="path178" />
      </g>
      <g
         id="g186">
        <path
           sodipodi:type="inkscape:box3dside"
           id="path182"
           style="fill:#afafde;fill-rule:evenodd;stroke:none;stroke-linejoin:round"
           inkscape:box3dsidetype="13"
           d="m 51.072012,95.840359 12.106109,-2.171201 22.478574,1.089295 -15.113931,1.807098 z"
           points="63.178121,93.669158 85.656695,94.758453 70.542764,96.565551 51.072012,95.840359 " />
        <path
           style="fill:none;stroke:none;stroke-width:1"
           d="m 54.709577,95.456775 -0.122584,0.122584 c -0.163445,0.163445 0.918779,0.203753 1.082224,0.04031 l 0.142814,-0.142814 c 0.353864,-0.353864 1.721717,-0.599185 1.367853,-0.245321 l -0.142814,0.142814 c -0.544283,0.544283 0.537941,0.584591 1.082224,0.04031 l 0.272892,-0.272892 c 0.561266,-0.561266 1.929119,-0.806587 1.367853,-0.245321 l -0.545783,0.545783 c -0.561266,0.561266 0.520958,0.601574 1.082224,0.04031 l 0.831412,-0.831412 c 0.561266,-0.561266 2.018573,-0.896041 1.457307,-0.334775 l -1.206495,1.206495 c -0.561266,0.561266 0.520958,0.601574 1.082224,0.04031 l 1.165998,-1.165998 c 0.561266,-0.561266 1.631915,-0.509383 1.070649,0.05188 l -1.154423,1.154423 c -0.561266,0.561266 0.520958,0.601574 1.082224,0.04031 l 1.142848,-1.142848 c 0.561266,-0.561266 1.631915,-0.509383 1.070649,0.05188 l -1.131272,1.131272 c -0.561266,0.561266 0.520958,0.601574 1.082224,0.04031 l 1.119697,-1.119697 c 0.561266,-0.561266 1.631915,-0.509383 1.070649,0.05188 l -1.108122,1.108122 c -0.561266,0.561266 0.520958,0.601574 1.082224,0.04031 l 1.096547,-1.096547 c 0.561266,-0.561266 1.631915,-0.509383 1.070649,0.05188 l -1.084972,1.084972 c -0.561266,0.561266 0.520958,0.601574 1.082224,0.04031 l 1.073396,-1.073396 c 0.561266,-0.561266 1.631915,-0.509383 1.070649,0.05188 l -0.839531,0.839531 c -0.561266,0.561266 0.713708,0.408824 1.274974,-0.152442 l 0.635206,-0.635206 c 0.561266,-0.561266 1.631915,-0.509383 1.070649,0.05188 l -0.430881,0.430881 c -0.561266,0.561266 0.713708,0.408824 1.274974,-0.152442 l 0.226555,-0.226555 c 0.561266,-0.561266 1.631915,-0.509383 1.070649,0.05188 l -0.113278,0.113278 c -0.439869,0.439869 0.835105,0.287427 1.274974,-0.152442 l 0.102163,-0.102163 c 0.303652,-0.303652 1.374301,-0.25177 1.070649,0.05188 l -0.102163,0.102163 c -0.167436,0.167436 1.107539,0.01499 1.274974,-0.152442 l 0.125577,-0.125577"
           id="path184" />
      </g>
      <g
         id="g191">
        <path
           sodipodi:type="inkscape:box3dside"
           id="path160"
           style="fill:#d7d7ff;fill-rule:evenodd;stroke:none;stroke-linejoin:round"
           inkscape:box3dsidetype="14"
           d="m 63.178121,66.75143 v 26.917728 l 22.478574,1.089295 v -24.32998 z"
           points="63.178121,93.669158 85.656695,94.758453 85.656695,70.428473 63.178121,66.75143 " />
        <path
           style="fill:none;stroke:none;stroke-width:1"
           d="m 63.442704,67.458481 0.170023,-0.170023 c 0.226697,-0.226697 1.19142,-0.06889 0.964723,0.157809 l -0.713796,0.713796 c -0.561266,0.561266 -0.561266,1.683798 0,1.122532 l 1.427592,-1.427592 c 0.561266,-0.561266 1.525989,-0.403457 0.964723,0.157809 l -2.392315,2.392315 c -0.561266,0.561266 -0.561266,1.683798 0,1.122532 l 3.357037,-3.357037 c 0.561266,-0.561266 1.525989,-0.403457 0.964723,0.157809 l -4.32176,4.32176 c -0.561266,0.561266 -0.561266,1.683798 0,1.122532 l 5.286483,-5.286483 c 0.561266,-0.561266 1.525989,-0.403457 0.964723,0.157809 l -6.251205,6.251205 c -0.561266,0.561266 -0.561266,1.683798 0,1.122532 l 7.215928,-7.215928 c 0.561266,-0.561266 1.525989,-0.403457 0.964723,0.157809 l -8.180651,8.180651 c -0.561266,0.561266 -0.561266,1.683798 0,1.122532 l 9.145373,-9.145373 c 0.561266,-0.561266 1.525989,-0.403457 0.964723,0.157809 L 63.863655,79.385382 c -0.561266,0.561266 -0.561266,1.683798 0,1.122532 L 74.938474,69.433095 c 0.561266,-0.561266 1.525989,-0.403457 0.964723,0.157809 L 63.863656,81.630445 c -0.561266,0.561266 -0.561266,1.683798 0,1.122532 L 76.86792,69.748713 c 0.561266,-0.561266 1.525989,-0.403457 0.964723,0.157809 L 63.863656,83.875509 c -0.561266,0.561266 -0.561266,1.683798 0,1.122532 L 78.797365,70.064332 c 0.561266,-0.561266 1.525989,-0.403457 0.964723,0.157809 L 63.863656,86.120573 c -0.561266,0.561266 -0.561266,1.683798 0,1.122532 L 80.72681,70.379951 c 0.561266,-0.561266 1.525989,-0.403457 0.964723,0.157809 L 63.863656,88.365637 c -0.561266,0.561266 -0.561266,1.683798 0,1.122532 l 18.7926,-18.7926 c 0.561266,-0.561266 1.525989,-0.403457 0.964723,0.157809 L 63.863657,90.6107 c -0.561266,0.561266 -0.561266,1.683798 0,1.122532 L 84.585702,71.011187 c 0.561266,-0.561266 0.946729,0.175802 0.385463,0.737068 L 63.863657,92.855763 c -0.561266,0.561266 0.375499,0.747033 0.936765,0.185767 L 84.971165,72.870787 c 0.561266,-0.561266 0.561266,0.561266 0,1.122532 L 65.871071,93.093413 c -0.561266,0.561266 0.509383,0.613149 1.070649,0.05188 L 84.971165,75.115851 c 0.561266,-0.561266 0.561266,0.561266 0,1.122532 L 68.012369,93.197179 c -0.561266,0.561266 0.509383,0.613149 1.070649,0.05188 L 84.971165,77.360915 c 0.561266,-0.561266 0.561266,0.561266 0,1.122532 L 70.153667,93.300945 c -0.561266,0.561266 0.509383,0.613149 1.070649,0.05188 L 84.971165,79.605979 c 0.561266,-0.561266 0.561266,0.561266 0,1.122532 l -12.6762,12.6762 c -0.561266,0.561266 0.509383,0.613149 1.070649,0.05188 L 84.971165,81.851043 c 0.561266,-0.561266 0.561266,0.561266 0,1.122532 L 74.436263,93.508477 c -0.561266,0.561266 0.509383,0.613149 1.070649,0.05188 l 9.464253,-9.464253 c 0.561266,-0.561266 0.561266,0.561266 0,1.122532 l -8.393604,8.393604 c -0.561266,0.561266 0.509383,0.613149 1.070649,0.05188 l 7.322955,-7.322955 c 0.561266,-0.561266 0.561266,0.561266 0,1.122532 l -6.252306,6.252306 c -0.561266,0.561266 0.509383,0.613149 1.070649,0.05188 l 5.181657,-5.181657 c 0.561266,-0.561266 0.561266,0.561266 0,1.122532 l -4.111008,4.111008 c -0.561266,0.561266 0.509383,0.613149 1.070649,0.05188 l 3.040359,-3.040359 c 0.561266,-0.561266 0.561266,0.561266 0,1.122532 l -1.96971,1.96971 c -0.561266,0.561266 0.509383,0.613149 1.070649,0.05188 l 0.984855,-0.984855 c 0.446874,-0.446874 0.446874,0.675658 0,1.122532 l -0.335155,0.335155"
           id="path189" />
      </g>
      <g
         id="g196">
        <path
           sodipodi:type="inkscape:box3dside"
           id="path158"
           style="fill:#8686bf;fill-rule:evenodd;stroke:none;stroke-linejoin:round"
           inkscape:box3dsidetype="3"
           d="M 51.072012,74.08057 63.178121,66.75143 V 93.669158 L 51.072012,95.840359 Z"
           points="63.178121,66.75143 63.178121,93.669158 51.072012,95.840359 51.072012,74.08057 " />
        <path
           style="fill:none;stroke:none;stroke-width:1"
           d="m 53.055565,73.189003 -1.29802,1.29802 c -0.561266,0.561266 -0.561266,1.683798 0,1.122532 L 55.90036,71.46674 m 2.844793,-1.722261 -6.987609,6.987609 c -0.561266,0.561266 -0.561266,1.683798 0,1.122532 l 9.411453,-9.411453 c 0.561266,-0.561266 1.884856,-0.762324 1.32359,-0.201058 L 51.757544,78.977152 c -0.561266,0.561266 -0.561266,1.683798 0,1.122532 L 62.492587,69.364641 c 0.561266,-0.561266 0.561266,0.561266 0,1.122532 L 51.757544,81.222216 c -0.561266,0.561266 -0.561266,1.683798 0,1.122532 L 62.492587,71.609705 c 0.561266,-0.561266 0.561266,0.561266 0,1.122532 L 51.757544,83.46728 c -0.561266,0.561266 -0.561266,1.683798 0,1.122532 L 62.492587,73.854769 c 0.561266,-0.561266 0.561266,0.561266 0,1.122532 L 51.757544,85.712344 c -0.561266,0.561266 -0.561266,1.683798 0,1.122532 L 62.492587,76.099833 c 0.561266,-0.561266 0.561266,0.561266 0,1.122532 L 51.757544,87.957408 c -0.561266,0.561266 -0.561266,1.683798 0,1.122532 L 62.492587,78.344897 c 0.561266,-0.561266 0.561266,0.561266 0,1.122532 L 51.757544,90.202472 c -0.561266,0.561266 -0.561266,1.683798 0,1.122532 L 62.492587,80.589961 c 0.561266,-0.561266 0.561266,0.561266 0,1.122532 L 51.757544,92.447536 c -0.561266,0.561266 -0.561266,1.683798 0,1.122532 L 62.492587,82.835025 c 0.561266,-0.561266 0.561266,0.561266 0,1.122532 L 51.757544,94.6926 c -0.561266,0.561266 0.306309,0.816223 0.867575,0.254957 l 9.867469,-9.867469 c 0.561266,-0.561266 0.561266,0.561266 0,1.122532 l -8.499616,8.499616 c -0.561266,0.561266 0.806587,0.315945 1.367853,-0.245321 l 7.131763,-7.131763 c 0.561266,-0.561266 0.561266,0.561266 0,1.122532 l -5.76391,5.76391 c -0.561266,0.561266 0.806587,0.315945 1.367853,-0.245321 l 4.396057,-4.396057 c 0.561266,-0.561266 0.561266,0.561266 0,1.122532 l -3.028204,3.028204 c -0.561266,0.561266 0.806587,0.315945 1.367853,-0.245321 l 1.660351,-1.660351 c 0.561266,-0.561266 0.561266,0.561266 0,1.122532 l -0.713447,0.713447"
           id="path194" />
      </g>
    </g>
    <g
       sodipodi:type="inkscape:box3d"
       id="g166"
       style="fill:#000000;fill-opacity:0"
       inkscape:perspectiveID="#perspective136"
       inkscape:corner0="0.92598423 : 0.025292457 : 0 : 1"
       inkscape:corner7="0.43482895 : -0.011778383 : 0.25 : 1">
      <g
         id="g203">
        <path
           sodipodi:type="inkscape:box3dside"
           id="path199"
           style="fill:#e9e9ff;fill-rule:evenodd;stroke:none;stroke-linejoin:round"
           inkscape:box3dsidetype="11"
           d="m 102.36747,109.46122 29.84179,1.30052 v 22.00273 l -29.84179,-6.2669 z"
           points="132.20926,110.76174 132.20926,132.76447 102.36747,126.49757 102.36747,109.46122 " />
        <path
           style="fill:none;stroke:none;stroke-width:1"
           d="m 102.63205,110.11881 0.18266,-0.18265 c 0.24353,-0.24354 1.31919,-0.19666 1.07565,0.0469 l -0.83736,0.83736 c -0.56126,0.56126 -0.56126,1.68379 0,1.12253 l 1.67472,-1.67472 c 0.56126,-0.56126 1.63692,-0.51439 1.07565,0.0469 l -2.75037,2.75037 c -0.56126,0.56127 -0.56126,1.6838 0,1.12253 l 3.82603,-3.82602 c 0.56126,-0.56127 1.63692,-0.51439 1.07565,0.0469 l -4.90168,4.90168 c -0.56126,0.56127 -0.56126,1.6838 0,1.12254 l 5.97734,-5.97734 c 0.56126,-0.56126 1.63692,-0.51439 1.07565,0.0469 l -7.05299,7.05299 c -0.56126,0.56126 -0.56126,1.6838 0,1.12253 l 8.12864,-8.12864 c 0.56127,-0.56127 1.63692,-0.51439 1.07566,0.0469 l -9.2043,9.20429 c -0.56126,0.56127 -0.56126,1.6838 0,1.12253 l 10.27995,-10.27995 c 0.56127,-0.56126 1.63692,-0.51438 1.07566,0.0469 L 103.053,122.04572 c -0.56126,0.56126 -0.56126,1.68379 0,1.12253 l 12.43126,-12.43126 c 0.56127,-0.56127 1.63692,-0.51439 1.07565,0.0469 L 103.053,124.29078 c -0.56127,0.56127 -0.56127,1.6838 0,1.12253 l 14.58257,-14.58256 c 0.56126,-0.56127 1.63692,-0.51439 1.07565,0.0469 l -15.10119,15.10119 c -0.56126,0.56127 0.36645,0.75609 0.92771,0.19483 l 15.24914,-15.24914 c 0.56126,-0.56127 1.63692,-0.51439 1.07565,0.0469 l -15.39708,15.39708 c -0.56127,0.56127 0.36644,0.75609 0.92771,0.19482 l 15.54503,-15.54502 c 0.56126,-0.56127 1.63692,-0.51439 1.07565,0.0469 l -15.69297,15.69298 c -0.56127,0.56126 0.36644,0.75608 0.92771,0.19482 l 15.84091,-15.84092 c 0.56127,-0.56126 1.63692,-0.51439 1.07566,0.0469 l -15.98886,15.98886 c -0.56127,0.56127 0.36644,0.75609 0.9277,0.19482 l 16.13681,-16.1368 c 0.56127,-0.56127 1.63692,-0.51439 1.07566,0.0469 L 111.0317,127.5374 c -0.56126,0.56126 0.36645,0.75609 0.92771,0.19482 l 16.4327,-16.4327 c 0.56127,-0.56126 1.63692,-0.51438 1.07565,0.0469 l -16.58064,16.58064 c -0.56127,0.56127 0.36644,0.75609 0.92771,0.19483 l 16.72859,-16.72859 c 0.56126,-0.56127 1.54157,-0.41904 0.9803,0.14223 l -16.78118,16.78118 c -0.56127,0.56127 0.36644,0.75609 0.92771,0.19482 l 15.85347,-15.85347 c 0.56127,-0.56127 0.56127,0.56126 0,1.12253 l -14.92576,14.92577 c -0.56127,0.56126 0.36644,0.75608 0.92771,0.19482 l 13.99805,-13.99806 c 0.56127,-0.56126 0.56127,0.56127 0,1.12253 L 118.45337,129.096 c -0.56126,0.56127 0.36645,0.75609 0.92771,0.19482 l 12.14264,-12.14263 c 0.56127,-0.56127 0.56127,0.56126 0,1.12253 l -11.21493,11.21493 c -0.56126,0.56126 0.36645,0.75609 0.92771,0.19482 l 10.28722,-10.28722 c 0.56127,-0.56126 0.56127,0.56127 0,1.12253 l -9.35951,9.35951 c -0.56127,0.56127 0.36644,0.75609 0.92771,0.19483 l 8.4318,-8.4318 c 0.56127,-0.56127 0.56127,0.56126 0,1.12253 l -7.50409,7.50409 c -0.56127,0.56127 0.36644,0.75609 0.92771,0.19482 l 6.57638,-6.57638 c 0.56127,-0.56127 0.56127,0.56127 0,1.12253 l -5.64867,5.64868 c -0.56127,0.56126 0.36644,0.75608 0.92771,0.19482 l 4.72096,-4.72097 c 0.56127,-0.56126 0.56127,0.56127 0,1.12254 l -3.79326,3.79325 c -0.56126,0.56127 0.36645,0.75609 0.92771,0.19482 l 2.86555,-2.86554 c 0.56127,-0.56127 0.56127,0.56126 0,1.12253 l -1.93784,1.93784 c -0.56126,0.56126 0.36645,0.75609 0.92771,0.19482 l 1.01013,-1.01013 c 0.56127,-0.56126 0.56127,0.56127 0,1.12253 l -0.50337,0.50337"
           id="path201" />
      </g>
      <g
         id="g209">
        <path
           sodipodi:type="inkscape:box3dside"
           id="path205"
           style="fill:#353564;fill-rule:evenodd;stroke:none;stroke-linejoin:round"
           inkscape:box3dsidetype="6"
           d="m 77.103433,110.0403 v 19.24774 l 25.264037,-2.79047 v -17.03635 z"
           points="77.103433,129.28804 102.36747,126.49757 102.36747,109.46122 77.103433,110.0403 " />
        <path
           style="fill:none;stroke:none;stroke-width:1"
           d="m 78.370488,110.27591 -0.581522,0.58152 c -0.561266,0.56127 -0.561266,1.6838 0,1.12253 l 1.309438,-1.30943 c 0.561266,-0.56127 1.710131,-0.5876 1.148865,-0.0263 l -2.458303,2.45831 c -0.561266,0.56126 -0.561266,1.68379 0,1.12253 l 3.607168,-3.60717 c 0.561266,-0.56127 1.710131,-0.5876 1.148865,-0.0263 l -4.756033,4.75603 c -0.561266,0.56127 -0.561266,1.6838 0,1.12253 l 5.904899,-5.9049 c 0.561266,-0.56126 1.710131,-0.5876 1.148865,-0.0263 l -7.053764,7.05376 c -0.561266,0.56127 -0.561266,1.6838 0,1.12254 l 8.202629,-8.20263 c 0.561266,-0.56127 1.710131,-0.5876 1.148865,-0.0263 l -9.351494,9.3515 c -0.561266,0.56126 -0.561266,1.6838 0,1.12253 L 88.289325,110.46 c 0.561266,-0.56126 1.710131,-0.5876 1.148865,-0.0263 l -11.649224,11.64922 c -0.561266,0.56127 -0.561266,1.6838 0,1.12253 l 12.79809,-12.79809 c 0.561266,-0.56126 1.710131,-0.58759 1.148865,-0.0263 l -13.946955,13.94696 c -0.561266,0.56126 -0.561266,1.68379 0,1.12253 l 15.09582,-15.09582 c 0.561266,-0.56127 1.710131,-0.5876 1.148865,-0.0263 l -16.244685,16.24468 c -0.561266,0.56127 -0.561266,1.6838 0,1.12253 l 17.39355,-17.39355 c 0.561266,-0.56126 1.710131,-0.5876 1.148865,-0.0263 L 78.065813,128.5411 c -0.561266,0.56126 0.700647,0.42188 1.261913,-0.13938 L 97.480247,110.2492 c 0.561266,-0.56127 1.710131,-0.5876 1.148865,-0.0263 l -18.039473,18.03948 c -0.561266,0.56126 0.700647,0.42188 1.261913,-0.13939 l 17.926425,-17.92642 c 0.561263,-0.56127 1.710133,-0.5876 1.148863,-0.0263 l -17.813375,17.81337 c -0.561266,0.56127 0.700647,0.42189 1.261913,-0.13938 L 101.68194,110.5377 c 0.56126,-0.56126 0.56126,0.56127 0,1.12254 l -16.044649,16.04464 c -0.561266,0.56127 0.700647,0.42189 1.261913,-0.13938 l 14.782736,-14.7828 c 0.56126,-0.56127 0.56126,0.56126 0,1.12253 l -13.520823,13.52082 c -0.561266,0.56127 0.700647,0.42188 1.261913,-0.13938 l 12.25891,-12.25891 c 0.56126,-0.56126 0.56126,0.56127 0,1.12253 l -10.996997,10.997 c -0.561266,0.56126 0.700647,0.42188 1.261913,-0.13938 l 9.735084,-9.73508 c 0.56126,-0.56127 0.56126,0.56126 0,1.12253 l -8.473171,8.47317 c -0.561266,0.56126 0.700647,0.42188 1.261913,-0.13939 l 7.211258,-7.21125 c 0.56126,-0.56127 0.56126,0.56127 0,1.12253 l -5.949345,5.94934 c -0.561266,0.56127 0.700647,0.42189 1.261913,-0.13938 l 4.687432,-4.68743 c 0.56126,-0.56126 0.56126,0.56127 0,1.12254 l -3.425519,3.42551 c -0.561266,0.56127 0.700647,0.42189 1.261913,-0.13938 l 2.163606,-2.1636 c 0.56126,-0.56127 0.56126,0.56126 0,1.12253 l -1.0818,1.0818 c -0.32112,0.32112 0.94079,0.18174 1.26191,-0.13938 l 0.24084,-0.24084"
           id="path207" />
      </g>
      <g
         id="g214">
        <path
           sodipodi:type="inkscape:box3dside"
           id="path176"
           style="fill:#afafde;fill-rule:evenodd;stroke:none;stroke-linejoin:round"
           inkscape:box3dsidetype="13"
           d="m 77.103433,129.28804 26.393217,8.31402 28.71261,-4.83759 -29.84179,-6.2669 z"
           points="103.49665,137.60206 132.20926,132.76447 102.36747,126.49757 77.103433,129.28804 " />
        <path
           style="fill:none;stroke:none;stroke-width:1"
           d="m 78.817609,129.3649 -0.07062,0.0706 c -0.09415,0.0942 0.75948,0.36306 0.853633,0.2689 l 0.20414,-0.20414 c 0.36634,-0.36634 1.628253,-0.50572 1.261913,-0.13938 l -0.262086,0.26209 c -0.561266,0.56126 0.292367,0.83016 0.853633,0.2689 l 0.524172,-0.52418 c 0.561266,-0.56126 1.823179,-0.70064 1.261913,-0.13938 l -0.932453,0.93246 c -0.561266,0.56126 0.292367,0.83016 0.853633,0.2689 l 1.340733,-1.34074 c 0.561266,-0.56126 1.823179,-0.70064 1.261913,-0.13938 l -1.749013,1.74901 c -0.561266,0.56127 0.292367,0.83017 0.853633,0.2689 l 2.157294,-2.15729 c 0.561266,-0.56127 1.823179,-0.70065 1.261913,-0.13938 l -2.565574,2.56557 c -0.561266,0.56127 0.292367,0.83017 0.853633,0.2689 l 2.973855,-2.97385 c 0.561266,-0.56127 1.823179,-0.70065 1.261913,-0.13938 l -3.382135,3.38213 c -0.561266,0.56127 0.292367,0.83017 0.853633,0.2689 l 3.790416,-3.79042 c 0.561266,-0.56126 1.823179,-0.70064 1.261913,-0.13938 l -4.198696,4.1987 c -0.561266,0.56126 0.292367,0.83016 0.853633,0.2689 l 4.606977,-4.60698 c 0.561266,-0.56127 1.823179,-0.70065 1.261913,-0.13938 l -5.015257,5.01526 c -0.561266,0.56126 0.292367,0.83016 0.853633,0.2689 l 5.423538,-5.42354 c 0.561266,-0.56127 1.823179,-0.70065 1.261913,-0.13938 l -5.831818,5.83181 c -0.561266,0.56127 0.292367,0.83017 0.853633,0.2689 l 6.240099,-6.2401 c 0.561268,-0.56126 1.823188,-0.70064 1.261918,-0.13938 l -6.648384,6.64838 c -0.561266,0.56127 0.292367,0.83017 0.853633,0.2689 l 6.940271,-6.94027 c 0.56127,-0.56126 1.48898,-0.36644 0.92771,0.19483 l -7.014349,7.01434 c -0.561266,0.56127 0.292367,0.83017 0.853633,0.2689 l 7.088426,-7.08842 c 0.56127,-0.56127 1.48898,-0.36645 0.92771,0.19482 l -7.162503,7.1625 c -0.561266,0.56127 0.292367,0.83016 0.853633,0.2689 l 7.23658,-7.23658 c 0.56127,-0.56126 1.48898,-0.36644 0.92771,0.19483 l -7.310657,7.31065 c -0.561266,0.56126 0.292367,0.83016 0.853637,0.2689 l 7.38473,-7.38473 c 0.56127,-0.56127 1.48898,-0.36645 0.92771,0.19482 l -7.45881,7.45881 c -0.56126,0.56126 0.29237,0.83016 0.85364,0.26889 l 7.53288,-7.53288 c 0.56127,-0.56126 1.48897,-0.36644 0.92771,0.19483 l -7.60696,7.60695 c -0.56127,0.56127 0.29237,0.83017 0.85363,0.2689 l 7.68104,-7.68103 c 0.56126,-0.56127 1.48897,-0.36645 0.92771,0.19482 l -7.30745,7.30744 c -0.56126,0.56127 0.78872,0.33382 1.34998,-0.22744 l 6.88518,-6.88518 c 0.56126,-0.56126 1.48897,-0.36644 0.9277,0.19483 l -6.4629,6.4629 c -0.56126,0.56126 0.78872,0.33381 1.34998,-0.22745 l 6.04063,-6.04063 c 0.56127,-0.56127 1.48898,-0.36644 0.92771,0.19482 l -5.61835,5.61836 c -0.56127,0.56127 0.78871,0.33382 1.34998,-0.22745 l 5.19608,-5.19608 c 0.56127,-0.56127 1.48898,-0.36645 0.92771,0.19482 l -4.77381,4.77381 c -0.56127,0.56127 0.78871,0.33382 1.34998,-0.22745 l 4.35154,-4.35154 c 0.56127,-0.56126 1.48897,-0.36644 0.92771,0.19482 l -3.92927,3.92927 c -0.56127,0.56127 0.78871,0.33382 1.34998,-0.22744 l 3.507,-3.507 c 0.56126,-0.56127 1.48897,-0.36645 0.92771,0.19482 l -3.08473,3.08473 c -0.56127,0.56126 0.78871,0.33381 1.34998,-0.22745 l 2.66246,-2.66246 c 0.56126,-0.56126 1.48897,-0.36644 0.9277,0.19483 l -2.24018,2.24018 c -0.56126,0.56127 0.78872,0.33382 1.34998,-0.22745 l 1.81791,-1.81791 c 0.56127,-0.56127 1.48898,-0.36644 0.92771,0.19482 l -1.39564,1.39564 c -0.56126,0.56127 0.78872,0.33382 1.34998,-0.22745 l 0.97337,-0.97336 c 0.56127,-0.56127 1.48898,-0.36645 0.92771,0.19482 l -0.5511,0.55109 c -0.56126,0.56127 0.78872,0.33382 1.34999,-0.22744 l 0.27554,-0.27555 c 0.36564,-0.36564 1.29335,-0.17081 0.92771,0.19482 l -0.27422,0.27423"
           id="path212" />
      </g>
      <g
         id="g219">
        <path
           sodipodi:type="inkscape:box3dside"
           id="path170"
           style="fill:#4d4d9f;fill-rule:evenodd;stroke:none;stroke-linejoin:round"
           inkscape:box3dsidetype="5"
           d="m 77.103433,110.0403 26.393217,1.72534 28.71261,-1.0039 -29.84179,-1.30052 z"
           points="103.49665,111.76564 132.20926,110.76174 102.36747,109.46122 77.103433,110.0403 " />
        <path
           style="fill:none;stroke:none;stroke-width:1"
           d="m 85.234479,110.11858 -0.08828,0.0883 c -0.117707,0.11771 0.935946,0.18659 1.053654,0.0689 l 0.04761,-0.0476 c 0.181182,-0.18118 1.330047,-0.20751 1.148865,-0.0263 l -0.04761,0.0476 c -0.244656,0.24465 0.808998,0.31353 1.053654,0.0689 l 0.04761,-0.0476 c 0.30813,-0.30813 1.456995,-0.33447 1.148865,-0.0263 l -0.04761,0.0476 c -0.371604,0.37161 0.68205,0.44048 1.053654,0.0689 l 0.04761,-0.0476 c 0.435078,-0.43508 1.583943,-0.46141 1.148865,-0.0263 l -0.04761,0.0476 c -0.498552,0.49855 0.555102,0.56743 1.053654,0.0689 l 0.04818,-0.0482 c 0.561266,-0.56127 1.710131,-0.5876 1.148865,-0.0263 l -0.09635,0.0964 c -0.561266,0.56126 0.492388,0.63014 1.053654,0.0689 l 0.191563,-0.19157 c 0.561266,-0.56126 1.710131,-0.5876 1.148865,-0.0263 l -0.286775,0.28677 c -0.561266,0.56127 0.492388,0.63015 1.053654,0.0689 l 0.381986,-0.38198 c 0.561266,-0.56127 1.710131,-0.5876 1.148865,-0.0263 l -0.477197,0.4772 c -0.561266,0.56127 0.492388,0.63014 1.053654,0.0689 l 0.572408,-0.57241 c 0.561268,-0.56127 1.710138,-0.5876 1.148868,-0.0263 l -0.66762,0.66762 c -0.561269,0.56126 0.49239,0.63014 1.05365,0.0689 l 0.75629,-0.75629 c 0.56126,-0.56127 1.63692,-0.51439 1.07565,0.0469 l -0.77828,0.77828 c -0.56127,0.56127 0.49238,0.63015 1.05365,0.0689 l 0.80029,-0.80028 c 0.56126,-0.56127 1.63692,-0.51439 1.07565,0.0469 l -0.76791,0.76791 c -0.56126,0.56127 0.60194,0.5206 1.1632,-0.0407 l 0.68037,-0.68036 c 0.56126,-0.56126 1.63692,-0.51439 1.07565,0.0469 l -0.59281,0.59281 c -0.56127,0.56127 0.60193,0.5206 1.1632,-0.0407 l 0.50526,-0.50526 c 0.56127,-0.56127 1.63692,-0.51439 1.07566,0.0469 l -0.41772,0.41771 c -0.56127,0.56127 0.60193,0.5206 1.1632,-0.0407 l 0.33017,-0.33017 c 0.56127,-0.56126 1.63692,-0.51438 1.07566,0.0469 l -0.24263,0.24263 c -0.56126,0.56126 0.60194,0.52059 1.1632,-0.0407 l 0.15508,-0.15508 c 0.56127,-0.56127 1.63692,-0.51439 1.07565,0.0469 l -0.0775,0.0775 c -0.54792,0.54792 0.61528,0.50725 1.1632,-0.0407 l 0.0438,-0.0438 c 0.48956,-0.48955 1.56521,-0.44268 1.07566,0.0469 l -0.0438,0.0438 c -0.43119,0.43119 0.73201,0.39052 1.1632,-0.0407 l 0.0438,-0.0438 c 0.37282,-0.37283 1.44848,-0.32595 1.07565,0.0469 l -0.0438,0.0438 c -0.31446,0.31446 0.84874,0.27379 1.1632,-0.0407 l 0.0438,-0.0438 c 0.2561,-0.2561 1.33175,-0.20922 1.07566,0.0469 l -0.0438,0.0438 c -0.19773,0.19773 0.96547,0.15706 1.16321,-0.0407 l 0.0438,-0.0438 c 0.13937,-0.13937 1.21502,-0.0925 1.07565,0.0469 l -0.10452,0.10453"
           id="path217" />
      </g>
      <g
         id="g224">
        <path
           sodipodi:type="inkscape:box3dside"
           id="path174"
           style="fill:#d7d7ff;fill-rule:evenodd;stroke:none;stroke-linejoin:round"
           inkscape:box3dsidetype="14"
           d="m 103.49665,111.76564 v 25.83642 l 28.71261,-4.83759 v -22.00273 z"
           points="103.49665,137.60206 132.20926,132.76447 132.20926,110.76174 103.49665,111.76564 " />
        <path
           style="fill:none;stroke:none;stroke-width:1"
           d="m 104.4921,111.99558 -0.36543,0.36544 c -0.48725,0.48724 -0.48725,1.60977 0,1.12253 l 1.10768,-1.10769 c 0.56127,-0.56127 1.72447,-0.60194 1.16321,-0.0407 l -2.21538,2.21537 c -0.56126,0.56127 -0.56126,1.6838 0,1.12254 l 3.37858,-3.37858 c 0.56126,-0.56127 1.72447,-0.60194 1.1632,-0.0407 l -4.54178,4.54178 c -0.56126,0.56126 -0.56126,1.6838 0,1.12253 l 5.70498,-5.70498 c 0.56127,-0.56127 1.72447,-0.60194 1.1632,-0.0407 l -6.86818,6.86818 c -0.56126,0.56127 -0.56126,1.6838 0,1.12253 l 8.03139,-8.03138 c 0.56126,-0.56127 1.72446,-0.60194 1.1632,-0.0407 l -9.19459,9.19459 c -0.56126,0.56126 -0.56126,1.68379 0,1.12253 l 10.35779,-10.35779 c 0.56127,-0.56126 1.72447,-0.60193 1.1632,-0.0407 l -11.52099,11.52099 c -0.56126,0.56127 -0.56126,1.6838 0,1.12253 l 12.68419,-12.68419 c 0.56127,-0.56126 1.72447,-0.60193 1.16321,-0.0407 l -13.8474,13.84739 c -0.56126,0.56127 -0.56126,1.6838 0,1.12254 l 15.0106,-15.0106 c 0.56126,-0.56126 1.72446,-0.60193 1.1632,-0.0407 l -16.1738,16.1738 c -0.56126,0.56126 -0.56126,1.68379 0,1.12253 l 17.337,-17.337 c 0.56127,-0.56126 1.72447,-0.60193 1.1632,-0.0407 l -18.5002,18.5002 c -0.56126,0.56127 -0.56126,1.6838 0,1.12253 l 19.6634,-19.6634 c 0.56127,-0.56126 1.72447,-0.60193 1.16321,-0.0407 l -20.82661,20.82661 c -0.56126,0.56126 -0.56126,1.68379 0,1.12253 l 21.98981,-21.98981 c 0.56126,-0.56126 1.72447,-0.60193 1.1632,-0.0407 l -23.15301,23.15301 c -0.56126,0.56127 -0.56126,1.6838 0,1.12253 l 24.31621,-24.31621 c 0.56127,-0.56126 1.72447,-0.60193 1.1632,-0.0407 l -25.31948,25.31949 c -0.56127,0.56126 0.78871,0.33381 1.34998,-0.22745 l 25.1327,-25.13271 c 0.56127,-0.56126 1.2602,-0.13766 0.69894,0.4236 l -24.48166,24.48166 c -0.56126,0.56127 0.78872,0.33382 1.34998,-0.22745 l 23.13168,-23.13168 c 0.56126,-0.56126 0.56126,0.56127 0,1.12254 l -21.7817,21.78169 c -0.56126,0.56127 0.78872,0.33382 1.34998,-0.22745 l 20.43172,-20.43171 c 0.56126,-0.56127 0.56126,0.56126 0,1.12253 L 112.442,135.47658 c -0.56127,0.56127 0.78871,0.33382 1.34998,-0.22745 l 17.73175,-17.73175 c 0.56126,-0.56126 0.56126,0.56127 0,1.12253 l -16.38177,16.38178 c -0.56127,0.56126 0.78871,0.33381 1.34998,-0.22745 l 15.03179,-15.03179 c 0.56126,-0.56127 0.56126,0.56126 0,1.12253 l -13.68181,13.68181 c -0.56127,0.56126 0.78871,0.33382 1.34998,-0.22745 l 12.33183,-12.33183 c 0.56126,-0.56127 0.56126,0.56127 0,1.12253 l -10.98185,10.98185 c -0.56127,0.56127 0.78872,0.33382 1.34998,-0.22745 l 9.63187,-9.63187 c 0.56126,-0.56126 0.56126,0.56127 0,1.12254 l -8.28189,8.28188 c -0.56126,0.56127 0.78872,0.33382 1.34998,-0.22745 l 6.93191,-6.9319 c 0.56126,-0.56127 0.56126,0.56126 0,1.12253 l -5.58193,5.58193 c -0.56126,0.56126 0.78872,0.33381 1.34998,-0.22745 l 4.23195,-4.23195 c 0.56126,-0.56126 0.56126,0.56127 0,1.12253 l -2.88196,2.88197 c -0.56127,0.56126 0.78871,0.33381 1.34998,-0.22745 l 1.53198,-1.53198 c 0.56126,-0.56127 0.56126,0.56126 0,1.12253 l -0.60295,0.60295"
           id="path222" />
      </g>
      <g
         id="g229">
        <path
           sodipodi:type="inkscape:box3dside"
           id="path172"
           style="fill:#8686bf;fill-rule:evenodd;stroke:none;stroke-linejoin:round"
           inkscape:box3dsidetype="3"
           d="m 77.103433,110.0403 26.393217,1.72534 v 25.83642 l -26.393217,-8.31402 z"
           points="103.49665,111.76564 103.49665,137.60206 77.103433,129.28804 77.103433,110.0403 " />
        <path
           style="fill:none;stroke:none;stroke-width:1"
           d="m 77.368016,110.89192 0.267127,-0.26713 c 0.356169,-0.35616 1.409823,-0.28729 1.053654,0.0689 l -0.899831,0.89983 c -0.561266,0.56127 -0.561266,1.6838 0,1.12254 l 1.799663,-1.79967 c 0.561266,-0.56126 1.61492,-0.49238 1.053654,0.0689 l -2.853317,2.85332 c -0.561266,0.56126 -0.561266,1.6838 0,1.12253 l 3.906971,-3.90697 c 0.561266,-0.56127 1.61492,-0.49239 1.053654,0.0689 l -4.960624,4.96062 c -0.561266,0.56127 -0.561266,1.6838 0,1.12253 l 6.014278,-6.01427 c 0.561266,-0.56127 1.61492,-0.49239 1.053654,0.0689 l -7.067932,7.06794 c -0.561266,0.56126 -0.561266,1.68379 0,1.12253 l 8.121586,-8.12159 c 0.561266,-0.56126 1.61492,-0.49239 1.053654,0.0689 l -9.17524,9.17524 c -0.561266,0.56127 -0.561266,1.6838 0,1.12253 l 10.228894,-10.229 c 0.561266,-0.56127 1.61492,-0.49239 1.053654,0.0689 l -11.282548,11.28254 c -0.561266,0.56127 -0.561266,1.6838 0,1.12254 l 12.336202,-12.33621 c 0.561266,-0.56126 1.61492,-0.49238 1.053654,0.0689 l -13.389856,13.38986 c -0.561266,0.56126 -0.561266,1.6838 0,1.12253 l 14.44351,-14.44351 c 0.561266,-0.56127 1.61492,-0.49239 1.053654,0.0689 l -15.497164,15.49716 c -0.561266,0.56127 -0.561266,1.6838 0,1.12253 l 16.550818,-16.55081 c 0.561266,-0.56127 1.61492,-0.49239 1.053654,0.0689 l -16.934528,16.93453 c -0.561266,0.56127 0.292367,0.83017 0.853633,0.2689 l 17.13455,-17.13455 c 0.561266,-0.56127 1.61492,-0.49239 1.053654,0.0689 l -17.334571,17.33457 c -0.561266,0.56126 0.292367,0.83016 0.853633,0.2689 l 17.534592,-17.53459 c 0.561266,-0.56127 1.614918,-0.49239 1.053654,0.0689 l -17.734614,17.73462 c -0.561266,0.56126 0.292367,0.83016 0.853633,0.2689 l 17.934635,-17.93464 c 0.56127,-0.56126 1.61492,-0.49239 1.05365,0.0689 l -18.134653,18.13466 c -0.561266,0.56126 0.292367,0.83016 0.853633,0.2689 l 18.33468,-18.33468 c 0.56126,-0.56127 0.60337,0.51916 0.0421,1.08043 l -17.523147,17.52315 c -0.561266,0.56126 0.292367,0.83016 0.853633,0.26889 l 16.669514,-16.66951 c 0.56127,-0.56127 0.56127,0.56127 0,1.12253 l -15.815882,15.81588 c -0.561266,0.56127 0.292367,0.83017 0.853633,0.2689 l 14.962249,-14.96225 c 0.56127,-0.56126 0.56127,0.56127 0,1.12254 l -14.108617,14.10861 c -0.561266,0.56127 0.292367,0.83017 0.853633,0.2689 l 13.254984,-13.25498 c 0.56127,-0.56127 0.56127,0.56126 0,1.12253 l -12.401352,12.40135 c -0.561266,0.56127 0.292367,0.83017 0.853633,0.2689 L 102.81112,121.37 c 0.56127,-0.56126 0.56127,0.56127 0,1.12253 l -10.694086,10.69409 c -0.561266,0.56127 0.292367,0.83017 0.853633,0.2689 l 9.840453,-9.84046 c 0.56127,-0.56126 0.56127,0.56127 0,1.12254 l -8.98682,8.98682 c -0.561266,0.56126 0.292367,0.83016 0.853633,0.2689 l 8.133187,-8.13319 c 0.56127,-0.56127 0.56127,0.56126 0,1.12253 l -7.279554,7.27956 c -0.561266,0.56126 0.292367,0.83016 0.853633,0.2689 l 6.425921,-6.42593 c 0.56127,-0.56127 0.56127,0.56127 0,1.12253 l -5.572288,5.57229 c -0.561266,0.56127 0.292367,0.83017 0.853633,0.2689 l 4.718655,-4.71866 c 0.56127,-0.56126 0.56127,0.56127 0,1.12254 l -3.865022,3.86502 c -0.561266,0.56127 0.292367,0.83017 0.853633,0.2689 l 3.011389,-3.01139 c 0.56127,-0.56127 0.56127,0.56126 0,1.12253 l -2.15776,2.15776 c -0.56126,0.56127 0.29237,0.83017 0.85364,0.2689 l 1.30412,-1.30413 c 0.56127,-0.56126 0.56127,0.56127 0,1.12253 l -0.65206,0.65207 c -0.29251,0.29251 0.56112,0.56141 0.85363,0.2689 l 0.21938,-0.21938"
           id="path227" />
      </g>
    </g>
    <text
       xml:space="preserve"
       id="text252"
       style="font-style:normal;font-weight:normal;font-size:10.5833px;line-height:1.25;font-family:sans-serif;white-space:pre;shape-inside:url(#rect254);fill:#000000;fill-opacity:1;stroke:none;" />
    <text
       xml:space="preserve"
       style="font-style:normal;font-weight:normal;font-size:10.5833px;line-height:1.25;font-family:sans-serif;fill:#000000;fill-opacity:1;stroke:none;stroke-width:0.264583"
       x="56.556366"
       y="-68.146957"
       id="text260"><tspan
         sodipodi:role="line"
         id="tspan258"
         x="56.556366"
         y="-68.146957"
         style="stroke-width:0.264583" /></text>
    <g
       id="g263"
       transform="translate(-37.075644,48.116693)">
      <path
         id="path118316"
         style="font-style:italic;font-variant:normal;font-weight:bold;font-stretch:normal;font-size:25.0384px;line-height:1.25;font-family:sans-serif;-inkscape-font-specification:'sans-serif, Bold Italic';font-variant-ligatures:normal;font-variant-caps:normal;font-variant-numeric:normal;font-variant-east-asian:normal;fill:#55ddff;fill-opacity:1;stroke:none;stroke-width:1.10898;filter:url(#filter121233)"
         d="m 482.3418,-416.62891 v 11.83594 c -0.71779,-1.30207 -1.62907,-2.26564 -2.73047,-2.89062 -1.08903,-0.63804 -2.40098,-0.95703 -3.93555,-0.95703 -2.5122,-10e-6 -4.5585,1.05468 -6.14258,3.16406 -1.57165,2.10938 -2.35742,4.8828 -2.35742,8.32031 0,3.43748 0.78577,6.21093 2.35742,8.32031 1.58408,2.10938 3.63038,3.16406 6.14258,3.16406 1.53457,10e-6 2.84652,-0.31249 3.93555,-0.9375 1.1014,-0.638 2.01268,-1.60805 2.73047,-2.91015 v 3.28125 h 3.41406 v -30.39063 z m 70.72461,0 v 4.55079 h 3.41601 v -4.55079 z m 45.14453,0 v 4.55079 h 3.41601 v -4.55079 z m 17.17187,7.98633 c -2.54934,0 -4.51629,0.55989 -5.90234,1.67969 -1.38605,1.11977 -2.08008,2.70833 -2.08008,4.76562 0,1.6927 0.46961,3.02733 1.41016,4.00391 0.94052,0.96353 2.46973,1.67968 4.58593,2.14844 l 1.1875,0.29492 c 2.11619,0.48174 3.48474,0.98306 4.10352,1.50391 0.63113,0.52084 0.94531,1.26954 0.94531,2.24609 0,1.05469 -0.43256,1.87501 -1.29883,2.46094 -0.86626,0.57292 -2.10407,0.85937 -3.71289,0.85937 -1.2004,0 -2.4135,-0.16929 -3.63867,-0.50781 -1.22514,-0.3516 -2.46816,-0.87241 -3.73047,-1.5625 v 3.71094 c 1.33657,0.45583 2.60429,0.79439 3.80469,1.01562 1.21278,0.23433 2.37643,0.35157 3.49024,0.35156 2.67308,0 4.7708,-0.59243 6.29296,-1.77734 1.53457,-1.18488 2.30274,-2.79295 2.30274,-4.82422 0,-1.78386 -0.51387,-3.1706 -1.54102,-4.16015 -1.01478,-1.00261 -2.73455,-1.77735 -5.16015,-2.32422 l -1.16993,-0.27344 c -1.83158,-0.42971 -3.04986,-0.87892 -3.65625,-1.34766 -0.60638,-0.48179 -0.91015,-1.13934 -0.91015,-1.97265 0,-1.09377 0.42017,-1.91407 1.26172,-2.46094 0.85387,-0.54687 2.12877,-0.82031 3.82422,-0.82031 1.1138,0 2.19094,0.13021 3.23046,0.39062 1.03953,0.26041 2.04253,0.65103 3.00782,1.17188 v -3.39844 c -0.94053,-0.39065 -1.96823,-0.68363 -3.08203,-0.87891 -1.11378,-0.19552 -2.30217,-0.29492 -3.56446,-0.29492 z m -186.81836,0.002 c -1.11377,-10e-6 -2.25986,0.13019 -3.43554,0.39062 -1.17564,0.24738 -2.38876,0.625 -3.63868,1.13281 v 3.32031 c 1.03953,-0.59897 2.12383,-1.04819 3.25,-1.34765 1.12615,-0.29947 2.28268,-0.44922 3.47071,-0.44922 1.8687,0 3.31657,0.45577 4.34375,1.36719 1.03949,0.89844 1.55859,2.17445 1.55859,3.82812 v 0.35156 h -4.78906 c -3.10624,0 -5.44395,0.62501 -7.01563,1.875 -1.5593,1.25002 -2.33984,3.10546 -2.33984,5.56641 0,2.10936 0.62506,3.79558 1.875,5.05859 1.26229,1.25002 2.95738,1.875 5.08594,1.875 1.68305,10e-6 3.10622,-0.31249 4.26953,-0.9375 1.16326,-0.638 2.13442,-1.62109 2.91406,-2.94921 v 3.32031 h 3.41602 v -12.48047 c 0,-3.33332 -0.74149,-5.82029 -2.22657,-7.46094 -1.48502,-1.64061 -3.73103,-2.46094 -6.73828,-2.46093 z m 26.02539,0 c -1.44791,0 -2.72997,0.3255 -3.84375,0.97656 -1.10143,0.65101 -2.06019,1.63412 -2.87695,2.94922 v -3.39844 h -3.43359 v 21.875 h 3.43359 v -12.36328 c 0,-2.13541 0.53144,-3.82161 1.5957,-5.0586 1.06429,-1.23699 2.51933,-1.85547 4.36328,-1.85546 1.53454,-10e-6 2.68586,0.5143 3.45313,1.54296 0.76729,1.02864 1.15039,2.57812 1.15039,4.64844 v 13.08594 h 3.41602 v -13.20313 c 0,-3.02082 -0.61272,-5.30598 -1.83789,-6.85547 -1.22518,-1.5625 -3.03147,-2.34374 -5.41993,-2.34374 z m 84.40625,0 c -1.44793,0 -2.72997,0.3255 -3.84375,0.97656 -1.1014,0.65101 -2.06017,1.63412 -2.87695,2.94922 v -3.39844 h -3.43359 v 21.875 h 3.43359 v -12.36328 c 0,-2.13541 0.53337,-3.82161 1.59766,-5.0586 1.06426,-1.23699 2.51737,-1.85547 4.36133,-1.85546 1.53453,-10e-6 2.68585,0.5143 3.45312,1.54296 0.76729,1.02864 1.15039,2.57812 1.15039,4.64844 v 13.08594 h 3.41602 v -13.20313 c 0,-3.02082 -0.61272,-5.30598 -1.83789,-6.85547 -1.22518,-1.5625 -3.03147,-2.34374 -5.41993,-2.34374 z m 109.72657,0 c -2.98248,0 -5.32216,1.0156 -7.01758,3.04687 -1.68308,2.03124 -2.52539,4.84375 -2.52539,8.4375 0,3.58072 0.84231,6.39323 2.52539,8.4375 1.69542,2.03124 4.0351,3.04687 7.01758,3.04687 2.9701,10e-6 5.3026,-1.01563 6.99804,-3.04687 1.69542,-2.04427 2.54297,-4.85678 2.54297,-8.4375 0,-3.59375 -0.84755,-6.40626 -2.54297,-8.4375 -1.69544,-2.03127 -4.02794,-3.04687 -6.99804,-3.04687 z m 25.22656,0 c -1.44794,0 -2.728,0.3255 -3.8418,0.97656 -1.10138,0.65101 -2.06014,1.63412 -2.87695,2.94922 v -3.39844 h -3.43555 v 21.875 h 3.43555 v -12.36328 c 0,-2.13541 0.53139,-3.82161 1.5957,-5.0586 1.06427,-1.23699 2.5174,-1.85547 4.36133,-1.85546 1.53456,-10e-6 2.68586,0.5143 3.45312,1.54296 0.7673,1.02864 1.15235,2.57812 1.15235,4.64844 v 13.08594 h 3.41406 v -13.20313 c 0,-3.02082 -0.61274,-5.30598 -1.83789,-6.85547 -1.22517,-1.5625 -3.03146,-2.34374 -5.41992,-2.34374 z m -169.42578,0.52734 v 13.24219 c 0,3.00779 0.61988,5.29296 1.85742,6.85547 1.23754,1.5625 3.04904,2.34374 5.4375,2.34374 1.44791,10e-6 2.71758,-0.31899 3.80664,-0.95703 1.10138,-0.65103 2.06535,-1.64062 2.89453,-2.96875 v 3.35938 h 3.41602 v -21.875 h -3.41602 v 12.40234 c 0,2.13544 -0.53662,3.82163 -1.61328,5.0586 -1.06429,1.23699 -2.51935,1.85546 -4.36328,1.85546 -1.53457,0 -2.68583,-0.5143 -3.45313,-1.54296 -0.76727,-1.04167 -1.15039,-2.59765 -1.15039,-4.66797 v -13.10547 z m 48.54297,0 v 21.875 h 3.41601 v -21.875 z m 8.76171,0 7.38868,10.42969 -8.07618,11.44531 h 4.0293 l 6.05078,-8.59375 6.05274,8.59375 h 4.02734 l -7.9082,-11.23047 7.51758,-10.64453 h -4.02735 l -5.51367,7.79297 -5.51367,-7.79297 z m 36.38282,0 v 21.875 h 3.41601 v -21.875 z m -268.30274,0.53906 v 14.40039 h 63.21875 l -64.79687,99.02539 v 13.04688 h 83.67383 v -14.40039 h -66.37696 l 64.79883,-99.02735 v -13.04492 z m 146.60352,1.94141 c 1.80681,0 3.22998,0.75522 4.26953,2.26562 1.03952,1.49743 1.56055,3.56771 1.56055,6.21094 0,2.64323 -0.52103,4.72007 -1.56055,6.23047 -1.03955,1.4974 -2.46272,2.24609 -4.26953,2.24609 -1.80682,0 -3.22999,-0.74869 -4.26953,-2.24609 -1.02715,-1.5104 -1.54102,-3.58724 -1.54102,-6.23047 0,-2.64323 0.51387,-4.71351 1.54102,-6.21094 1.03954,-1.5104 2.46271,-2.26562 4.26953,-2.26562 z m 172.21094,0.0391 c 1.81918,0 3.25993,0.76173 4.32422,2.28516 1.06428,1.51042 1.59765,3.5612 1.59765,6.15234 0,2.60417 -0.53337,4.66148 -1.59765,6.17187 -1.06429,1.51043 -2.50504,2.26563 -4.32422,2.26563 -1.84393,0 -3.29902,-0.74867 -4.36328,-2.24609 -1.05195,-1.5104 -1.57813,-3.57424 -1.57813,-6.19141 0,-2.6172 0.53334,-4.67448 1.59766,-6.17187 1.06429,-1.5104 2.51221,-2.26563 4.34375,-2.26563 z m -218.00586,8.35937 h 3.39648 v 0.80079 c 0,2.34373 -0.57567,4.22524 -1.72656,5.64453 -1.13852,1.40623 -2.65341,2.10937 -4.54688,2.10937 -1.37365,0 -2.46316,-0.37111 -3.26757,-1.11328 -0.79202,-0.75522 -1.1875,-1.77083 -1.1875,-3.04687 0,-1.60154 0.53141,-2.73435 1.5957,-3.39844 1.06426,-0.66404 2.97662,-0.9961 5.73633,-0.9961 z m 257.78515,6.03516 v 4.96094 h 3.91797 v -4.96094 z m 12.08594,0 v 4.96094 h 3.91602 v -4.96094 z m -95.07031,6.3086 -14.09766,0.0859 -1.9043,15.9336 14.13477,-0.0859 z m -79.2168,0.48242 -14.0957,0.0859 -1.90625,15.9336 14.13672,-0.0859 z m 173.70703,21.24414 c -2.84543,0.0173 -5.55376,0.88911 -8.125,2.61328 -2.57124,1.72417 -5.10799,4.35515 -7.61133,7.89648 l 1.08594,-8.94922 -14.0957,0.0859 -7.13281,61.11524 14.05664,-0.0859 3.53906,-30.06641 c 0.68142,-5.56592 2.01739,-9.91829 4.00781,-13.05664 2.01572,-3.17484 4.47148,-4.77142 7.36914,-4.78906 1.69681,-0.0103 3.018,0.6182 3.96094,1.88477 0.96905,1.2664 1.47979,3.0625 1.5332,5.38867 0.0194,0.83597 -0.0459,1.98253 -0.19531,3.4375 -0.12404,1.41846 -0.31836,3.16463 -0.58398,5.23828 l -3.69336,31.86523 14.05664,-0.0859 4.35351,-37.21289 c 0.19656,-1.67336 0.33054,-3.21857 0.40235,-4.63671 0.0978,-1.41831 0.13413,-2.70996 0.10742,-3.87305 -0.12284,-5.34292 -1.31373,-9.47945 -3.57422,-12.41016 -2.26051,-2.93077 -5.41468,-4.38407 -9.46094,-4.35937 z m -63.66992,0.38672 c -4.38566,0.0267 -8.36881,1.14283 -11.94727,3.3457 -3.55235,2.20271 -6.58406,5.42028 -9.09765,9.65234 -2.16146,3.64831 -3.79284,7.67486 -4.89258,12.08008 -1.1006,4.36888 -1.59751,8.84223 -1.49219,13.42188 0.18298,7.95986 2.18113,14.23664 5.99414,18.83007 3.83912,4.59328 8.98174,6.87129 15.42969,6.83204 4.46395,-0.0272 8.486,-1.14284 12.06445,-3.34571 3.57849,-2.20287 6.64879,-5.45664 9.2129,-9.76172 2.16231,-3.61195 3.78214,-7.58364 4.85742,-11.91601 1.07444,-4.36872 1.5592,-8.86253 1.45312,-13.47852 -0.18298,-7.95986 -2.19408,-14.23485 -6.0332,-18.82812 -3.83914,-4.59328 -9.02259,-6.87177 -15.54883,-6.83203 z m -155.2207,0.94531 c -2.84546,0.0173 -5.55379,0.88911 -8.125,2.61328 -2.57124,1.72417 -5.108,4.35711 -7.61133,7.89844 l 1.08594,-8.94922 -14.09571,0.0859 -7.13281,61.11328 14.05664,-0.0859 3.53906,-30.06641 c 0.6814,-5.56592 2.01737,-9.9183 4.00782,-13.05664 2.01569,-3.17485 4.47147,-4.76947 7.36914,-4.78711 1.69683,-0.0103 3.01802,0.61625 3.96094,1.88282 0.96909,1.2664 1.47978,3.0625 1.5332,5.38867 0.0194,0.83596 -0.0459,1.98253 -0.19531,3.4375 -0.12405,1.41846 -0.31836,3.16463 -0.58399,5.23828 l -3.69336,31.86523 14.05664,-0.084 4.35352,-37.21484 c 0.19653,-1.67337 0.33053,-3.21858 0.40234,-4.63672 0.0978,-1.41831 0.13413,-2.70997 0.10742,-3.87305 -0.12283,-5.34292 -1.31373,-9.47945 -3.57422,-12.41016 -2.26048,-2.93077 -5.41465,-4.38406 -9.46093,-4.35937 z m 121.65625,0.73242 -14.09571,0.0859 -7.13281,61.11328 14.0586,-0.0859 z m -23.02344,0.14063 -15.23242,0.0918 -10.97852,18.16992 -6.91601,-18.06054 -14.56641,0.0879 12.31445,29.75195 -20.30859,31.36719 15.23242,-0.0918 12.16406,-19.37695 7.33594,19.25781 14.60547,-0.0898 -12.9375,-31.27344 z m -56.19141,0.34179 -14.0957,0.0859 -7.13281,61.11328 14.05664,-0.0859 z m -84.6582,0.51563 -14.05859,0.084 -3.53711,30.06641 c -0.65532,5.56576 -1.99129,9.91814 -4.00781,13.05664 -2.01656,3.1385 -4.47346,4.71674 -7.3711,4.73437 -1.69683,0.0103 -3.01802,-0.6182 -3.96094,-1.88476 -0.94291,-1.26656 -1.43952,-3.04416 -1.49218,-5.33399 -0.0192,-0.83596 0.033,-1.98073 0.15625,-3.43554 0.12318,-1.45481 0.31638,-3.21932 0.58203,-5.29297 l 3.69531,-31.8125 -14.05859,0.0859 -4.27149,37.32226 c -0.17386,1.52782 -0.29733,3.00178 -0.36914,4.41992 -0.0718,1.41815 -0.0937,2.76303 -0.0644,4.03516 0.12366,5.37926 1.31566,9.53413 3.57617,12.46484 2.26049,2.93059 5.38873,4.38357 9.38281,4.35938 2.92374,-0.0178 5.68279,-0.9073 8.2793,-2.66797 2.59648,-1.76067 5.05635,-4.41095 7.37695,-7.95117 l -1.08789,8.94922 14.13672,-0.0859 z m 196.62305,11.28906 c 2.42779,-0.0148 4.29087,0.97342 5.58984,2.96484 1.32515,1.99127 2.03146,4.89457 2.11914,8.71094 0.16378,7.12389 -0.87579,13.00252 -3.11914,17.63281 -2.24416,4.59386 -5.17997,6.90166 -8.80859,6.92383 -2.42777,0.0148 -4.30576,-0.97358 -5.63086,-2.96484 -1.29996,-2.02777 -1.99359,-4.96955 -2.08203,-8.82227 -0.16293,-7.08754 0.87693,-12.92754 3.12109,-17.52148 2.24418,-4.59386 5.18195,-6.90166 8.81055,-6.92383 z"
         transform="matrix(0.26788954,0,0,0.23586867,83.048266,-33.665268)"
         inkscape:export-xdpi="96"
         inkscape:export-ydpi="96" />
      <path
         style="fill:none;stroke:none;stroke-width:1.10898"
         d="m 330.89586,-404.4432 0.88454,-1.00462 c 1.17938,-1.33949 5.36966,-1.33949 4.19027,0 l -3.50346,3.97908 c -2.09514,2.37957 -2.09514,7.13871 0,4.75914 l 7.00693,-7.95816 c 2.09514,-2.37957 6.28542,-2.37957 4.19028,0 l -7.56109,8.58755 c -2.09514,2.37957 2.09514,2.37957 4.19028,0 l 7.56109,-8.58755 c 2.09513,-2.37957 6.28541,-2.37957 4.19027,0 l -7.56108,8.58755 c -2.09514,2.37957 2.09514,2.37957 4.19028,0 l 7.56108,-8.58755 c 2.09514,-2.37957 6.28542,-2.37957 4.19028,0 l -7.56108,8.58755 c -2.09514,2.37957 2.09514,2.37957 4.19028,0 l 7.56108,-8.58755 c 2.09514,-2.37957 6.28542,-2.37957 4.19028,0 l -7.56108,8.58755 c -2.09514,2.37957 2.09514,2.37957 4.19028,0 l 7.56108,-8.58755 c 2.09514,-2.37957 6.28542,-2.37957 4.19028,0 l -7.56109,8.58755 c -2.09513,2.37957 2.09514,2.37957 4.19028,0 l 7.56109,-8.58755 c 2.09514,-2.37957 6.28542,-2.37957 4.19028,0 l -7.56109,8.58755 c -2.09514,2.37957 2.09514,2.37957 4.19028,0 l 7.56109,-8.58755 c 2.09513,-2.37957 6.28541,-2.37957 4.19027,0 l -7.56108,8.58755 c -2.09514,2.37957 2.09514,2.37957 4.19028,0 l 7.56108,-8.58755 c 2.09514,-2.37957 6.28542,-2.37957 4.19028,0 l -9.13244,10.37223 m -4.74456,10.14782 18.06728,-20.52005 c 2.09514,-2.37957 3.44331,0.84838 1.34817,3.22795 l -31.54108,35.823 m -12.12562,18.5309 43.6667,-49.59476 c 2.09514,-2.37957 2.19845,2.26222 0.10331,4.64179 l -55.89563,63.48387 m 72.36472,-77.42961 0.65008,-0.73834 c 0.53244,-0.60472 5.05978,-0.98754 4.52735,-0.38282 l -0.0254,0.0288 c -0.49857,0.56626 2.77673,1.60545 3.27531,1.03919 v 0 c 0.49858,-0.56627 2.69495,1.69832 2.19637,2.26459 l -0.0588,0.0668 c -0.57702,0.65536 -0.66476,5.51414 -0.0877,4.85878 l 0.55598,-0.63145 c 1.31833,-1.4973 1.39893,3.17029 0.0806,4.66759 l -0.609,0.69168 c -0.96046,1.09086 -0.0831,4.85349 0.8774,3.76263 l 0.10735,-0.12192 c 0.81733,-0.9283 -5.93452,1.98103 -6.75185,2.90933 l -0.23418,0.26597 c -0.5051,0.57367 -4.48282,0.33225 -3.97772,-0.24142 v 0 c 0.5051,-0.57367 -1.78842,-2.72793 -2.29352,-2.15426 l -0.13643,0.15495 c -0.687,0.78026 -1.78797,-2.72843 -1.10097,-3.5087 l 5.11612,-5.81067 m -86.60126,88.83972 54.32031,-61.69468 m -12.12612,18.53146 -51.25393,58.21202 c -2.09514,2.37957 -2.09514,7.13871 0,4.75914 l 39.12782,-44.43969 m -12.12612,18.53146 -27.0017,30.66737 c -2.09514,2.37957 0.81926,3.82866 2.9144,1.44909 l 10.38983,-11.80032 c 2.09514,-2.37957 3.45667,0.8332 1.36153,3.21277 l -7.56108,8.58755 c -2.09514,2.37957 2.09514,2.37957 4.19028,0 l 7.56108,-8.58755 c 2.09514,-2.37957 6.28542,-2.37957 4.19028,0 l -7.56108,8.58755 c -2.09514,2.37957 2.09514,2.37957 4.19027,0 l 7.56109,-8.58755 c 2.09514,-2.37957 6.28542,-2.37957 4.19028,0 l -7.56109,8.58755 c -2.09514,2.37957 2.09514,2.37957 4.19028,0 l 7.56109,-8.58755 c 2.09514,-2.37957 6.28541,-2.37957 4.19028,0 l -7.56109,8.58755 c -2.09514,2.37957 2.09514,2.37957 4.19028,0 l 7.56108,-8.58755 c 2.09514,-2.37957 6.28542,-2.37957 4.19028,0 l -7.56108,8.58755 c -2.09514,2.37957 2.09514,2.37957 4.19028,0 l 7.56108,-8.58755 c 2.09514,-2.37957 6.28542,-2.37957 4.19028,0 l -7.56108,8.58755 c -2.09514,2.37957 2.09514,2.37957 4.19028,0 l 7.56108,-8.58755 c 2.09514,-2.37957 6.28542,-2.37957 4.19028,0 l -7.56108,8.58755 c -2.09514,2.37957 2.09513,2.37957 4.19027,0 l 7.56109,-8.58755 c 2.09514,-2.37957 6.28542,-2.37957 4.19028,0 l -7.56109,8.58755 c -2.09514,2.37957 2.09514,2.37957 4.19028,0 l 7.56109,-8.58755 c 2.09514,-2.37957 3.131,1.20308 1.03586,3.58265 l -4.40667,5.0049 c -2.09514,2.37957 2.09514,2.37957 4.19028,0 l 1.78774,-2.03044 m -15.87818,-67.63075 2.89447,-3.28742 c 2.09514,-2.37957 6.30809,-2.40531 4.21295,-0.0257 l -6.16212,6.99867 c -2.09514,2.37957 -2.72119,7.84975 -0.62605,5.47018 l 10.71234,-12.16662 c 2.09514,-2.37957 1.4583,3.10286 -0.63684,5.48243 l -10.70156,12.15438 c -2.09514,2.37957 -2.7212,7.84976 -0.62606,5.47019 l 10.69079,-12.14214 c 2.09514,-2.37957 1.4583,3.10286 -0.63684,5.48243 l -10.68001,12.1299 c -2.09514,2.37957 -2.71927,7.84757 -0.62413,5.468 l 10.66731,-12.11547 c 2.09514,-2.37957 1.45831,3.10285 -0.63683,5.48242 l -10.28891,11.68571 c -2.09514,2.37957 -1.89755,6.9143 0.19759,4.53473 l 9.44361,-10.72566 c 2.09514,-2.37957 1.65462,2.87989 -0.44052,5.25946 l -8.28004,9.40412 c -2.09514,2.37957 -0.77725,5.64191 1.31789,3.26234 l 7.41944,-8.42668 c 2.09514,-2.37957 3.6195,0.64827 1.52436,3.02783 l -7.06891,8.02856 c -2.09514,2.37957 0.43207,4.26841 2.52721,1.88885 l 7.17992,-8.15465 c 2.09514,-2.37957 7.3289,-3.56471 5.23376,-1.18514 l -9.23947,10.49379 c -2.09514,2.37957 1.84212,2.66695 3.93726,0.28738 l 26.61004,-30.22255 c 2.09514,-2.37957 1.45884,3.10226 -0.6363,5.48183 l -19.87493,22.57309 c -2.09514,2.37957 6.07655,2.61679 8.17169,0.23722 l 10.43064,-11.84667 c 2.09514,-2.37957 2.73144,-7.86139 0.6363,-5.48182 l -10.79411,12.25949 c -2.09514,2.37957 1.84485,7.42297 3.93999,5.0434 l 5.58152,-6.33925 c 2.09514,-2.37957 1.45884,3.10225 -0.6363,5.48182 l -2.30375,2.61651 m 17.84974,-105.93749 0.42694,-0.4849 c 0.56925,-0.64653 4.46677,-0.31403 3.89752,0.33251 l -3.60299,4.09211 c -0.96196,1.09256 -0.96196,5.8517 0,4.75914 v 0 c 0.96197,-1.09256 0.97729,3.64918 0.0153,4.74174 l -0.17268,0.19612 c -0.75216,0.85427 -0.42213,5.23857 0.33003,4.3843 l 0.56412,-0.6407 m 8.24117,-18.87825 -0.37786,0.42915 c -0.5038,0.5722 2.54863,1.86453 3.05243,1.29233 l 0.0957,-0.10872 c 0.63143,-0.71714 2.48867,1.93262 1.85724,2.64977 l -0.1016,0.11539 c -0.7669,0.87101 -0.42101,5.2373 0.34589,4.36629 l 0.20638,-0.23439 c 0.96046,-1.09086 0.89927,3.73779 -0.0612,4.82865 v 0 c -0.96047,1.09086 -0.96047,5.84999 0,4.75913 l 0.72035,-0.81814 m 8.38722,-14.28499 0.84012,-0.95416 c 1.12015,-1.27222 0.92917,3.70383 -0.19098,4.97605 l -1.02094,1.15954 c -0.89287,1.01408 -0.68548,5.53767 0.20738,4.52359 l 0.15791,-0.17935 c 0.68232,-0.77494 1.55578,2.99216 0.87346,3.76711 l -0.10624,0.12066 c -0.54067,0.61407 1.47537,3.08348 2.01605,2.4694 l 0.0256,-0.0291 c 0.50652,-0.57528 3.39151,0.90721 2.885,1.48249 v 0 c -0.50652,0.57527 4.20644,-0.0184 4.71295,-0.59364 l 4.46945,-5.07621 c 0.86828,-0.98615 0.86828,3.77299 0,4.75914 v 0 c -0.86827,0.98615 -0.97993,-8.40531 -0.11166,-9.39146 l 0.0558,-0.0634 c 0.94272,-1.0707 0.94272,-5.82984 0,-4.75914 l -0.43948,0.49915 c -0.95916,1.08937 -0.53201,-4.1549 0.42715,-5.24428 v 0 c 0.95916,-1.08938 0.95916,-5.84851 0,-4.75914 l -0.71937,0.81703 m -58.14224,56.51719 2.33568,-2.65277 c 2.09514,-2.37957 6.30758,-2.40474 4.21244,-0.0252 l -5.62299,6.38635 c -2.09514,2.37957 -2.74136,7.87267 -0.64622,5.4931 l 10.48165,-11.90461 c 2.09514,-2.37957 1.75128,2.77011 -0.34386,5.14968 l -10.78402,12.24802 c -2.09514,2.37957 -2.74136,7.87267 -0.64622,5.4931 l 10.79394,-12.2593 c 2.09514,-2.37957 1.45884,3.10225 -0.6363,5.48182 l -11.13532,12.64702 c -2.09514,2.37957 -4.83655,10.25229 -2.74141,7.87272 l 14.81179,-16.82259 m 39.44629,-68.59711 1.429,-1.62301 m -23.07687,50.00542 0.65285,-0.74148 c 0.87047,-0.98864 5.08335,-1.01431 4.21289,-0.0257 l -3.93473,4.46889 c -2.09514,2.37957 -2.73548,7.86598 -0.64034,5.48641 l 7.86944,-8.93778 c 2.09514,-2.37957 4.36521,-0.19867 2.27007,2.1809 l -10.77986,12.2433 c -2.09514,2.37957 -2.73548,7.86598 -0.64034,5.48641 l 12.32174,-13.99451 m 41.11458,-51.45531 0.72034,-0.81814 c 0.96047,-1.09085 0.96047,3.66829 0,4.75914 l -0.0163,0.0185 c -0.93875,1.0662 -0.90618,5.78835 0.0326,4.72216 l 0.1629,-0.18502 c 0.72155,-0.81951 1.35908,3.21555 0.63753,4.03506 l -0.0976,0.11088 c -0.59138,0.67167 1.5825,2.9618 2.17388,2.29014 v 0 c 0.59139,-0.67167 4.28781,-0.11077 3.69642,0.5609 l -0.0474,0.0539 c -0.65461,0.74347 6.57012,-2.70293 7.22472,-3.4464 l 0.2294,-0.26054 c 0.96047,-1.09086 0.96047,-5.85 0,-4.75914 l -0.13284,0.15087 c -0.96047,1.09086 -0.82763,-3.81915 0.13284,-4.91001 v 0 c 0.96047,-1.09086 0.96047,-5.85 0,-4.75914 l -0.72035,0.81815 m -69.64411,74.33966 24.89532,-28.27504 c 2.09514,-2.37957 6.7233,-2.8769 4.62816,-0.49733 l -28.59247,32.47411 c -2.09514,2.37957 -2.73548,7.86598 -0.64035,5.48641 l 11.69413,-13.28169 c 2.09514,-2.37957 0.55241,4.13174 -1.54273,6.51131 l -10.79174,12.2568 c -2.09514,2.37957 -2.73549,7.86598 -0.64035,5.48641 l 10.78168,-12.24537 c 2.09514,-2.37957 1.44851,3.11399 -0.64663,5.49356 l -10.77539,12.23823 c -2.09514,2.37957 -0.11842,4.89363 1.97672,2.51406 l 8.15203,-9.25873 c 2.09514,-2.37957 1.4485,3.11399 -0.64664,5.49356 l -4.07601,4.62937 c -1.05038,1.19298 3.16256,1.16723 4.21294,-0.0257 l 0.78779,-0.89473 m 15.17402,-45.78883 9.36367,-10.63486 c 2.09514,-2.37957 5.01274,-0.93411 2.9176,1.44546 l -7.01618,7.96867 c -2.09514,2.37957 -0.0125,4.77337 2.08261,2.3938 l 7.18373,-8.15898 c 2.09514,-2.37957 3.72973,0.52308 1.63459,2.90265 l -7.78744,8.84465 c -2.09514,2.37957 -2.20669,7.2654 -0.11155,4.88583 l 8.98067,-10.19987 c 2.09514,-2.37957 2.80193,1.57683 0.70679,3.9564 l -10.29269,11.68999 c -2.09514,2.37957 -2.73037,7.86019 -0.63523,5.48062 l 10.64175,-12.08645 c 2.09514,-2.37957 1.69129,2.83825 -0.40385,5.21781 l -10.87314,12.34925 c -2.09514,2.37957 -2.73037,7.86018 -0.63523,5.48061 l 10.77756,-12.24069 c 2.09514,-2.37957 1.45309,3.10878 -0.64205,5.48835 l -10.77074,12.23295 c -2.09514,2.37957 -2.73038,7.86018 -0.63524,5.48061 l 10.76393,-12.22521 c 2.09514,-2.37957 1.4531,3.10877 -0.64204,5.48834 l -8.72113,9.90509 c -2.09514,2.37957 2.1173,2.3544 4.21244,-0.0252 l 4.36057,-4.95255 c 1.43657,-1.6316 0.79453,3.85675 -0.64205,5.48835 l -1.07743,1.2237 m 45.01857,-103.4807 -1.03402,1.1744 c -0.94476,1.07302 -0.94476,5.83216 0,4.75914 v 0 c 0.94476,-1.07302 0.98589,3.6394 0.0411,4.71242 l -0.0206,0.0234 c -0.97218,1.10416 -0.97218,5.8633 0,4.75914 l 0.72914,-0.82812 m 6.83347,-17.27944 0.59448,-0.67519 c 0.60689,-0.68928 3.82576,0.41401 3.21887,1.10329 v 0 c -0.60688,0.68927 1.22948,3.36275 1.83636,2.67348 l 0.11294,-0.12827 c 0.75746,-0.8603 1.54904,2.9998 0.79158,3.8601 l -0.14089,0.16001 c -0.94532,1.07366 -0.94532,5.8328 0,4.75914 l 0.0114,-0.0129 c 0.96047,-1.09086 0.96047,3.66828 0,4.75914 l -0.72035,0.81814 m -31.45742,11.93229 3.6051,-4.09452 c 2.09514,-2.37957 6.30802,-2.40524 4.21289,-0.0257 l -6.90553,7.843 c -2.09514,2.37957 0.0575,4.69387 2.15261,2.3143 l 8.04604,-9.13835 c 2.09514,-2.37957 1.45259,3.10935 -0.64255,5.48892 l -4.02302,4.56917 c -0.98534,1.11911 3.22748,1.09351 4.21282,-0.0256 l 0.73901,-0.83933 m 30.28857,-34.40046 0.58514,-0.66458 c 0.78018,-0.8861 1.0506,3.56591 0.27041,4.45201 l -0.13521,0.15357 c -0.96046,1.09085 -0.96046,5.84999 0,4.75914 v 0 c 0.96047,-1.09086 0.96047,3.66828 0,4.75914 l -0.32321,0.36709 c -0.52951,0.60139 0.11692,4.62635 0.64643,4.02495 l 0.39713,-0.45104 m -45.62518,32.78257 1.90971,-2.16897 c 2.09514,-2.37957 6.30802,-2.40524 4.21288,-0.0257 l -5.19158,5.89637 c -2.09514,2.37957 -2.73548,7.86599 -0.64034,5.48642 l 10.04481,-11.40847 c 2.09514,-2.37957 2.20402,2.25591 0.10888,4.63548 l -10.79404,12.25941 c -2.09514,2.37957 -2.73548,7.86598 -0.64034,5.48641 l 10.78998,-12.25481 c 2.09514,-2.37957 1.45075,3.11144 -0.64439,5.49101 l -10.78594,12.25022 c -2.09514,2.37957 -2.73548,7.86598 -0.64034,5.48641 l 10.78189,-12.24562 c 2.09514,-2.37957 1.45075,3.11144 -0.64439,5.49101 l -10.77785,12.24103 c -2.09514,2.37957 -2.73548,7.86598 -0.64034,5.48641 l 10.7738,-12.23643 c 2.09514,-2.37957 1.45075,3.11144 -0.64439,5.49101 l -10.76976,12.23184 c -2.09514,2.37957 -2.79631,7.93507 -0.70118,5.5555 l 10.82655,-12.29633 c 2.09514,-2.37957 1.45075,3.11145 -0.64439,5.49101 l -5.96921,6.77958 c -2.09514,2.37957 2.11781,2.35382 4.21295,-0.0258 l 2.68323,-3.04749 m 50.37145,-100.042 -0.41357,0.46972 c -0.54965,0.62427 1.31863,3.2615 1.86828,2.63722 l 6.7e-4,-7.5e-4 c 0.54876,-0.62327 2.41572,2.01546 1.86695,2.63873 v 0 c -0.54877,0.62327 3.17525,5.91197 3.72402,5.2887 l 0.005,-0.006 c 0.55512,-0.63047 2.41716,2.01383 1.86205,2.64431 l -1.1e-4,1.2e-4 c -0.55497,0.63031 1.30729,3.27438 1.86226,2.64406 l 0.41623,-0.47274 m -43.23323,30.0659 -0.27527,0.31265 c -0.36703,0.41686 0.9729,3.65416 1.33993,3.2373 l 1.57665,-1.79069 c 2.09514,-2.37957 6.3078,-2.40499 4.21266,-0.0254 l -3.1533,3.58138 c -2.09514,2.37957 -0.7552,5.61687 1.33993,3.2373 l 5.27397,-5.98995 c 2.09514,-2.37957 3.3652,0.93709 1.27006,3.31666 l -5.20409,5.91059 c -2.09514,2.37957 -0.75521,5.61687 1.33993,3.2373 l 5.13423,-5.83123 c 2.09514,-2.37957 3.3652,0.93708 1.27006,3.31665 l -5.06436,5.75189 c -2.09514,2.37957 -0.75521,5.61687 1.33993,3.2373 l 4.99449,-5.67253 c 2.09514,-2.37957 3.36521,0.93709 1.27007,3.31666 l -4.92463,5.59317 c -2.09513,2.37957 -4.72443,10.12495 -2.62929,7.74538 l 27.23281,-30.92986 c 2.09514,-2.37957 6.30778,-2.40496 4.21264,-0.0254 l -43.08801,48.93751 c -2.09514,2.37957 -3.72536,8.99024 -1.63022,6.61068 l 39.39154,-44.73923 m 3.0686,-51.07658 -9.63303,10.94078 m 36.11755,-26.74334 0.61802,-0.70193 c 0.82403,-0.93589 1.02868,8.34995 0.20465,9.28585 l -0.10233,0.11622 c -0.96046,1.09085 -0.96046,5.84999 0,4.75914 v 0 c 0.96047,-1.09086 0.96047,3.66828 0,4.75913 v 0 c -0.96046,1.09086 -0.96046,5.85 0,4.75914 v 0 c 0.96047,-1.09085 2.12314,7.10691 1.16268,8.19776 l -8.71405,9.89706 c -2.09514,2.37957 1.01498,3.60636 3.11012,1.22679 l 7.09163,-8.05437 c 2.09514,-2.37957 1.45181,3.11023 -0.64333,5.4898 l -2.23548,2.53897 c -2.09514,2.37957 -8.75996,-4.32823 -6.66482,-6.7078 l 3.93152,-4.46526 c 0.8425,-0.95688 -3.37038,-0.93121 -4.21288,0.0257 l -0.63188,0.71766 m -33.77078,33.59627 9.77659,-11.10382 m 45.10366,-46.46767 0.80011,-0.90874 c 0.40763,-0.46297 4.45913,-0.30535 4.0515,0.15763 l -0.30573,0.34723 m -7.64075,3.91889 -1.18381,1.34453 c -0.57723,0.65559 1.34949,3.22644 1.92672,2.57085 l 0.0133,-0.0151 c 0.55953,-0.63549 3.69389,0.56378 3.13435,1.19927 v 0 c -0.55953,0.63549 2.83744,1.5365 3.39698,0.901 l 0.0126,-0.0143 c 0.5763,-0.65455 3.47509,0.81227 2.89878,1.46682 l -0.0611,0.0694 c -0.65778,0.74708 -3.37476,8.59205 -2.71697,7.84497 l 4.75872,-5.40475 m -12.95594,5.19652 0.35984,-0.40869 c 0.4215,-0.47873 3.96566,0.25511 3.54416,0.73384 l -0.31613,0.35904 m -80.04328,86.15059 24.86634,-28.24212 c 2.09514,-2.37957 3.56576,0.7093 1.47062,3.08887 l -4.92716,5.59605 c -2.09514,2.37957 -0.82971,5.70149 1.26543,3.32192 l 5.00119,-5.68013 c 2.09514,-2.37957 3.4346,0.85826 1.33946,3.23783 l -5.07522,5.76422 c -2.09514,2.37957 -0.82971,5.70149 1.26543,3.32192 l 5.14925,-5.8483 c 2.09514,-2.37957 3.4346,0.85827 1.33946,3.23784 l -5.22328,5.93238 c -2.09514,2.37957 -0.82971,5.70149 1.26543,3.32192 l 5.29731,-6.01646 c 2.09514,-2.37957 3.4346,0.85827 1.33946,3.23784 l -3.31212,3.76176 c -2.09514,2.37957 2.11795,2.35367 4.21309,-0.0259 l 1.65606,-1.88089 c 0.47171,-0.53575 1.81117,2.70208 1.33946,3.23784 l -0.35379,0.40182 m -33.70379,0.20621 5.81845,-6.60835 m 46.03201,-47.52205 2.86549,-3.2545 c 2.09514,-2.37957 6.30802,-2.40524 4.21288,-0.0257 l -6.14736,6.9819 c -2.09513,2.37957 -2.73548,7.86599 -0.64034,5.48642 l 10.79735,-12.26317 c 2.09514,-2.37957 1.45095,3.11121 -0.64419,5.49078 l -10.7935,12.25881 c -2.09514,2.37957 -2.73549,7.86598 -0.64035,5.48641 l 10.78966,-12.25444 c 2.09514,-2.37957 1.45095,3.11121 -0.64418,5.49078 l -10.78582,12.25008 c -2.09514,2.37957 -2.73549,7.86598 -0.64035,5.48641 l 10.78198,-12.24571 c 2.09514,-2.37957 1.45095,3.11121 -0.64419,5.49078 l -10.77813,12.24135 c -2.09514,2.37957 -2.73549,7.86598 -0.64035,5.48641 l 10.77429,-12.23698 c 2.09514,-2.37957 1.45095,3.11122 -0.64419,5.49079 l -10.77044,12.23261 c -2.09514,2.37957 -1.84054,6.84953 0.2546,4.46996 l 9.87165,-11.21179 c 2.09514,-2.37957 1.45095,3.11121 -0.64418,5.49078 l -5.01452,5.69527 c -2.09514,2.37957 2.1178,2.35383 4.21294,-0.0257 l 1.72874,-1.96343 m 45.04231,-93.98938 7.50974,-8.52924 c 0.4477,-0.50848 4.05991,0.14807 3.61221,0.65655 v 0 c -0.44771,0.50849 2.06068,2.41871 2.50838,1.91022 l 0.12055,-0.13691 c 0.60843,-0.69103 2.43897,1.98906 1.83054,2.68009 l -0.14437,0.16397 c -0.80093,0.90966 -0.50002,5.32704 0.30091,4.41739 l 0.32432,-0.36836 c 1.23337,-1.4008 1.09562,3.51478 -0.13774,4.91559 l -5.29787,6.01708 c -0.52371,0.59481 -4.39225,0.2294 -3.86854,-0.36541 v 0 c 0.52372,-0.59482 -2.43397,-1.99475 -2.95768,-1.39993 l -0.0195,0.0222 c -0.54979,0.62443 -2.59239,-1.81482 -2.0426,-2.43924 l 0.15878,-0.18034 c 0.76151,-0.86489 -0.0989,-4.64675 -0.86045,-3.78187 l -0.90642,1.02946 m 24.43426,-8.71482 0.73011,-0.82924 c 0.97349,-1.10564 1.27358,3.31267 0.30009,4.41831 l -0.30009,0.34083 c -0.97348,1.10565 -0.97348,5.86479 0,4.75914 v 0 c 0.97349,-1.10565 0.97349,3.65349 0,4.75914 l -0.73011,0.82924 m -51.35531,44.04973 11.68937,-13.27628 c 2.09514,-2.37957 7.92897,-4.24624 5.83383,-1.86667 l -18.61349,21.1404 c -2.09514,2.37957 -2.62931,7.74541 -0.53417,5.36584 l 23.54238,-26.73844 c 2.09514,-2.37957 5.87463,-1.91301 3.77949,0.46656 l -27.67072,31.42721 c -2.09513,2.37957 -1.95453,6.97902 0.14061,4.59945 l 10.97394,-12.46373 c 2.09514,-2.37957 0.82761,3.81917 -1.26753,6.19874 l -9.15613,10.39915 c -2.09514,2.37957 -1.15699,6.07319 0.93815,3.69362 l 7.92069,-8.99597 c 2.09514,-2.37957 2.27791,2.17198 0.18277,4.55155 l -6.79409,7.71644 c -2.09514,2.37957 -0.43069,5.24829 1.66445,2.86872 l 5.87191,-6.66905 c 2.09514,-2.37957 3.50942,0.77328 1.41428,3.15285 l -5.27883,5.99547 c -2.09514,2.37957 0.26461,4.45861 2.35975,2.07904 l 5.1609,-5.86153 c 2.09514,-2.37957 5.55251,-1.54716 3.45737,0.83241 l -5.87147,6.66856 c -2.09514,2.37957 1.08417,3.52779 3.17931,1.14822 l 29.01785,-32.95724 c 2.09514,-2.37957 1.79323,-6.79581 -0.30191,-4.41624 l -10.45184,11.87075 c -2.09514,2.37957 -1.03145,-3.58767 1.06369,-5.96724 l 8.68519,-9.86426 c 2.09514,-2.37957 1.00921,-5.90536 -1.08593,-3.52579 l -7.48489,8.50103 c -2.09514,2.37957 -2.44969,-1.97689 -0.35455,-4.35646 l 6.38772,-7.2549 c 2.09513,-2.37957 0.29441,-5.09352 -1.80073,-2.71395 l -5.58868,6.34739 c -2.09514,2.37957 -3.8238,-0.41624 -1.72866,-2.79581 l 5.17818,-5.88115 c 2.09514,-2.37957 -0.40721,-4.29665 -2.50235,-1.91708 l -5.21233,5.91995 c -2.09514,2.37957 -5.93904,1.98616 -3.8439,-0.39341 l 7.72209,-8.77042 m 27.83085,-45.88651 0.95174,-1.08094 c 0.57965,-0.65835 4.06409,0.14331 3.48444,0.80166 v 0 c -0.57966,0.65834 1.54412,3.00539 2.12377,2.34704 l 0.10661,-0.12107 c 0.72179,-0.81978 1.7619,2.75805 1.04011,3.57783 l -0.13227,0.15022 c -0.89815,1.02008 -0.89815,5.77922 0,4.75914 l 0.0458,-0.052 c 0.95916,-1.08938 0.95916,3.66976 0,4.75914 l -0.71937,0.81703 m 12.4014,0.19244 -1.69242,1.92218 m -17.56143,29.46379 0.75616,-0.85881 c 1.00822,-1.14509 5.2211,-1.17077 4.21289,-0.0257 l -4.03802,4.5862 c -2.09514,2.37957 -2.73546,7.86596 -0.64032,5.48639 l 8.07603,-9.1724 c 2.09514,-2.37957 4.1573,0.0375 2.06216,2.41703 l -10.77851,12.24176 c -2.09514,2.37957 -2.73546,7.86596 -0.64032,5.48639 l 12.32037,-13.99295 m 20.25763,-37.28517 -1.9407,2.20417 m -44.77431,55.61189 -26.78786,30.4245 c -2.09514,2.37957 2.04741,2.43378 4.14255,0.0542 l 20.34694,-23.10919 c 2.09514,-2.37957 0.55283,4.13126 -1.54231,6.51083 l -14.04649,15.9534 c -2.09514,2.37957 4.96908,-0.88452 7.06422,-3.26409 l 4.88606,-5.54938 m 17.86223,-20.28715 24.9862,-28.37826 c 2.09514,-2.37957 6.83008,-2.99817 4.73494,-0.6186 l -28.79011,32.69857 c -2.09514,2.37957 -2.73546,7.86596 -0.64032,5.48639 l 11.82836,-13.43415 c 2.09514,-2.37957 0.41158,4.29168 -1.68356,6.67125 l -10.78512,12.24928 c -2.09514,2.37957 -2.73546,7.86596 -0.64032,5.48639 l 10.78145,-12.24511 c 2.09514,-2.37957 1.44851,3.11399 -0.64663,5.49356 l -10.77514,12.23794 c -2.09514,2.37957 0.0862,4.6612 2.18137,2.28163 l 7.94713,-9.02601 c 2.09514,-2.37957 1.4485,3.11399 -0.64664,5.49356 l -3.97356,4.513 c -0.91378,1.03783 3.29917,1.01209 4.21295,-0.0257 l 0.68533,-0.77837 m 15.69229,-46.37747 9.00427,-10.22667 c 2.09514,-2.37957 4.98968,-0.90793 2.89454,1.47164 l -7.00582,7.95691 c -2.09513,2.37957 -0.0737,4.84288 2.02142,2.46331 l 7.20363,-8.18158 c 2.09514,-2.37957 3.71025,0.54519 1.61511,2.92476 l -7.83629,8.90013 c -2.09514,2.37957 -2.2388,7.30187 -0.14366,4.9223 l 9.04215,-10.26968 c 2.09514,-2.37957 2.55145,1.86131 0.45631,4.24088 l -10.10765,11.47984 c -2.09514,2.37957 -2.73038,7.86018 -0.63524,5.48061 l 10.65804,-12.10494 c 2.09514,-2.37957 1.82082,2.69113 -0.27432,5.0707 l -11.01895,12.51485 c -2.09514,2.37957 -2.73037,7.86018 -0.63523,5.48061 l 10.77722,-12.2403 c 2.09513,-2.37957 1.45305,3.10882 -0.64209,5.48839 l -10.77037,12.23252 c -2.09514,2.37957 -2.73037,7.86018 -0.63523,5.48061 l 10.76352,-12.22474 c 2.09514,-2.37957 1.45306,3.10882 -0.64208,5.48839 l -8.51591,9.672 c -2.09514,2.37957 2.1178,2.35383 4.21294,-0.0257 l 4.25796,-4.83601 c 1.29904,-1.47539 0.65696,4.013 -0.64208,5.48839 l -0.97428,1.10655"
         transform="matrix(0.26788954,0,0,0.23586867,83.048266,-33.665268)"
         id="path261" />
    </g>
  </g>
</svg>
