<svg data-v-fde0c5aa="" xmlns="http://www.w3.org/2000/svg" viewBox="0 0 300 300" class="iconLeftSlogan"><!----><defs data-v-fde0c5aa=""><linearGradient data-v-fde0c5aa="" gradientTransform="rotate(25)" id="fb509da7-60f0-4976-9bb3-1efde928db1a" x1="0%" y1="0%" x2="100%" y2="0%"><stop data-v-fde0c5aa="" offset="0%" stop-color="#0D7CE9" stop-opacity="1"></stop><stop data-v-fde0c5aa="" offset="100%" stop-color="#15CFF1" stop-opacity="1"></stop></linearGradient></defs><rect data-v-fde0c5aa="" fill="url(#fb509da7-60f0-4976-9bb3-1efde928db1a)" x="0" y="0" width="300px" height="300px" class="logo-background-square"></rect><defs data-v-fde0c5aa=""><!----></defs><g data-v-fde0c5aa="" id="63e19380-681c-4b00-b511-79a81030b7a6" fill="#ffffff" transform="matrix(2.4362728595733643,0,0,2.4362728595733643,121.18117706804004,114.37040935268375)"><path d="M3.81 7.28L3.81 7.28L3.81 7.28Q3.75 7.08 3.72 6.82L3.72 6.82L3.72 6.82Q3.68 6.57 3.68 6.06L3.68 6.06L3.68 6.06Q3.68 5.74 3.70 5.41L3.70 5.41L3.70 5.41Q3.71 5.08 3.82 4.84L3.82 4.84L3.82 4.84Q4.51 4.97 5.29 5.07L5.29 5.07L5.29 5.07Q6.06 5.18 6.87 5.26L6.87 5.26L6.87 5.26Q7.69 5.35 8.50 5.40L8.50 5.40L8.50 5.40Q9.31 5.45 10.07 5.45L10.07 5.45L10.07 5.45Q11.10 5.45 11.73 5.36L11.73 5.36L11.73 5.36Q11.96 5.67 12.01 6.09L12.01 6.09L12.01 6.09Q12.07 6.51 12.07 6.87L12.07 6.87L12.07 6.87Q10.46 7.53 9.02 8.55L9.02 8.55L9.02 8.55Q7.57 9.56 6.40 10.67L6.40 10.67L6.40 10.67Q5.22 11.77 4.37 12.85L4.37 12.85L4.37 12.85Q3.51 13.93 3.09 14.73L3.09 14.73L3.09 14.73Q3.35 14.69 3.61 14.65L3.61 14.65L3.61 14.65Q3.88 14.62 4.19 14.59L4.19 14.59L4.19 14.59Q4.49 14.56 4.87 14.53L4.87 14.53L4.87 14.53Q5.25 14.50 5.74 14.48L5.74 14.48L5.74 14.48Q6.43 14.43 6.94 14.33L6.94 14.33L6.94 14.33Q7.46 14.22 7.83 14.11L7.83 14.11L7.83 14.11Q8.19 13.99 8.41 13.88L8.41 13.88L8.41 13.88Q8.62 13.78 8.72 13.71L8.72 13.71L8.72 13.71Q8.78 13.83 8.86 14.08L8.86 14.08L8.86 14.08Q8.93 14.34 9.00 14.64L9.00 14.64L9.00 14.64Q9.06 14.94 9.10 15.25L9.10 15.25L9.10 15.25Q9.14 15.57 9.14 15.83L9.14 15.83L9.14 15.83Q9.14 15.97 9.13 16.02L9.13 16.02L9.13 16.02Q9.13 16.07 9.11 16.13L9.11 16.13L9.11 16.13Q8.48 16.09 7.85 16.03L7.85 16.03L7.85 16.03Q7.21 15.97 6.58 15.97L6.58 15.97L6.58 15.97Q5.74 15.97 4.84 16.07L4.84 16.07L4.84 16.07Q3.93 16.16 3.10 16.34L3.10 16.34L3.10 16.34Q2.27 16.53 1.57 16.83L1.57 16.83L1.57 16.83Q0.88 17.12 0.46 17.53L0.46 17.53L0.46 17.53Q0.35 17.16 0.23 16.91L0.23 16.91L0.23 16.91Q0.11 16.65 0.11 16.28L0.11 16.28L0.11 16.28Q0.11 15.92 0.26 15.70L0.26 15.70L0.26 15.70Q0.41 15.48 0.66 15.34L0.66 15.34L0.66 15.34Q1.50 14.14 2.57 12.96L2.57 12.96L2.57 12.96Q3.64 11.77 4.86 10.67L4.86 10.67L4.86 10.67Q6.08 9.56 7.38 8.56L7.38 8.56L7.38 8.56Q8.68 7.56 9.98 6.73L9.98 6.73L9.98 6.73Q9.14 6.69 8.20 6.69L8.20 6.69L8.20 6.69Q7.55 6.69 6.90 6.72L6.90 6.72L6.90 6.72Q6.26 6.75 5.68 6.81L5.68 6.81L5.68 6.81Q5.11 6.87 4.63 6.99L4.63 6.99L4.63 6.99Q4.14 7.11 3.81 7.28ZM14.74 14.87L14.74 14.87L14.74 14.87Q14.48 14.64 14.39 14.31L14.39 14.31L14.39 14.31Q14.29 13.97 14.29 13.73L14.29 13.73L14.29 13.73Q14.29 13.44 14.36 13.23L14.36 13.23L14.36 13.23Q14.31 13.23 14.11 13.45L14.11 13.45L14.11 13.45Q13.92 13.68 13.69 13.99L13.69 13.99L13.69 13.99Q13.45 14.29 13.23 14.59L13.23 14.59L13.23 14.59Q13.01 14.88 12.89 15.02L12.89 15.02L12.89 15.02Q12.71 15.22 12.55 15.33L12.55 15.33L12.55 15.33Q12.39 15.44 12.29 15.46L12.29 15.46L12.29 15.46Q12.07 15.44 11.82 15.37L11.82 15.37L11.82 15.37Q11.58 15.29 11.36 15.15L11.36 15.15L11.36 15.15Q11.14 15.01 10.98 14.81L10.98 14.81L10.98 14.81Q10.82 14.62 10.77 14.36L10.77 14.36L10.77 14.36Q10.77 13.97 10.79 13.72L10.79 13.72L10.79 13.72Q10.81 13.47 10.88 13.17L10.88 13.17L10.88 13.17Q11.00 12.64 11.25 11.97L11.25 11.97L11.25 11.97Q11.49 11.30 11.82 10.65L11.82 10.65L11.82 10.65Q12.14 10.00 12.54 9.43L12.54 9.43L12.54 9.43Q12.94 8.86 13.38 8.54L13.38 8.54L13.38 8.54Q13.51 8.54 13.68 8.56L13.68 8.56L13.68 8.56Q13.85 8.58 14.02 8.64L14.02 8.64L14.02 8.64Q14.20 8.69 14.36 8.77L14.36 8.77L14.36 8.77Q14.52 8.85 14.63 8.97L14.63 8.97L14.63 8.97Q14.50 9.11 13.99 9.91L13.99 9.91L13.99 9.91Q13.48 10.71 12.85 12.21L12.85 12.21L12.85 12.21Q12.78 12.36 12.68 12.66L12.68 12.66L12.68 12.66Q12.59 12.95 12.49 13.27L12.49 13.27L12.49 13.27Q12.39 13.59 12.33 13.90L12.33 13.90L12.33 13.90Q12.26 14.21 12.26 14.39L12.26 14.39L12.26 14.39Q12.26 14.50 12.30 14.56L12.30 14.56L12.30 14.56Q12.33 14.62 12.36 14.64L12.36 14.64L12.36 14.64Q12.57 14.56 12.89 14.18L12.89 14.18L12.89 14.18Q13.22 13.80 13.79 13.02L13.79 13.02L13.79 13.02Q13.93 12.82 14.12 12.57L14.12 12.57L14.12 12.57Q14.31 12.32 14.50 12.03L14.50 12.03L14.50 12.03Q14.70 11.75 14.88 11.44L14.88 11.44L14.88 11.44Q15.05 11.13 15.16 10.82L15.16 10.82L15.16 10.82Q15.22 10.65 15.31 10.42L15.31 10.42L15.31 10.42Q15.40 10.19 15.53 9.94L15.53 9.94L15.53 9.94Q15.67 9.69 15.84 9.43L15.84 9.43L15.84 9.43Q16.02 9.17 16.25 8.95L16.25 8.95L16.25 8.95Q16.44 8.95 16.65 8.99L16.65 8.99L16.65 8.99Q16.86 9.03 17.05 9.09L17.05 9.09L17.05 9.09Q17.23 9.16 17.37 9.23L17.37 9.23L17.37 9.23Q17.51 9.31 17.58 9.39L17.58 9.39L17.58 9.39Q17.33 10.01 17.02 10.61L17.02 10.61L17.02 10.61Q16.72 11.21 16.45 11.79L16.45 11.79L16.45 11.79Q16.18 12.38 16.00 12.95L16.00 12.95L16.00 12.95Q15.82 13.52 15.82 14.07L15.82 14.07L15.82 14.07Q15.82 14.36 15.87 14.58L15.87 14.58L15.87 14.58Q15.92 14.80 15.97 14.95L15.97 14.95L15.97 14.95Q16.03 15.09 16.08 15.19L16.08 15.19L16.08 15.19Q16.13 15.29 16.13 15.36L16.13 15.36L16.13 15.36Q16.13 15.37 16.10 15.40L16.10 15.40L16.10 15.40Q16.09 15.41 16.07 15.41L16.07 15.41L16.07 15.41Q15.97 15.41 15.82 15.37L15.82 15.37L15.82 15.37Q15.67 15.33 15.48 15.25L15.48 15.25L15.48 15.25Q15.29 15.18 15.10 15.08L15.10 15.08L15.10 15.08Q14.91 14.98 14.74 14.87ZM20.12 8.39L20.12 8.39L20.12 8.39Q20.48 8.50 20.80 8.88L20.80 8.88L20.80 8.88Q21.13 9.27 21.28 9.73L21.28 9.73L21.28 9.73Q21.13 10.11 20.80 10.64L20.80 10.64L20.80 10.64Q20.48 11.17 20.16 11.72L20.16 11.72L20.16 11.72Q19.84 12.28 19.58 12.78L19.58 12.78L19.58 12.78Q19.32 13.27 19.28 13.59L19.28 13.59L19.28 13.59Q19.50 13.36 19.78 13.04L19.78 13.04L19.78 13.04Q20.05 12.73 20.31 12.41L20.31 12.41L20.31 12.41Q20.57 12.10 20.79 11.84L20.79 11.84L20.79 11.84Q21.01 11.58 21.14 11.45L21.14 11.45L21.14 11.45Q21.41 11.17 21.77 10.80L21.77 10.80L21.77 10.80Q22.13 10.43 22.53 10.10L22.53 10.10L22.53 10.10Q22.93 9.77 23.34 9.54L23.34 9.54L23.34 9.54Q23.74 9.31 24.08 9.31L24.08 9.31L24.08 9.31Q24.44 9.31 24.69 9.55L24.69 9.55L24.69 9.55Q24.93 9.80 25.07 10.07L25.07 10.07L25.07 10.07Q25.07 10.09 24.97 10.14L24.97 10.14L24.97 10.14Q24.86 10.19 24.67 10.42L24.67 10.42L24.67 10.42Q24.47 10.67 24.23 11.11L24.23 11.11L24.23 11.11Q23.98 11.55 23.75 12.06L23.75 12.06L23.75 12.06Q23.52 12.57 23.37 13.10L23.37 13.10L23.37 13.10Q23.21 13.64 23.21 14.07L23.21 14.07L23.21 14.07Q23.21 14.42 23.30 14.52L23.30 14.52L23.30 14.52Q23.39 14.62 23.56 14.62L23.56 14.62L23.56 14.62Q23.72 14.62 23.88 14.55L23.88 14.55L23.88 14.55Q24.05 14.48 24.15 14.48L24.15 14.48L24.15 14.48Q24.21 14.50 24.24 14.60L24.24 14.60L24.24 14.60Q24.28 14.69 24.28 14.76L24.28 14.76L24.28 14.76Q24.16 14.85 24.01 14.95L24.01 14.95L24.01 14.95Q23.86 15.05 23.69 15.13L23.69 15.13L23.69 15.13Q23.52 15.22 23.36 15.27L23.36 15.27L23.36 15.27Q23.20 15.33 23.07 15.33L23.07 15.33L23.07 15.33Q22.67 15.33 22.41 15.21L22.41 15.21L22.41 15.21Q22.15 15.09 22.00 14.90L22.00 14.90L22.00 14.90Q21.85 14.70 21.80 14.43L21.80 14.43L21.80 14.43Q21.74 14.15 21.74 13.85L21.74 13.85L21.74 13.85Q21.74 13.68 21.77 13.47L21.77 13.47L21.77 13.47Q21.80 13.26 21.88 12.97L21.88 12.97L21.88 12.97Q21.97 12.68 22.12 12.29L22.12 12.29L22.12 12.29Q22.27 11.89 22.51 11.33L22.51 11.33L22.51 11.33Q22.48 11.33 22.13 11.52L22.13 11.52L22.13 11.52Q21.78 11.72 21.38 12.12L21.38 12.12L21.38 12.12Q20.72 12.75 20.20 13.37L20.20 13.37L20.20 13.37Q19.67 13.99 19.12 14.74L19.12 14.74L19.12 14.74Q18.82 15.18 18.59 15.48L18.59 15.48L18.59 15.48Q18.35 15.78 18.19 15.88L18.19 15.88L18.19 15.88Q17.89 15.71 17.75 15.41L17.75 15.41L17.75 15.41Q17.61 15.11 17.54 14.78L17.54 14.78L17.54 14.78Q17.54 14.52 17.62 14.11L17.62 14.11L17.62 14.11Q17.70 13.71 17.83 13.21L17.83 13.21L17.83 13.21Q17.96 12.71 18.16 12.17L18.16 12.17L18.16 12.17Q18.35 11.62 18.59 11.07L18.59 11.07L18.59 11.07Q19.12 9.84 19.57 9.14L19.57 9.14L19.57 9.14Q20.01 8.44 20.12 8.39ZM25.42 14.24L25.42 14.24L25.42 14.24Q25.42 14.11 25.45 13.92L25.45 13.92L25.45 13.92Q25.47 13.73 25.52 13.42L25.52 13.42L25.52 13.42Q25.58 13.10 25.67 12.66L25.67 12.66L25.67 12.66Q25.76 12.21 25.90 11.58L25.90 11.58L25.90 11.58Q25.93 11.44 26.03 11.13L26.03 11.13L26.03 11.13Q26.12 10.82 26.29 10.48L26.29 10.48L26.29 10.48Q26.45 10.14 26.68 9.81L26.68 9.81L26.68 9.81Q26.91 9.49 27.23 9.34L27.23 9.34L27.23 9.34Q27.47 9.39 27.86 9.63L27.86 9.63L27.86 9.63Q28.25 9.86 28.53 10.26L28.53 10.26L28.53 10.26Q28.21 10.63 27.99 10.99L27.99 10.99L27.99 10.99Q27.78 11.35 27.60 11.75L27.60 11.75L27.60 11.75Q27.43 12.14 27.28 12.56L27.28 12.56L27.28 12.56Q27.13 12.98 26.95 13.44L26.95 13.44L26.95 13.44Q26.80 13.83 26.67 14.25L26.67 14.25L26.67 14.25Q26.54 14.66 26.53 14.97L26.53 14.97L26.53 14.97Q26.53 15.22 26.52 15.32L26.52 15.32L26.52 15.32Q26.52 15.43 26.45 15.43L26.45 15.43L26.45 15.43Q26.39 15.43 26.22 15.36L26.22 15.36L26.22 15.36Q26.05 15.29 25.88 15.14L25.88 15.14L25.88 15.14Q25.70 14.99 25.56 14.77L25.56 14.77L25.56 14.77Q25.42 14.55 25.42 14.24ZM28.10 8.16L28.10 8.16L28.10 8.16Q28.10 8.08 28.14 7.91L28.14 7.91L28.14 7.91Q28.07 7.84 28.02 7.70L28.02 7.70L28.02 7.70Q27.97 7.56 27.97 7.45L27.97 7.45L27.97 7.45Q27.97 7.32 28.01 7.11L28.01 7.11L28.01 7.11Q28.04 6.89 28.10 6.64L28.10 6.64L28.10 6.64Q28.15 6.38 28.24 6.11L28.24 6.11L28.24 6.11Q28.32 5.84 28.41 5.61L28.41 5.61L28.41 5.61Q28.57 5.61 28.82 5.71L28.82 5.71L28.82 5.71Q29.06 5.80 29.32 5.94L29.32 5.94L29.32 5.94Q29.57 6.09 29.78 6.27L29.78 6.27L29.78 6.27Q29.99 6.44 30.10 6.59L30.10 6.59L30.10 6.59Q29.95 6.75 29.69 7.02L29.69 7.02L29.69 7.02Q29.44 7.29 29.20 7.59L29.20 7.59L29.20 7.59Q28.97 7.90 28.77 8.16L28.77 8.16L28.77 8.16Q28.57 8.43 28.52 8.54L28.52 8.54L28.52 8.54Q28.35 8.51 28.22 8.39L28.22 8.39L28.22 8.39Q28.10 8.27 28.10 8.16ZM33.07 15.09L33.07 15.09L33.07 15.09Q32.91 15.33 32.59 15.48L32.59 15.48L32.59 15.48Q32.26 15.62 31.96 15.65L31.96 15.65L31.96 15.65Q31.72 15.37 31.43 14.89L31.43 14.89L31.43 14.89Q31.14 14.41 30.87 13.76L30.87 13.76L30.87 13.76Q30.16 14.41 29.44 14.93L29.44 14.93L29.44 14.93Q28.73 15.46 28.11 15.82L28.11 15.82L28.11 15.82Q27.96 15.79 27.86 15.65L27.86 15.65L27.86 15.65Q27.76 15.51 27.75 15.29L27.75 15.29L27.75 15.29Q28.03 15.13 28.41 14.88L28.41 14.88L28.41 14.88Q28.80 14.63 29.20 14.33L29.20 14.33L29.20 14.33Q29.60 14.03 29.97 13.70L29.97 13.70L29.97 13.70Q30.34 13.37 30.60 13.06L30.60 13.06L30.60 13.06Q30.37 12.50 30.16 11.91L30.16 11.91L30.16 11.91Q29.96 11.31 29.81 10.76L29.81 10.76L29.81 10.76Q29.67 10.21 29.58 9.75L29.58 9.75L29.58 9.75Q29.50 9.30 29.50 9.02L29.50 9.02L29.50 9.02Q29.50 8.82 29.55 8.76L29.55 8.76L29.55 8.76Q29.60 8.69 29.78 8.69L29.78 8.69L29.78 8.69Q29.92 8.69 30.12 8.72L30.12 8.72L30.12 8.72Q30.32 8.75 30.53 8.79L30.53 8.79L30.53 8.79Q30.74 8.83 30.95 8.88L30.95 8.88L30.95 8.88Q31.16 8.93 31.32 8.99L31.32 8.99L31.32 8.99Q31.29 9.14 31.29 9.25L31.29 9.25L31.29 9.25Q31.29 9.37 31.29 9.58L31.29 9.58L31.29 9.58Q31.29 10.12 31.38 10.69L31.38 10.69L31.38 10.69Q31.47 11.26 31.68 11.91L31.68 11.91L31.68 11.91Q32.26 11.26 32.75 10.45L32.75 10.45L32.75 10.45Q33.24 9.65 33.74 8.53L33.74 8.53L33.74 8.53Q34.09 8.60 34.34 8.73L34.34 8.73L34.34 8.73Q34.59 8.86 34.66 9.02L34.66 9.02L34.66 9.02Q34.51 9.66 33.80 10.64L33.80 10.64L33.80 10.64Q33.08 11.62 31.98 12.73L31.98 12.73L31.98 12.73Q32.17 13.26 32.45 13.85L32.45 13.85L32.45 13.85Q32.73 14.45 33.07 15.09ZM40.19 14.36L40.19 14.36L40.19 14.36Q40.19 13.78 40.39 12.85L40.39 12.85L40.39 12.85Q40.59 11.93 40.91 10.88L40.91 10.88L40.91 10.88Q39.98 10.95 39.05 11.06L39.05 11.06L39.05 11.06Q38.12 11.17 37.44 11.19L37.44 11.19L37.44 11.19Q36.81 12.66 36.44 13.89L36.44 13.89L36.44 13.89Q36.06 15.13 35.85 16.31L35.85 16.31L35.85 16.31Q35.32 16.18 34.97 15.87L34.97 15.87L34.97 15.87Q34.62 15.55 34.33 15.08L34.33 15.08L34.33 15.08Q34.44 14.85 34.59 14.50L34.59 14.50L34.59 14.50Q34.73 14.15 34.94 13.66L34.94 13.66L34.94 13.66Q35.14 13.16 35.40 12.50L35.40 12.50L35.40 12.50Q35.66 11.83 35.99 10.95L35.99 10.95L35.99 10.95Q35.53 10.75 35.38 10.40L35.38 10.40L35.38 10.40Q35.45 10.35 35.69 10.28L35.69 10.28L35.69 10.28Q35.94 10.22 36.30 10.15L36.30 10.15L36.48 9.70L36.48 9.70Q36.78 8.95 36.97 8.43L36.97 8.43L36.97 8.43Q37.16 7.91 37.29 7.41L37.29 7.41L37.29 7.41Q37.42 6.92 37.54 6.31L37.54 6.31L37.54 6.31Q37.66 5.71 37.83 4.79L37.83 4.79L37.83 4.79Q38.42 4.90 38.90 5.31L38.90 5.31L38.90 5.31Q39.38 5.71 39.73 6.29L39.73 6.29L39.73 6.29Q39.61 6.45 39.42 6.79L39.42 6.79L39.42 6.79Q39.24 7.13 39.02 7.59L39.02 7.59L39.02 7.59Q38.81 8.06 38.56 8.64L38.56 8.64L38.56 8.64Q38.30 9.23 38.01 9.87L38.01 9.87L38.01 9.87Q38.88 9.76 39.77 9.66L39.77 9.66L39.77 9.66Q40.66 9.56 41.34 9.52L41.34 9.52L41.34 9.52Q41.59 8.79 41.87 8.10L41.87 8.10L41.87 8.10Q42.14 7.41 42.41 6.83L42.41 6.83L42.41 6.83Q42.67 6.26 42.92 5.82L42.92 5.82L42.92 5.82Q43.16 5.39 43.36 5.18L43.36 5.18L43.36 5.18Q43.50 5.19 43.73 5.29L43.73 5.29L43.73 5.29Q43.96 5.38 44.20 5.50L44.20 5.50L44.20 5.50Q44.44 5.63 44.63 5.78L44.63 5.78L44.63 5.78Q44.83 5.92 44.90 6.05L44.90 6.05L44.90 6.05Q44.65 6.29 44.39 6.66L44.39 6.66L44.39 6.66Q44.14 7.04 43.90 7.53L43.90 7.53L43.90 7.53Q43.65 8.02 43.41 8.60L43.41 8.60L43.41 8.60Q43.18 9.17 42.97 9.79L42.97 9.79L42.97 9.79Q43.25 10.04 43.25 10.42L43.25 10.42L43.25 10.42Q43.25 10.68 43.13 10.91L43.13 10.91L43.13 10.91Q43.01 10.88 42.88 10.87L42.88 10.87L42.88 10.87Q42.76 10.86 42.62 10.85L42.62 10.85L42.62 10.85Q42.38 11.61 42.18 12.35L42.18 12.35L42.18 12.35Q41.99 13.09 41.85 13.76L41.85 13.76L41.85 13.76Q41.72 14.43 41.64 14.99L41.64 14.99L41.64 14.99Q41.57 15.55 41.57 15.93L41.57 15.93L41.57 15.93Q41.57 16.07 41.57 16.16L41.57 16.16L41.57 16.16Q41.58 16.24 41.59 16.30L41.59 16.30L41.59 16.30Q41.29 16.28 41.15 16.19L41.15 16.19L41.15 16.19Q41.01 16.10 40.94 16.00L40.94 16.00L40.94 16.00Q40.87 15.89 40.81 15.79L40.81 15.79L40.81 15.79Q40.75 15.68 40.63 15.62L40.63 15.62L40.63 15.62Q40.53 15.58 40.45 15.43L40.45 15.43L40.45 15.43Q40.36 15.27 40.31 15.08L40.31 15.08L40.31 15.08Q40.25 14.88 40.22 14.69L40.22 14.69L40.22 14.69Q40.19 14.49 40.19 14.36ZM47.67 14.87L47.67 14.87L47.67 14.87Q47.40 14.64 47.31 14.31L47.31 14.31L47.31 14.31Q47.22 13.97 47.22 13.73L47.22 13.73L47.22 13.73Q47.22 13.44 47.29 13.23L47.29 13.23L47.29 13.23Q47.24 13.23 47.04 13.45L47.04 13.45L47.04 13.45Q46.84 13.68 46.61 13.99L46.61 13.99L46.61 13.99Q46.38 14.29 46.16 14.59L46.16 14.59L46.16 14.59Q45.93 14.88 45.82 15.02L45.82 15.02L45.82 15.02Q45.64 15.22 45.48 15.33L45.48 15.33L45.48 15.33Q45.32 15.44 45.22 15.46L45.22 15.46L45.22 15.46Q45.00 15.44 44.75 15.37L44.75 15.37L44.75 15.37Q44.51 15.29 44.29 15.15L44.29 15.15L44.29 15.15Q44.07 15.01 43.91 14.81L43.91 14.81L43.91 14.81Q43.75 14.62 43.69 14.36L43.69 14.36L43.69 14.36Q43.69 13.97 43.72 13.72L43.72 13.72L43.72 13.72Q43.74 13.47 43.81 13.17L43.81 13.17L43.81 13.17Q43.93 12.64 44.18 11.97L44.18 11.97L44.18 11.97Q44.42 11.30 44.74 10.65L44.74 10.65L44.74 10.65Q45.07 10.00 45.47 9.43L45.47 9.43L45.47 9.43Q45.86 8.86 46.31 8.54L46.31 8.54L46.31 8.54Q46.44 8.54 46.61 8.56L46.61 8.56L46.61 8.56Q46.77 8.58 46.95 8.64L46.95 8.64L46.95 8.64Q47.12 8.69 47.29 8.77L47.29 8.77L47.29 8.77Q47.45 8.85 47.56 8.97L47.56 8.97L47.56 8.97Q47.43 9.11 46.92 9.91L46.92 9.91L46.92 9.91Q46.41 10.71 45.78 12.21L45.78 12.21L45.78 12.21Q45.71 12.36 45.61 12.66L45.61 12.66L45.61 12.66Q45.51 12.95 45.42 13.27L45.42 13.27L45.42 13.27Q45.32 13.59 45.26 13.90L45.26 13.90L45.26 13.90Q45.19 14.21 45.19 14.39L45.19 14.39L45.19 14.39Q45.19 14.50 45.23 14.56L45.23 14.56L45.23 14.56Q45.26 14.62 45.29 14.64L45.29 14.64L45.29 14.64Q45.50 14.56 45.82 14.18L45.82 14.18L45.82 14.18Q46.14 13.80 46.72 13.02L46.72 13.02L46.72 13.02Q46.86 12.82 47.05 12.57L47.05 12.57L47.05 12.57Q47.24 12.32 47.43 12.03L47.43 12.03L47.43 12.03Q47.63 11.75 47.80 11.44L47.80 11.44L47.80 11.44Q47.98 11.13 48.09 10.82L48.09 10.82L48.09 10.82Q48.15 10.65 48.24 10.42L48.24 10.42L48.24 10.42Q48.33 10.19 48.46 9.94L48.46 9.94L48.46 9.94Q48.59 9.69 48.77 9.43L48.77 9.43L48.77 9.43Q48.94 9.17 49.18 8.95L49.18 8.95L49.18 8.95Q49.36 8.95 49.57 8.99L49.57 8.99L49.57 8.99Q49.78 9.03 49.97 9.09L49.97 9.09L49.97 9.09Q50.16 9.16 50.30 9.23L50.30 9.23L50.30 9.23Q50.44 9.31 50.51 9.39L50.51 9.39L50.51 9.39Q50.26 10.01 49.95 10.61L49.95 10.61L49.95 10.61Q49.64 11.21 49.38 11.79L49.38 11.79L49.38 11.79Q49.11 12.38 48.93 12.95L48.93 12.95L48.93 12.95Q48.75 13.52 48.75 14.07L48.75 14.07L48.75 14.07Q48.75 14.36 48.80 14.58L48.80 14.58L48.80 14.58Q48.85 14.80 48.90 14.95L48.90 14.95L48.90 14.95Q48.96 15.09 49.01 15.19L49.01 15.19L49.01 15.19Q49.06 15.29 49.06 15.36L49.06 15.36L49.06 15.36Q49.06 15.37 49.03 15.40L49.03 15.40L49.03 15.40Q49.01 15.41 49.00 15.41L49.00 15.41L49.00 15.41Q48.90 15.41 48.75 15.37L48.75 15.37L48.75 15.37Q48.59 15.33 48.41 15.25L48.41 15.25L48.41 15.25Q48.22 15.18 48.03 15.08L48.03 15.08L48.03 15.08Q47.84 14.98 47.67 14.87ZM52.01 15.27L52.01 15.27L52.01 15.27Q52.65 14.84 53.27 14.16L53.27 14.16L53.27 14.16Q53.89 13.48 54.39 12.69L54.39 12.69L54.39 12.69Q54.89 11.90 55.24 11.05L55.24 11.05L55.24 11.05Q55.59 10.19 55.72 9.41L55.72 9.41L55.72 9.41Q55.72 9.24 55.54 9.18L55.54 9.18L55.54 9.18Q55.34 9.18 55.00 9.53L55.00 9.53L55.00 9.53Q54.66 9.87 54.24 10.40L54.24 10.40L54.24 10.40Q53.83 10.93 53.40 11.59L53.40 11.59L53.40 11.59Q52.98 12.25 52.63 12.90L52.63 12.90L52.63 12.90Q52.28 13.55 52.03 14.12L52.03 14.12L52.03 14.12Q51.79 14.69 51.76 15.04L51.76 15.04L51.76 15.04Q51.62 15.04 51.52 14.76L51.52 14.76L51.52 14.76Q51.49 14.69 51.42 14.61L51.42 14.61L51.42 14.61Q51.35 14.53 51.20 14.42L51.20 14.42L51.20 14.42Q51.13 14.36 51.06 14.29L51.06 14.29L51.06 14.29Q50.99 14.21 50.96 14.15L50.96 14.15L50.96 14.15Q50.90 14.04 50.90 13.79L50.90 13.79L50.90 13.79Q50.90 12.96 51.11 11.93L51.11 11.93L51.11 11.93Q51.32 10.89 51.67 9.81L51.67 9.81L51.67 9.81Q52.01 8.74 52.47 7.69L52.47 7.69L52.47 7.69Q52.93 6.65 53.43 5.78L53.43 5.78L53.43 5.78Q53.93 4.91 54.43 4.31L54.43 4.31L54.43 4.31Q54.94 3.71 55.38 3.51L55.38 3.51L55.38 3.51Q55.52 3.56 55.72 3.65L55.72 3.65L55.72 3.65Q55.92 3.75 56.11 3.88L56.11 3.88L56.11 3.88Q56.31 4.00 56.48 4.13L56.48 4.13L56.48 4.13Q56.66 4.26 56.74 4.35L56.74 4.35L56.74 4.35Q55.20 5.60 54.08 7.55L54.08 7.55L54.08 7.55Q52.95 9.51 52.23 12.17L52.23 12.17L52.23 12.17Q52.63 11.44 53.12 10.76L53.12 10.76L53.12 10.76Q53.61 10.08 54.09 9.56L54.09 9.56L54.09 9.56Q54.57 9.04 55.01 8.74L55.01 8.74L55.01 8.74Q55.45 8.43 55.75 8.43L55.75 8.43L55.75 8.43Q55.97 8.48 56.18 8.62L56.18 8.62L56.18 8.62Q56.39 8.76 56.56 8.97L56.56 8.97L56.56 8.97Q56.73 9.17 56.84 9.40L56.84 9.40L56.84 9.40Q56.95 9.63 56.98 9.88L56.98 9.88L56.98 9.88Q56.97 10.47 56.78 11.14L56.78 11.14L56.78 11.14Q56.59 11.80 56.27 12.45L56.27 12.45L56.27 12.45Q55.96 13.09 55.56 13.68L55.56 13.68L55.56 13.68Q55.16 14.27 54.72 14.71L54.72 14.71L54.72 14.71Q54.28 15.15 53.84 15.41L53.84 15.41L53.84 15.41Q53.40 15.68 53.00 15.68L53.00 15.68L53.00 15.68Q52.84 15.68 52.66 15.64L52.66 15.64L52.66 15.64Q52.49 15.61 52.34 15.55L52.34 15.55L52.34 15.55Q52.19 15.48 52.10 15.41L52.10 15.41L52.10 15.41Q52.01 15.34 52.01 15.27Z"></path></g><defs data-v-fde0c5aa=""><!----></defs><g data-v-fde0c5aa="" id="c70dfe06-b07a-4a80-b18e-98346bff6398" stroke="none" fill="#ffffff" transform="matrix(0.8488081097602844,0,0,0.8488081097602844,32.07215728916478,107.73911470360537)"><switch><g><path d="M89.141 35.617C86.25 22.852 77.844 14.405 68.699 10.364c11.371 10.018 21.846 29.405 8.814 47.069-5.406 7.331-16.217 10.228-20.746 8.184 0 0 7.002-1.487 11.357-5.295 8.469-8.017 11.299-20.932 4.52-32.673a25.839 25.839 0 0 0-3.357-4.575c-.018-.021-.033-.042-.051-.062-4.764-5.683-11.307-9.075-18.337-10.116-9.127-1.715-20.896.515-29.71 8.666C11.58 30.45 8.468 41.953 9.542 51.895c2.989-14.858 14.542-33.622 36.355-31.171 9.053 1.019 16.965 8.932 17.461 13.877 0 0-5.277-8.281-18.365-8.281-.24.004-.747.024-.761.024l-.167.01c-8.51.333-16.783 4.784-21.83 13.526a25.819 25.819 0 0 0-2.284 5.195l-.028.074c-2.539 6.968-2.205 14.33.407 20.938 3.079 8.763 10.896 17.841 22.361 21.397 12.502 3.878 24.02.82 32.092-5.079-14.363 4.837-36.389 4.216-45.173-15.899-3.645-8.35-.749-19.159 3.287-22.061 0 0-4.534 8.71 2.012 20.044 4.482 7.484 12.617 12.658 22.949 12.658.498 0 4.488-.311 5.926-.633l.08-.011c7.303-1.286 13.512-5.256 17.928-10.822 6.05-7.046 10.003-18.356 7.349-30.064z"></path></g></switch></g><defs data-v-fde0c5aa=""><!----></defs><g data-v-fde0c5aa="" id="b8ece3cc-15c0-4486-860d-f266f7669e2a" fill="#ffffff" transform="matrix(0.500798225402832,0,0,0.500798225402832,120.46259460127935,165.32047136594025)"><path d="M9.17 10.72L9.17 10.72L9.17 10.72Q9.53 10.72 9.74 10.98L9.74 10.98L9.74 10.98Q9.95 11.23 9.95 11.68L9.95 11.68L9.95 11.68Q9.95 11.79 9.94 11.91L9.94 11.91L9.94 11.91Q9.93 12.03 9.90 12.11L9.90 12.11L9.90 12.11Q9.60 12.04 9.25 12.03L9.25 12.03L9.25 12.03Q9.17 12.64 8.81 13.32L8.81 13.32L8.81 13.32Q8.44 14 7.92 14.60L7.92 14.60L7.92 14.60Q7.41 15.19 6.79 15.64L6.79 15.64L6.79 15.64Q6.17 16.09 5.57 16.24L5.57 16.24L5.57 16.24Q3.70 16.20 2.83 15.27L2.83 15.27L2.83 15.27Q1.97 14.34 1.97 12.36L1.97 12.36L1.97 12.36Q1.97 10.92 2.51 9.57L2.51 9.57L2.51 9.57Q3.04 8.22 3.92 7.17L3.92 7.17L3.92 7.17Q4.80 6.12 5.94 5.48L5.94 5.48L5.94 5.48Q7.08 4.84 8.32 4.84L8.32 4.84L8.32 4.84Q9.28 4.84 9.82 5.25L9.82 5.25L9.82 5.25Q10.36 5.66 10.36 6.40L10.36 6.40L10.36 6.40Q10.36 6.89 10.13 7.31L10.13 7.31L10.13 7.31Q9.90 7.73 9.37 8.22L9.37 8.22L9.37 8.22Q9.04 8.12 8.81 7.88L8.81 7.88L8.81 7.88Q8.57 7.63 8.51 7.31L8.51 7.31L8.51 7.31Q8.99 6.96 9.18 6.66L9.18 6.66L9.18 6.66Q9.38 6.37 9.38 5.96L9.38 5.96L9.38 5.96Q9.38 5.32 8.61 5.32L8.61 5.32L8.61 5.32Q7.98 5.32 7.26 5.79L7.26 5.79L7.26 5.79Q6.54 6.26 5.81 7.14L5.81 7.14L5.81 7.14Q4.77 8.39 4.30 9.71L4.30 9.71L4.30 9.71Q3.82 11.03 3.82 12.68L3.82 12.68L3.82 12.68Q3.82 13.30 3.95 13.80L3.95 13.80L3.95 13.80Q4.07 14.31 4.28 14.69L4.28 14.69L4.28 14.69Q4.49 15.06 4.78 15.29L4.78 15.29L4.78 15.29Q5.07 15.51 5.40 15.54L5.40 15.54L5.40 15.54Q5.85 15.44 6.30 15.09L6.30 15.09L6.30 15.09Q6.75 14.73 7.12 14.25L7.12 14.25L7.12 14.25Q7.49 13.76 7.75 13.21L7.75 13.21L7.75 13.21Q8.01 12.66 8.06 12.15L8.06 12.15L8.06 12.15Q7.67 12.24 7.32 12.31L7.32 12.31L7.32 12.31Q6.96 12.39 6.64 12.39L6.64 12.39L6.64 12.39Q6.22 12.39 5.90 12.18L5.90 12.18L5.90 12.18Q5.59 11.97 5.47 11.61L5.47 11.61L5.47 11.61Q5.73 11.47 6.21 11.31L6.21 11.31L6.21 11.31Q6.69 11.16 7.24 11.03L7.24 11.03L7.24 11.03Q7.78 10.89 8.31 10.81L8.31 10.81L8.31 10.81Q8.83 10.72 9.17 10.72ZM22.47 9.38L22.47 9.38L22.47 9.38Q22.41 10.25 22.16 10.87L22.16 10.87L22.16 10.87Q21.91 11.49 21.44 11.96L21.44 11.96L21.44 11.96Q20.97 12.43 20.30 12.81L20.30 12.81L20.30 12.81Q19.63 13.19 18.73 13.54L18.73 13.54L18.73 13.54Q18.73 13.62 18.73 13.71L18.73 13.71L18.73 13.71Q18.72 13.80 18.72 13.90L18.72 13.90L18.72 13.90Q18.72 14.08 18.75 14.28L18.75 14.28L18.75 14.28Q18.77 14.48 18.84 14.64L18.84 14.64L18.84 14.64Q18.91 14.81 19.04 14.92L19.04 14.92L19.04 14.92Q19.17 15.02 19.36 15.02L19.36 15.02L19.36 15.02Q19.74 15.02 20.10 14.85L20.10 14.85L20.10 14.85Q20.47 14.69 20.80 14.44L20.80 14.44L20.80 14.44Q21.13 14.20 21.41 13.91L21.41 13.91L21.41 13.91Q21.70 13.62 21.92 13.38L21.92 13.38L21.92 13.38Q22.06 13.51 22.16 13.62L22.16 13.62L22.16 13.62Q21.53 14.46 20.78 15.02L20.78 15.02L20.78 15.02Q20.03 15.57 19.36 15.72L19.36 15.72L19.36 15.72Q18.40 15.61 17.86 15.02L17.86 15.02L17.86 15.02Q17.32 14.42 17.32 13.58L17.32 13.58L17.32 13.58Q17.32 13.01 17.48 12.41L17.48 12.41L17.48 12.41Q17.64 11.82 17.93 11.26L17.93 11.26L17.93 11.26Q18.21 10.71 18.60 10.22L18.60 10.22L18.60 10.22Q18.98 9.73 19.43 9.37L19.43 9.37L19.43 9.37Q19.87 9.00 20.34 8.79L20.34 8.79L20.34 8.79Q20.80 8.58 21.27 8.58L21.27 8.58L21.27 8.58Q21.91 8.67 22.47 9.38ZM21.50 9.84L21.50 9.84L21.50 9.84Q21.13 9.90 20.72 10.15L20.72 10.15L20.72 10.15Q20.31 10.40 19.96 10.82L19.96 10.82L19.96 10.82Q19.60 11.24 19.31 11.80L19.31 11.80L19.31 11.80Q19.01 12.36 18.84 13.01L18.84 13.01L18.84 13.01Q19.96 12.45 20.71 11.63L20.71 11.63L20.71 11.63Q21.45 10.81 21.50 9.84ZM31.64 9.81L30.84 9.81L30.84 9.81Q30.77 9.73 30.72 9.46L30.72 9.46L30.72 9.46Q30.66 9.18 30.66 8.99L30.66 8.99L30.66 8.99Q31.02 9.02 31.36 9.04L31.36 9.04L31.36 9.04Q31.70 9.06 31.98 9.07L31.98 9.07L31.98 9.07Q32.19 8.65 32.43 8.24L32.43 8.24L32.43 8.24Q32.68 7.83 32.91 7.48L32.91 7.48L32.91 7.48Q33.14 7.14 33.34 6.90L33.34 6.90L33.34 6.90Q33.54 6.66 33.66 6.59L33.66 6.59L33.66 6.59Q33.80 6.59 34.01 6.64L34.01 6.64L34.01 6.64Q34.23 6.69 34.45 6.77L34.45 6.77L34.45 6.77Q34.68 6.85 34.86 6.93L34.86 6.93L34.86 6.93Q35.04 7.01 35.11 7.10L35.11 7.10L35.11 7.10Q34.69 7.63 34.39 8.09L34.39 8.09L34.39 8.09Q34.09 8.54 33.74 9.13L33.74 9.13L33.74 9.13Q34.02 9.13 34.31 9.11L34.31 9.11L34.31 9.11Q34.59 9.10 34.89 9.07L34.89 9.07L34.89 9.07Q34.96 9.14 35 9.25L35 9.25L35 9.25Q35.04 9.35 35.04 9.46L35.04 9.46L35.04 9.46Q34.36 9.72 33.38 9.74L33.38 9.74L33.38 9.74Q33.03 10.42 32.75 11.08L32.75 11.08L32.75 11.08Q32.48 11.75 32.29 12.36L32.29 12.36L32.29 12.36Q32.10 12.98 32.00 13.52L32.00 13.52L32.00 13.52Q31.89 14.07 31.89 14.50L31.89 14.50L31.89 14.50Q31.89 15.12 32.35 15.19L32.35 15.19L32.35 15.19Q32.77 15.13 33.15 14.98L33.15 14.98L33.15 14.98Q33.53 14.83 33.82 14.59L33.82 14.59L33.82 14.59Q33.91 14.71 33.92 14.80L33.92 14.80L33.92 14.80Q33.84 14.92 33.64 15.09L33.64 15.09L33.64 15.09Q33.43 15.26 33.19 15.42L33.19 15.42L33.19 15.42Q32.96 15.58 32.73 15.69L32.73 15.69L32.73 15.69Q32.51 15.81 32.40 15.82L32.40 15.82L32.40 15.82Q32.05 15.81 31.70 15.67L31.70 15.67L31.70 15.67Q31.35 15.53 31.06 15.32L31.06 15.32L31.06 15.32Q30.77 15.11 30.59 14.85L30.59 14.85L30.59 14.85Q30.41 14.59 30.41 14.34L30.41 14.34L30.41 14.34Q30.41 14 30.50 13.49L30.50 13.49L30.50 13.49Q30.59 12.98 30.76 12.38L30.76 12.38L30.76 12.38Q30.93 11.77 31.15 11.12L31.15 11.12L31.15 11.12Q31.37 10.46 31.64 9.81L31.64 9.81ZM57.29 9.38L57.29 9.38L57.29 9.38Q57.23 10.25 56.98 10.87L56.98 10.87L56.98 10.87Q56.73 11.49 56.26 11.96L56.26 11.96L56.26 11.96Q55.79 12.43 55.12 12.81L55.12 12.81L55.12 12.81Q54.45 13.19 53.55 13.54L53.55 13.54L53.55 13.54Q53.55 13.62 53.54 13.71L53.54 13.71L53.54 13.71Q53.54 13.80 53.54 13.90L53.54 13.90L53.54 13.90Q53.54 14.08 53.56 14.28L53.56 14.28L53.56 14.28Q53.59 14.48 53.66 14.64L53.66 14.64L53.66 14.64Q53.73 14.81 53.86 14.92L53.86 14.92L53.86 14.92Q53.98 15.02 54.18 15.02L54.18 15.02L54.18 15.02Q54.56 15.02 54.92 14.85L54.92 14.85L54.92 14.85Q55.29 14.69 55.62 14.44L55.62 14.44L55.62 14.44Q55.94 14.20 56.23 13.91L56.23 13.91L56.23 13.91Q56.52 13.62 56.74 13.38L56.74 13.38L56.74 13.38Q56.88 13.51 56.98 13.62L56.98 13.62L56.98 13.62Q56.35 14.46 55.60 15.02L55.60 15.02L55.60 15.02Q54.85 15.57 54.18 15.72L54.18 15.72L54.18 15.72Q53.21 15.61 52.67 15.02L52.67 15.02L52.67 15.02Q52.14 14.42 52.14 13.58L52.14 13.58L52.14 13.58Q52.14 13.01 52.30 12.41L52.30 12.41L52.30 12.41Q52.46 11.82 52.74 11.26L52.74 11.26L52.74 11.26Q53.03 10.71 53.42 10.22L53.42 10.22L53.42 10.22Q53.80 9.73 54.24 9.37L54.24 9.37L54.24 9.37Q54.68 9.00 55.15 8.79L55.15 8.79L55.15 8.79Q55.62 8.58 56.08 8.58L56.08 8.58L56.08 8.58Q56.73 8.67 57.29 9.38ZM56.32 9.84L56.32 9.84L56.32 9.84Q55.94 9.90 55.54 10.15L55.54 10.15L55.54 10.15Q55.13 10.40 54.77 10.82L54.77 10.82L54.77 10.82Q54.42 11.24 54.12 11.80L54.12 11.80L54.12 11.80Q53.83 12.36 53.66 13.01L53.66 13.01L53.66 13.01Q54.78 12.45 55.52 11.63L55.52 11.63L55.52 11.63Q56.27 10.81 56.32 9.84ZM73.02 10.88L73.02 10.88L73.02 10.88Q72.80 10.89 72.48 11.16L72.48 11.16L72.48 11.16Q72.16 11.44 71.78 11.87L71.78 11.87L71.78 11.87Q71.41 12.29 71.02 12.81L71.02 12.81L71.02 12.81Q70.62 13.33 70.25 13.84L70.25 13.84L70.25 13.84Q69.87 14.35 69.55 14.80L69.55 14.80L69.55 14.80Q69.23 15.25 69.01 15.51L69.01 15.51L69.01 15.51Q68.70 15.39 68.47 15.14L68.47 15.14L68.47 15.14Q68.25 14.90 68.15 14.53L68.15 14.53L68.15 14.53Q68.22 14.10 68.35 13.63L68.35 13.63L68.35 13.63Q68.47 13.16 68.68 12.66L68.68 12.66L68.68 12.66Q68.88 12.15 69.18 11.60L69.18 11.60L69.18 11.60Q69.48 11.05 69.92 10.43L69.92 10.43L69.92 10.43Q69.71 10.44 69.34 10.73L69.34 10.73L69.34 10.73Q68.98 11.02 68.56 11.47L68.56 11.47L68.56 11.47Q68.14 11.93 67.69 12.50L67.69 12.50L67.69 12.50Q67.24 13.06 66.85 13.61L66.85 13.61L66.85 13.61Q66.33 14.34 65.99 14.88L65.99 14.88L65.99 14.88Q65.65 15.43 65.49 15.53L65.49 15.53L65.49 15.53Q65.13 15.26 64.99 14.95L64.99 14.95L64.99 14.95Q64.85 14.64 64.78 14.27L64.78 14.27L64.78 14.27Q64.79 13.93 64.88 13.43L64.88 13.43L64.88 13.43Q64.97 12.92 65.14 12.39L65.14 12.39L65.14 12.39Q65.46 11.37 65.97 10.36L65.97 10.36L65.97 10.36Q66.49 9.35 66.96 8.51L66.96 8.51L66.96 8.51Q67.35 8.60 67.67 8.78L67.67 8.78L67.67 8.78Q67.98 8.96 68.33 9.31L68.33 9.31L68.33 9.31Q68.19 9.74 67.90 10.23L67.90 10.23L67.90 10.23Q67.61 10.71 67.28 11.24L67.28 11.24L67.28 11.24Q66.96 11.77 66.70 12.33L66.70 12.33L66.70 12.33Q66.43 12.89 66.35 13.47L66.35 13.47L66.35 13.47Q66.74 12.91 67.28 12.18L67.28 12.18L67.28 12.18Q67.82 11.45 68.38 10.81L68.38 10.81L68.38 10.81Q68.95 10.16 69.51 9.72L69.51 9.72L69.51 9.72Q70.07 9.27 70.52 9.27L70.52 9.27L70.52 9.27Q70.69 9.27 70.88 9.32L70.88 9.32L70.88 9.32Q71.08 9.38 71.25 9.46L71.25 9.46L71.25 9.46Q71.41 9.55 71.53 9.63L71.53 9.63L71.53 9.63Q71.64 9.70 71.65 9.74L71.65 9.74L71.65 9.74Q71.58 10.02 71.32 10.51L71.32 10.51L71.32 10.51Q71.06 10.99 70.77 11.52L70.77 11.52L70.77 11.52Q70.48 12.05 70.22 12.55L70.22 12.55L70.22 12.55Q69.97 13.05 69.93 13.34L69.93 13.34L69.93 13.34Q70.62 12.40 71.22 11.64L71.22 11.64L71.22 11.64Q71.82 10.88 72.35 10.33L72.35 10.33L72.35 10.33Q72.88 9.79 73.34 9.49L73.34 9.49L73.34 9.49Q73.79 9.20 74.20 9.20L74.20 9.20L74.20 9.20Q74.48 9.20 74.72 9.34L74.72 9.34L74.72 9.34Q74.97 9.49 75.07 9.77L75.07 9.77L75.07 9.77Q74.94 10.19 74.66 10.78L74.66 10.78L74.66 10.78Q74.37 11.37 74.07 12.02L74.07 12.02L74.07 12.02Q73.78 12.67 73.55 13.30L73.55 13.30L73.55 13.30Q73.32 13.93 73.32 14.43L73.32 14.43L73.32 14.43Q73.32 14.73 73.40 14.82L73.40 14.82L73.40 14.82Q73.49 14.91 73.64 14.91L73.64 14.91L73.64 14.91Q73.81 14.91 73.95 14.85L73.95 14.85L73.95 14.85Q74.10 14.78 74.17 14.78L74.17 14.78L74.17 14.78Q74.26 14.84 74.27 14.92L74.27 14.92L74.27 14.92Q74.28 15.01 74.28 15.08L74.28 15.08L74.28 15.08Q74.00 15.30 73.71 15.45L73.71 15.45L73.71 15.45Q73.42 15.60 73.05 15.60L73.05 15.60L73.05 15.60Q72.72 15.60 72.50 15.48L72.50 15.48L72.50 15.48Q72.28 15.37 72.14 15.18L72.14 15.18L72.14 15.18Q72.00 14.98 71.95 14.73L71.95 14.73L71.95 14.73Q71.89 14.48 71.89 14.18L71.89 14.18L71.89 14.18Q71.89 13.71 72.02 13.24L72.02 13.24L72.02 13.24Q72.14 12.77 72.32 12.34L72.32 12.34L72.32 12.34Q72.49 11.91 72.69 11.54L72.69 11.54L72.69 11.54Q72.88 11.17 73.02 10.88ZM81.62 19.81L81.62 19.81L81.62 19.81Q81.42 19.75 81.40 19.39L81.40 19.39L81.40 19.39Q81.34 19.21 81.32 18.96L81.32 18.96L81.32 18.96Q81.30 18.70 81.30 18.38L81.30 18.38L81.30 18.38Q81.30 18.09 81.40 17.58L81.40 17.58L81.40 17.58Q81.49 17.07 81.67 16.42L81.67 16.42L81.67 16.42Q81.84 15.78 82.10 15.03L82.10 15.03L82.10 15.03Q82.35 14.28 82.66 13.51L82.66 13.51L82.66 13.51Q83.03 12.54 83.31 11.84L83.31 11.84L83.31 11.84Q83.59 11.13 83.78 10.61L83.78 10.61L83.78 10.61Q83.97 10.09 84.09 9.76L84.09 9.76L84.09 9.76Q84.21 9.42 84.28 9.18L84.28 9.18L84.28 9.18Q84.34 9.02 84.45 8.78L84.45 8.78L84.45 8.78Q84.56 8.54 84.71 8.29L84.71 8.29L84.71 8.29Q84.85 8.05 85.01 7.83L85.01 7.83L85.01 7.83Q85.16 7.62 85.29 7.50L85.29 7.50L85.29 7.50Q85.78 7.57 86.21 7.76L86.21 7.76L86.21 7.76Q86.65 7.94 86.74 8.11L86.74 8.11L86.74 8.11Q86.55 8.29 86.30 8.67L86.30 8.67L86.30 8.67Q86.04 9.06 85.81 9.51L85.81 9.51L85.81 9.51Q85.57 9.97 85.37 10.44L85.37 10.44L85.37 10.44Q85.18 10.92 85.08 11.28L85.08 11.28L85.08 11.28Q85.22 11.05 85.44 10.77L85.44 10.77L85.44 10.77Q85.67 10.49 86.13 10.00L86.13 10.00L86.13 10.00Q86.65 9.46 87.10 9.18L87.10 9.18L87.10 9.18Q87.56 8.89 87.89 8.89L87.89 8.89L87.89 8.89Q88.42 8.89 88.77 9.18L88.77 9.18L88.77 9.18Q89.11 9.48 89.11 9.94L89.11 9.94L89.11 9.94Q89.11 10.95 88.77 11.94L88.77 11.94L88.77 11.94Q88.44 12.92 87.81 13.72L87.81 13.72L87.81 13.72Q87.57 14.03 87.25 14.31L87.25 14.31L87.25 14.31Q86.93 14.59 86.58 14.80L86.58 14.80L86.58 14.80Q86.23 15.02 85.89 15.15L85.89 15.15L85.89 15.15Q85.55 15.27 85.29 15.27L85.29 15.27L85.29 15.27Q85.04 15.27 84.85 15.17L84.85 15.17L84.85 15.17Q84.66 15.06 84.59 14.91L84.59 14.91L84.59 14.91Q85.13 14.59 85.65 14.01L85.65 14.01L85.65 14.01Q86.17 13.44 86.61 12.69L86.61 12.69L86.61 12.69Q87.05 11.94 87.38 11.07L87.38 11.07L87.38 11.07Q87.71 10.21 87.88 9.31L87.88 9.31L87.88 9.31Q87.35 9.59 86.92 9.92L86.92 9.92L86.92 9.92Q86.49 10.25 86.07 10.78L86.07 10.78L86.07 10.78Q85.57 11.40 85.27 11.77L85.27 11.77L85.27 11.77Q84.98 12.15 84.79 12.42L84.79 12.42L84.79 12.42Q84.60 12.68 84.48 12.91L84.48 12.91L84.48 12.91Q84.36 13.15 84.22 13.48L84.22 13.48L84.22 13.48Q84.03 13.93 83.77 14.67L83.77 14.67L83.77 14.67Q83.51 15.40 83.24 16.31L83.24 16.31L83.24 16.31Q82.96 17.22 82.69 18.25L82.69 18.25L82.69 18.25Q82.42 19.28 82.17 20.30L82.17 20.30L82.17 20.30Q82.01 20.27 81.90 20.08L81.90 20.08L81.90 20.08Q81.79 19.95 81.74 19.89L81.74 19.89L81.74 19.89Q81.69 19.84 81.62 19.81ZM98.27 15.67L98.27 15.67L98.27 15.67Q97.47 15.58 96.99 14.97L96.99 14.97L96.99 14.97Q96.52 14.35 96.52 13.40L96.52 13.40L96.52 13.40Q96.52 12.84 96.68 12.24L96.68 12.24L96.68 12.24Q96.85 11.63 97.16 11.07L97.16 11.07L97.16 11.07Q97.47 10.50 97.89 10.00L97.89 10.00L97.89 10.00Q98.31 9.49 98.80 9.13L98.80 9.13L98.80 9.13Q99.57 8.55 100.24 8.55L100.24 8.55L100.24 8.55Q100.69 8.79 101.12 9.55L101.12 9.55L101.12 9.55Q101.19 9.55 101.25 9.54L101.25 9.54L101.25 9.54Q101.30 9.53 101.37 9.53L101.37 9.53L101.37 9.53Q102.12 9.53 102.12 10.85L102.12 10.85L102.12 10.85Q102.12 11.73 101.83 12.52L101.83 12.52L101.83 12.52Q101.54 13.31 101.03 13.96L101.03 13.96L101.03 13.96Q100.52 14.60 99.81 15.04L99.81 15.04L99.81 15.04Q99.11 15.48 98.27 15.67ZM98.98 11.26L98.98 11.26L98.98 11.26Q98.74 11.58 98.53 11.96L98.53 11.96L98.53 11.96Q98.32 12.33 98.17 12.72L98.17 12.72L98.17 12.72Q98.01 13.10 97.93 13.46L97.93 13.46L97.93 13.46Q97.85 13.82 97.85 14.10L97.85 14.10L97.85 14.10Q97.85 14.43 97.96 14.74L97.96 14.74L97.96 14.74Q98.07 15.05 98.21 15.09L98.21 15.09L98.21 15.09Q98.84 14.95 99.36 14.57L99.36 14.57L99.36 14.57Q99.89 14.18 100.27 13.61L100.27 13.61L100.27 13.61Q100.66 13.03 100.88 12.31L100.88 12.31L100.88 12.31Q101.09 11.58 101.09 10.75L101.09 10.75L101.09 10.75Q101.09 10.39 101.05 10.18L101.05 10.18L101.05 10.18Q101.01 9.97 100.91 9.81L100.91 9.81L100.91 9.81Q100.30 10.00 99.81 10.40L99.81 10.40L99.81 10.40Q99.33 10.81 98.98 11.26ZM109.91 14.60L109.91 14.60L109.91 14.60Q109.91 14.32 109.98 13.82L109.98 13.82L109.98 13.82Q110.04 13.31 110.14 12.73L110.14 12.73L110.14 12.73Q110.25 12.14 110.38 11.52L110.38 11.52L110.38 11.52Q110.52 10.91 110.66 10.42L110.66 10.42L110.66 10.42Q110.84 9.76 111.22 9.40L111.22 9.40L111.22 9.40Q111.61 9.04 112.18 9.04L112.18 9.04L112.18 9.04Q112.49 9.04 112.79 9.14L112.79 9.14L112.79 9.14Q113.09 9.24 113.15 9.39L113.15 9.39L113.15 9.39Q112.74 9.73 112.50 10.23L112.50 10.23L112.50 10.23Q112.25 10.72 112.10 11.29L112.10 11.29L112.10 11.29Q111.96 11.86 111.88 12.45L111.88 12.45L111.88 12.45Q111.80 13.05 111.72 13.57L111.72 13.57L111.72 13.57Q112.18 12.95 112.59 12.45L112.59 12.45L112.59 12.45Q113.01 11.96 113.33 11.66L113.33 11.66L113.33 11.66Q113.76 11.26 113.92 10.98L113.92 10.98L113.92 10.98Q114.07 10.71 114.18 10.39L114.18 10.39L114.18 10.39Q114.27 10.14 114.39 9.80L114.39 9.80L114.39 9.80Q114.51 9.46 114.79 9.18L114.79 9.18L114.79 9.18Q114.84 9.17 115.02 9.17L115.02 9.17L115.02 9.17Q115.16 9.17 115.32 9.18L115.32 9.18L115.32 9.18Q115.49 9.20 115.63 9.24L115.63 9.24L115.63 9.24Q115.77 9.28 115.86 9.34L115.86 9.34L115.86 9.34Q115.96 9.39 115.98 9.48L115.98 9.48L115.98 9.48Q115.75 9.77 115.56 10.39L115.56 10.39L115.56 10.39Q115.36 11.02 115.21 11.76L115.21 11.76L115.21 11.76Q115.05 12.50 114.93 13.24L114.93 13.24L114.93 13.24Q114.80 13.97 114.70 14.48L114.70 14.48L114.70 14.48Q114.76 14.45 114.95 14.25L114.95 14.25L114.95 14.25Q115.15 14.06 115.39 13.76L115.39 13.76L115.39 13.76Q115.64 13.47 115.91 13.12L115.91 13.12L115.91 13.12Q116.19 12.77 116.40 12.43L116.40 12.43L116.40 12.43Q116.66 12.03 116.84 11.67L116.84 11.67L116.84 11.67Q117.01 11.31 117.14 10.91L117.14 10.91L117.14 10.91Q117.28 10.50 117.39 10.00L117.39 10.00L117.39 10.00Q117.50 9.51 117.63 8.82L117.63 8.82L117.63 8.82Q117.71 8.71 118.00 8.63L118.00 8.63L118.00 8.63Q118.29 8.55 118.52 8.55L118.52 8.55L118.52 8.55Q118.73 8.55 118.83 8.62L118.83 8.62L118.83 8.62Q118.76 9.41 118.57 10.02L118.57 10.02L118.57 10.02Q118.38 10.64 118.06 11.22L118.06 11.22L118.06 11.22Q117.74 11.80 117.26 12.38L117.26 12.38L117.26 12.38Q116.79 12.96 116.14 13.65L116.14 13.65L116.14 13.65Q115.88 13.93 115.56 14.27L115.56 14.27L115.56 14.27Q115.25 14.60 114.95 14.89L114.95 14.89L114.95 14.89Q114.65 15.18 114.39 15.37L114.39 15.37L114.39 15.37Q114.13 15.57 113.99 15.57L113.99 15.57L113.99 15.57Q113.67 15.57 113.46 15.32L113.46 15.32L113.46 15.32Q113.25 15.06 113.25 14.67L113.25 14.67L113.25 14.67Q113.25 14.27 113.28 13.96L113.28 13.96L113.28 13.96Q113.32 13.66 113.40 13.33L113.40 13.33L113.40 13.33Q113.48 13.02 113.53 12.81L113.53 12.81L113.53 12.81Q113.58 12.60 113.62 12.45L113.62 12.45L113.62 12.45Q113.65 12.29 113.67 12.18L113.67 12.18L113.67 12.18Q113.68 12.07 113.69 11.96L113.69 11.96L113.69 11.96Q113.58 12.01 113.40 12.19L113.40 12.19L113.40 12.19Q113.22 12.36 113.02 12.59L113.02 12.59L113.02 12.59Q112.83 12.82 112.63 13.06L112.63 13.06L112.63 13.06Q112.43 13.30 112.31 13.47L112.31 13.47L112.31 13.47Q112.04 13.83 111.85 14.11L111.85 14.11L111.85 14.11Q111.65 14.39 111.47 14.64L111.47 14.64L111.47 14.64Q111.30 14.90 111.13 15.15L111.13 15.15L111.13 15.15Q110.96 15.41 110.74 15.71L110.74 15.71L110.74 15.71Q110.29 15.57 110.10 15.29L110.10 15.29L110.10 15.29Q109.91 15.01 109.91 14.60ZM130.69 9.38L130.69 9.38L130.69 9.38Q130.63 10.25 130.38 10.87L130.38 10.87L130.38 10.87Q130.13 11.49 129.66 11.96L129.66 11.96L129.66 11.96Q129.19 12.43 128.52 12.81L128.52 12.81L128.52 12.81Q127.85 13.19 126.95 13.54L126.95 13.54L126.95 13.54Q126.95 13.62 126.94 13.71L126.94 13.71L126.94 13.71Q126.94 13.80 126.94 13.90L126.94 13.90L126.94 13.90Q126.94 14.08 126.97 14.28L126.97 14.28L126.97 14.28Q126.99 14.48 127.06 14.64L127.06 14.64L127.06 14.64Q127.13 14.81 127.26 14.92L127.26 14.92L127.26 14.92Q127.39 15.02 127.58 15.02L127.58 15.02L127.58 15.02Q127.96 15.02 128.32 14.85L128.32 14.85L128.32 14.85Q128.69 14.69 129.02 14.44L129.02 14.44L129.02 14.44Q129.35 14.20 129.63 13.91L129.63 13.91L129.63 13.91Q129.92 13.62 130.14 13.38L130.14 13.38L130.14 13.38Q130.28 13.51 130.38 13.62L130.38 13.62L130.38 13.62Q129.75 14.46 129.00 15.02L129.00 15.02L129.00 15.02Q128.25 15.57 127.58 15.72L127.58 15.72L127.58 15.72Q126.62 15.61 126.08 15.02L126.08 15.02L126.08 15.02Q125.54 14.42 125.54 13.58L125.54 13.58L125.54 13.58Q125.54 13.01 125.70 12.41L125.70 12.41L125.70 12.41Q125.86 11.82 126.15 11.26L126.15 11.26L126.15 11.26Q126.43 10.71 126.82 10.22L126.82 10.22L126.82 10.22Q127.20 9.73 127.64 9.37L127.64 9.37L127.64 9.37Q128.09 9.00 128.56 8.79L128.56 8.79L128.56 8.79Q129.02 8.58 129.49 8.58L129.49 8.58L129.49 8.58Q130.13 8.67 130.69 9.38ZM129.72 9.84L129.72 9.84L129.72 9.84Q129.35 9.90 128.94 10.15L128.94 10.15L128.94 10.15Q128.53 10.40 128.18 10.82L128.18 10.82L128.18 10.82Q127.82 11.24 127.53 11.80L127.53 11.80L127.53 11.80Q127.23 12.36 127.06 13.01L127.06 13.01L127.06 13.01Q128.18 12.45 128.93 11.63L128.93 11.63L128.93 11.63Q129.67 10.81 129.72 9.84ZM138.00 14.90L138.00 14.90L138.00 14.90Q138.07 14.49 138.24 13.82L138.24 13.82L138.24 13.82Q138.42 13.16 138.66 12.41L138.66 12.41L138.66 12.41Q138.89 11.66 139.16 10.91L139.16 10.91L139.16 10.91Q139.43 10.15 139.68 9.55L139.68 9.55L139.68 9.55Q139.86 9.11 140 8.87L140 8.87L140 8.87Q140.14 8.62 140.31 8.46L140.31 8.46L140.31 8.46Q140.50 8.48 140.71 8.55L140.71 8.55L140.71 8.55Q140.92 8.62 141.12 8.72L141.12 8.72L141.12 8.72Q141.32 8.82 141.47 8.93L141.47 8.93L141.47 8.93Q141.62 9.03 141.71 9.13L141.71 9.13L141.71 9.13Q141.33 9.58 141.04 10.15L141.04 10.15L141.04 10.15Q140.76 10.72 140.46 11.62L140.46 11.62L140.46 11.62Q141.22 10.95 141.80 10.33L141.80 10.33L141.80 10.33Q142.38 9.72 142.88 8.96L142.88 8.96L142.88 8.96Q142.97 8.89 143.18 8.89L143.18 8.89L143.18 8.89Q143.37 8.89 143.56 8.95L143.56 8.95L143.56 8.95Q143.74 9.02 143.81 9.13L143.81 9.13L143.81 9.13Q143.56 9.80 143.56 10.46L143.56 10.46L143.56 10.46Q143.56 11.07 143.74 11.38L143.74 11.38L143.74 11.38Q143.72 11.47 143.55 11.70L143.55 11.70L143.55 11.70Q143.37 11.94 143.16 12.15L143.16 12.15L143.16 12.15Q142.79 11.96 142.49 11.61L142.49 11.61L142.49 11.61Q142.20 11.27 142.06 10.86L142.06 10.86L142.06 10.86Q141.40 11.33 140.94 11.77L140.94 11.77L140.94 11.77Q140.48 12.21 140.15 12.75L140.15 12.75L140.15 12.75Q139.82 13.29 139.59 13.99L139.59 13.99L139.59 13.99Q139.36 14.69 139.15 15.65L139.15 15.65L139.15 15.65Q139.02 15.64 138.84 15.56L138.84 15.56L138.84 15.56Q138.67 15.48 138.50 15.37L138.50 15.37L138.50 15.37Q138.32 15.26 138.18 15.13L138.18 15.13L138.18 15.13Q138.04 15.01 138.00 14.90ZM155.99 9.38L155.99 9.38L155.99 9.38Q155.93 10.25 155.68 10.87L155.68 10.87L155.68 10.87Q155.43 11.49 154.96 11.96L154.96 11.96L154.96 11.96Q154.49 12.43 153.82 12.81L153.82 12.81L153.82 12.81Q153.15 13.19 152.25 13.54L152.25 13.54L152.25 13.54Q152.25 13.62 152.24 13.71L152.24 13.71L152.24 13.71Q152.24 13.80 152.24 13.90L152.24 13.90L152.24 13.90Q152.24 14.08 152.26 14.28L152.26 14.28L152.26 14.28Q152.29 14.48 152.36 14.64L152.36 14.64L152.36 14.64Q152.43 14.81 152.56 14.92L152.56 14.92L152.56 14.92Q152.68 15.02 152.88 15.02L152.88 15.02L152.88 15.02Q153.26 15.02 153.62 14.85L153.62 14.85L153.62 14.85Q153.99 14.69 154.31 14.44L154.31 14.44L154.31 14.44Q154.64 14.20 154.93 13.91L154.93 13.91L154.93 13.91Q155.22 13.62 155.44 13.38L155.44 13.38L155.44 13.38Q155.58 13.51 155.68 13.62L155.68 13.62L155.68 13.62Q155.05 14.46 154.30 15.02L154.30 15.02L154.30 15.02Q153.55 15.57 152.88 15.72L152.88 15.72L152.88 15.72Q151.91 15.61 151.38 15.02L151.38 15.02L151.38 15.02Q150.84 14.42 150.84 13.58L150.84 13.58L150.84 13.58Q150.84 13.01 151.00 12.41L151.00 12.41L151.00 12.41Q151.16 11.82 151.44 11.26L151.44 11.26L151.44 11.26Q151.73 10.71 152.12 10.22L152.12 10.22L152.12 10.22Q152.50 9.73 152.94 9.37L152.94 9.37L152.94 9.37Q153.38 9.00 153.85 8.79L153.85 8.79L153.85 8.79Q154.32 8.58 154.78 8.58L154.78 8.58L154.78 8.58Q155.43 8.67 155.99 9.38ZM155.02 9.84L155.02 9.84L155.02 9.84Q154.64 9.90 154.24 10.15L154.24 10.15L154.24 10.15Q153.83 10.40 153.47 10.82L153.47 10.82L153.47 10.82Q153.12 11.24 152.82 11.80L152.82 11.80L152.82 11.80Q152.53 12.36 152.36 13.01L152.36 13.01L152.36 13.01Q153.48 12.45 154.22 11.63L154.22 11.63L154.22 11.63Q154.97 10.81 155.02 9.84ZM166.68 8.64L166.68 8.64L166.68 8.64Q166.96 8.64 167.33 8.81L167.33 8.81L167.33 8.81Q167.69 8.97 167.97 9.24L167.97 9.24L167.97 9.24Q167.90 8.68 167.80 8.18L167.80 8.18L167.80 8.18Q167.69 7.69 167.49 7.15L167.49 7.15L167.49 7.15Q167.29 6.62 166.95 5.99L166.95 5.99L166.95 5.99Q166.61 5.36 166.11 4.55L166.11 4.55L166.11 4.55Q166.15 4.42 166.30 4.26L166.30 4.26L166.30 4.26Q166.45 4.09 166.63 3.94L166.63 3.94L166.63 3.94Q166.82 3.79 167.03 3.68L167.03 3.68L167.03 3.68Q167.23 3.57 167.41 3.54L167.41 3.54L167.41 3.54Q167.80 3.98 168.15 4.63L168.15 4.63L168.15 4.63Q168.50 5.28 168.77 6.03L168.77 6.03L168.77 6.03Q169.04 6.78 169.18 7.57L169.18 7.57L169.18 7.57Q169.33 8.37 169.33 9.10L169.33 9.10L169.33 9.10Q169.33 9.83 169.17 10.60L169.17 10.60L169.17 10.60Q169.01 11.37 168.72 12.10L168.72 12.10L168.72 12.10Q168.43 12.84 168.06 13.50L168.06 13.50L168.06 13.50Q167.68 14.15 167.24 14.67L167.24 14.67L167.24 14.67Q166.80 15.19 166.32 15.52L166.32 15.52L166.32 15.52Q165.84 15.85 165.37 15.93L165.37 15.93L165.37 15.93Q164.40 15.82 163.89 15.31L163.89 15.31L163.89 15.31Q163.38 14.80 163.38 13.90L163.38 13.90L163.38 13.90Q163.38 13.43 163.53 12.87L163.53 12.87L163.53 12.87Q163.67 12.31 163.92 11.75L163.92 11.75L163.92 11.75Q164.16 11.20 164.49 10.68L164.49 10.68L164.49 10.68Q164.82 10.15 165.19 9.73L165.19 9.73L165.19 9.73Q165.56 9.31 165.94 9.02L165.94 9.02L165.94 9.02Q166.32 8.72 166.68 8.64ZM165.26 15.37L165.26 15.37L165.26 15.37Q165.75 15.20 166.24 14.63L166.24 14.63L166.24 14.63Q166.73 14.06 167.12 13.28L167.12 13.28L167.12 13.28Q167.51 12.50 167.75 11.61L167.75 11.61L167.75 11.61Q168 10.72 168 9.90L168 9.90L168 9.90Q168 9.66 168 9.60L168 9.60L168 9.60Q168 9.55 167.99 9.49L167.99 9.49L167.99 9.49Q167.65 9.63 167.27 9.97L167.27 9.97L167.27 9.97Q166.89 10.30 166.52 10.75L166.52 10.75L166.52 10.75Q166.14 11.19 165.80 11.70L165.80 11.70L165.80 11.70Q165.47 12.22 165.20 12.74L165.20 12.74L165.20 12.74Q164.93 13.26 164.78 13.73L164.78 13.73L164.78 13.73Q164.63 14.21 164.63 14.57L164.63 14.57L164.63 14.57Q164.63 15.27 165.26 15.37ZM188.31 15.27L188.31 15.27L188.31 15.27Q188.96 14.84 189.57 14.16L189.57 14.16L189.57 14.16Q190.19 13.48 190.69 12.69L190.69 12.69L190.69 12.69Q191.20 11.90 191.55 11.05L191.55 11.05L191.55 11.05Q191.90 10.19 192.02 9.41L192.02 9.41L192.02 9.41Q192.02 9.24 191.84 9.18L191.84 9.18L191.84 9.18Q191.65 9.18 191.30 9.53L191.30 9.53L191.30 9.53Q190.96 9.87 190.55 10.40L190.55 10.40L190.55 10.40Q190.13 10.93 189.71 11.59L189.71 11.59L189.71 11.59Q189.28 12.25 188.93 12.90L188.93 12.90L188.93 12.90Q188.58 13.55 188.34 14.12L188.34 14.12L188.34 14.12Q188.09 14.69 188.06 15.04L188.06 15.04L188.06 15.04Q187.92 15.04 187.82 14.76L187.82 14.76L187.82 14.76Q187.80 14.69 187.73 14.61L187.73 14.61L187.73 14.61Q187.66 14.53 187.50 14.42L187.50 14.42L187.50 14.42Q187.43 14.36 187.36 14.29L187.36 14.29L187.36 14.29Q187.29 14.21 187.26 14.15L187.26 14.15L187.26 14.15Q187.21 14.04 187.21 13.79L187.21 13.79L187.21 13.79Q187.21 12.96 187.42 11.93L187.42 11.93L187.42 11.93Q187.63 10.89 187.97 9.81L187.97 9.81L187.97 9.81Q188.31 8.74 188.78 7.69L188.78 7.69L188.78 7.69Q189.24 6.65 189.74 5.78L189.74 5.78L189.74 5.78Q190.23 4.91 190.74 4.31L190.74 4.31L190.74 4.31Q191.24 3.71 191.69 3.51L191.69 3.51L191.69 3.51Q191.83 3.56 192.02 3.65L192.02 3.65L192.02 3.65Q192.22 3.75 192.42 3.88L192.42 3.88L192.42 3.88Q192.61 4.00 192.79 4.13L192.79 4.13L192.79 4.13Q192.96 4.26 193.05 4.35L193.05 4.35L193.05 4.35Q191.51 5.60 190.38 7.55L190.38 7.55L190.38 7.55Q189.25 9.51 188.54 12.17L188.54 12.17L188.54 12.17Q188.93 11.44 189.42 10.76L189.42 10.76L189.42 10.76Q189.91 10.08 190.39 9.56L190.39 9.56L190.39 9.56Q190.88 9.04 191.32 8.74L191.32 8.74L191.32 8.74Q191.76 8.43 192.05 8.43L192.05 8.43L192.05 8.43Q192.28 8.48 192.49 8.62L192.49 8.62L192.49 8.62Q192.70 8.76 192.86 8.97L192.86 8.97L192.86 8.97Q193.03 9.17 193.14 9.40L193.14 9.40L193.14 9.40Q193.26 9.63 193.28 9.88L193.28 9.88L193.28 9.88Q193.27 10.47 193.08 11.14L193.08 11.14L193.08 11.14Q192.89 11.80 192.58 12.45L192.58 12.45L192.58 12.45Q192.26 13.09 191.86 13.68L191.86 13.68L191.86 13.68Q191.46 14.27 191.02 14.71L191.02 14.71L191.02 14.71Q190.58 15.15 190.14 15.41L190.14 15.41L190.14 15.41Q189.70 15.68 189.31 15.68L189.31 15.68L189.31 15.68Q189.14 15.68 188.97 15.64L188.97 15.64L188.97 15.64Q188.79 15.61 188.64 15.55L188.64 15.55L188.64 15.55Q188.50 15.48 188.41 15.41L188.41 15.41L188.41 15.41Q188.31 15.34 188.31 15.27ZM205.90 13.01L205.90 13.01L205.90 13.01Q205.58 14.03 205.25 14.87L205.25 14.87L205.25 14.87Q204.93 15.71 204.57 16.41L204.57 16.41L204.57 16.41Q204.20 17.12 203.78 17.72L203.78 17.72L203.78 17.72Q203.36 18.31 202.86 18.84L202.86 18.84L202.86 18.84Q202.22 19.52 201.53 19.87L201.53 19.87L201.53 19.87Q200.84 20.23 200.16 20.23L200.16 20.23L200.16 20.23Q199.81 20.23 199.47 20.15L199.47 20.15L199.47 20.15Q199.12 20.08 198.82 19.94L198.82 19.94L198.82 19.94Q198.52 19.81 198.29 19.64L198.29 19.64L198.29 19.64Q198.06 19.46 197.96 19.26L197.96 19.26L197.96 19.26Q197.96 19.10 198.16 18.97L198.16 18.97L198.16 18.97Q198.32 19.12 198.44 19.21L198.44 19.21L198.44 19.21Q198.55 19.29 198.65 19.35L198.65 19.35L198.65 19.35Q198.76 19.40 198.88 19.42L198.88 19.42L198.88 19.42Q199.00 19.43 199.15 19.43L199.15 19.43L199.15 19.43Q199.95 19.43 200.71 18.96L200.71 18.96L200.71 18.96Q201.47 18.49 202.15 17.63L202.15 17.63L202.15 17.63Q202.83 16.77 203.39 15.55L203.39 15.55L203.39 15.55Q203.95 14.32 204.34 12.81L204.34 12.81L204.34 12.81Q204.16 13.09 203.90 13.50L203.90 13.50L203.90 13.50Q203.63 13.90 203.31 14.30L203.31 14.30L203.31 14.30Q202.99 14.70 202.64 15.02L202.64 15.02L202.64 15.02Q202.30 15.34 201.98 15.46L201.98 15.46L201.98 15.46Q201.75 15.44 201.51 15.37L201.51 15.37L201.51 15.37Q201.26 15.29 201.05 15.15L201.05 15.15L201.05 15.15Q200.83 15.01 200.66 14.81L200.66 14.81L200.66 14.81Q200.49 14.62 200.44 14.36L200.44 14.36L200.44 14.36Q200.44 13.96 200.47 13.71L200.47 13.71L200.47 13.71Q200.49 13.47 200.56 13.17L200.56 13.17L200.56 13.17Q200.69 12.64 200.94 11.97L200.94 11.97L200.94 11.97Q201.18 11.30 201.51 10.65L201.51 10.65L201.51 10.65Q201.84 10.00 202.24 9.43L202.24 9.43L202.24 9.43Q202.64 8.86 203.07 8.54L203.07 8.54L203.07 8.54Q203.18 8.54 203.35 8.56L203.35 8.56L203.35 8.56Q203.52 8.58 203.70 8.64L203.70 8.64L203.70 8.64Q203.88 8.69 204.05 8.77L204.05 8.77L204.05 8.77Q204.22 8.85 204.34 8.97L204.34 8.97L204.34 8.97Q204.19 9.11 203.67 9.91L203.67 9.91L203.67 9.91Q203.15 10.71 202.52 12.21L202.52 12.21L202.52 12.21Q202.45 12.36 202.36 12.66L202.36 12.66L202.36 12.66Q202.26 12.95 202.17 13.27L202.17 13.27L202.17 13.27Q202.08 13.59 202.01 13.90L202.01 13.90L202.01 13.90Q201.94 14.21 201.94 14.39L201.94 14.39L201.94 14.39Q201.94 14.50 201.97 14.56L201.97 14.56L201.97 14.56Q202.01 14.62 202.03 14.64L202.03 14.64L202.03 14.64Q202.29 14.60 202.71 14.23L202.71 14.23L202.71 14.23Q203.13 13.86 203.66 13.08L203.66 13.08L203.66 13.08Q203.99 12.57 204.27 12.07L204.27 12.07L204.27 12.07Q204.55 11.58 204.83 11.07L204.83 11.07L204.83 11.07Q205.10 10.57 205.39 10.04L205.39 10.04L205.39 10.04Q205.69 9.51 206.02 8.95L206.02 8.95L206.02 8.95Q206.21 8.95 206.42 8.99L206.42 8.99L206.42 8.99Q206.63 9.03 206.82 9.09L206.82 9.09L206.82 9.09Q207.02 9.16 207.17 9.23L207.17 9.23L207.17 9.23Q207.31 9.31 207.38 9.39L207.38 9.39L207.38 9.39Q206.95 10.32 206.57 11.20L206.57 11.20L206.57 11.20Q206.19 12.08 205.90 13.01ZM230.24 5.75L230.24 5.75L230.24 5.75Q229.63 6.58 229.12 7.57L229.12 7.57L229.12 7.57Q228.62 8.57 228.26 9.61L228.26 9.61L228.26 9.61Q227.91 10.65 227.72 11.67L227.72 11.67L227.72 11.67Q227.53 12.68 227.53 13.57L227.53 13.57L227.53 13.57Q227.53 14.66 227.85 15.15L227.85 15.15L227.85 15.15Q228.17 15.64 228.96 15.64L228.96 15.64L228.96 15.64Q229.87 15.64 230.55 15.00L230.55 15.00L230.55 15.00Q231.24 14.36 231.84 13.24L231.84 13.24L231.84 13.24Q232.23 12.52 232.51 11.65L232.51 11.65L232.51 11.65Q232.79 10.78 232.97 9.86L232.97 9.86L232.97 9.86Q233.14 8.95 233.23 8.02L233.23 8.02L233.23 8.02Q233.31 7.08 233.31 6.23L233.31 6.23L233.31 6.23Q233.31 5.68 233.30 5.43L233.30 5.43L233.30 5.43Q233.28 5.18 233.25 5.03L233.25 5.03L233.25 5.03Q233.30 5.03 233.46 5.05L233.46 5.05L233.46 5.05Q233.63 5.08 233.85 5.12L233.85 5.12L233.85 5.12Q234.07 5.17 234.28 5.24L234.28 5.24L234.28 5.24Q234.50 5.31 234.65 5.39L234.65 5.39L234.65 5.39Q234.58 6.45 234.40 7.59L234.40 7.59L234.40 7.59Q234.21 8.72 233.90 9.83L233.90 9.83L233.90 9.83Q233.59 10.93 233.18 11.96L233.18 11.96L233.18 11.96Q232.78 12.98 232.27 13.79L232.27 13.79L232.27 13.79Q231.53 14.99 230.61 15.67L230.61 15.67L230.61 15.67Q229.68 16.35 228.42 16.35L228.42 16.35L228.42 16.35Q227.14 16.35 226.42 15.60L226.42 15.60L226.42 15.60Q225.71 14.85 225.71 13.33L225.71 13.33L225.71 13.33Q225.71 12.45 225.90 11.33L225.90 11.33L225.90 11.33Q226.10 10.22 226.43 9.07L226.43 9.07L226.43 9.07Q226.76 7.91 227.19 6.81L227.19 6.81L227.19 6.81Q227.63 5.71 228.10 4.84L228.10 4.84L228.10 4.84Q228.34 4.86 228.66 4.94L228.66 4.94L228.66 4.94Q228.98 5.03 229.29 5.16L229.29 5.16L229.29 5.16Q229.60 5.29 229.86 5.45L229.86 5.45L229.86 5.45Q230.12 5.61 230.24 5.75ZM242.87 16.24L242.87 16.24L242.87 16.24Q242.07 16.00 241.79 15.79L241.79 15.79L241.79 15.79Q241.51 15.57 241.51 15.19L241.51 15.19L241.51 15.19Q241.51 14.77 241.71 14.01L241.71 14.01L241.71 14.01Q241.91 13.24 242.22 12.31L242.22 12.31L242.22 12.31Q242.54 11.37 242.94 10.35L242.94 10.35L242.94 10.35Q243.35 9.32 243.77 8.39L243.77 8.39L243.77 8.39Q244.19 7.45 244.59 6.67L244.59 6.67L244.59 6.67Q244.99 5.89 245.29 5.46L245.29 5.46L245.20 4.87L245.20 4.87Q245.39 4.87 245.74 4.97L245.74 4.97L245.74 4.97Q246.09 5.07 246.45 5.21L246.45 5.21L246.45 5.21Q246.81 5.35 247.08 5.49L247.08 5.49L247.08 5.49Q247.35 5.64 247.38 5.74L247.38 5.74L247.38 5.74Q247.31 6.08 247.27 6.76L247.27 6.76L247.27 6.76Q247.23 7.43 247.23 8.20L247.23 8.20L247.23 8.20Q247.23 9.73 247.35 11.19L247.35 11.19L247.35 11.19Q247.46 12.66 247.90 14.17L247.90 14.17L247.90 14.17Q248.12 13.05 248.38 11.94L248.38 11.94L248.38 11.94Q248.64 10.82 248.92 9.81L248.92 9.81L248.92 9.81Q249.20 8.79 249.48 7.92L249.48 7.92L249.48 7.92Q249.76 7.06 250.02 6.40L250.02 6.40L250.02 6.40Q250.28 5.75 250.50 5.38L250.50 5.38L250.50 5.38Q250.73 5.01 250.91 4.98L250.91 4.98L250.91 4.98Q251.06 5.01 251.24 5.10L251.24 5.10L251.24 5.10Q251.43 5.19 251.59 5.32L251.59 5.32L251.59 5.32Q251.76 5.45 251.90 5.60L251.90 5.60L251.90 5.60Q252.04 5.75 252.13 5.91L252.13 5.91L252.13 5.91Q251.68 6.09 251.24 6.76L251.24 6.76L251.24 6.76Q250.80 7.43 250.40 8.39L250.40 8.39L250.40 8.39Q250.00 9.35 249.66 10.47L249.66 10.47L249.66 10.47Q249.31 11.59 249.05 12.68L249.05 12.68L249.05 12.68Q248.79 13.76 248.65 14.69L248.65 14.69L248.65 14.69Q248.50 15.61 248.49 16.17L248.49 16.17L248.49 16.17Q248.49 16.20 248.50 16.21L248.50 16.21L248.50 16.21Q248.46 16.23 248.41 16.23L248.41 16.23L248.41 16.23Q248.36 16.23 248.32 16.23L248.32 16.23L248.32 16.23Q247.67 16.23 247.18 16.07L247.18 16.07L247.18 16.07Q246.68 15.90 246.53 15.61L246.53 15.61L246.53 15.61Q246.23 14.43 246.04 13.34L246.04 13.34L246.04 13.34Q245.84 12.25 245.71 11.16L245.71 11.16L245.71 11.16Q245.57 10.07 245.50 8.95L245.50 8.95L245.50 8.95Q245.42 7.84 245.38 6.62L245.38 6.62L245.38 6.62Q245.11 7.04 244.82 7.72L244.82 7.72L244.82 7.72Q244.52 8.40 244.24 9.21L244.24 9.21L244.24 9.21Q243.96 10.02 243.71 10.92L243.71 10.92L243.71 10.92Q243.45 11.82 243.25 12.67L243.25 12.67L243.25 12.67Q243.05 13.52 242.94 14.29L242.94 14.29L242.94 14.29Q242.83 15.05 242.83 15.61L242.83 15.61L242.83 15.61Q242.83 15.90 242.84 16.03L242.84 16.03L242.84 16.03Q242.84 16.16 242.87 16.24ZM258.61 14.38L258.61 14.38L258.61 14.38Q258.61 13.87 258.77 13.07L258.77 13.07L258.77 13.07Q258.93 12.26 259.19 11.33L259.19 11.33L259.19 11.33Q259.45 10.40 259.78 9.43L259.78 9.43L259.78 9.43Q260.12 8.46 260.47 7.60L260.47 7.60L260.47 7.60Q260.82 6.75 261.16 6.10L261.16 6.10L261.16 6.10Q261.49 5.46 261.76 5.18L261.76 5.18L261.76 5.18Q261.90 5.19 262.13 5.29L262.13 5.29L262.13 5.29Q262.36 5.38 262.60 5.50L262.60 5.50L262.60 5.50Q262.84 5.63 263.03 5.78L263.03 5.78L263.03 5.78Q263.23 5.92 263.28 6.05L263.28 6.05L263.28 6.05Q262.88 6.41 262.48 7.15L262.48 7.15L262.48 7.15Q262.08 7.88 261.71 8.82L261.71 8.82L261.71 8.82Q261.34 9.76 261.02 10.80L261.02 10.80L261.02 10.80Q260.69 11.84 260.46 12.82L260.46 12.82L260.46 12.82Q260.22 13.80 260.08 14.64L260.08 14.64L260.08 14.64Q259.95 15.48 259.95 16.00L259.95 16.00L259.95 16.00Q259.95 16.24 259.99 16.30L259.99 16.30L259.99 16.30Q259.69 16.28 259.55 16.19L259.55 16.19L259.55 16.19Q259.41 16.10 259.33 16.00L259.33 16.00L259.33 16.00Q259.25 15.89 259.19 15.79L259.19 15.79L259.19 15.79Q259.13 15.68 259 15.62L259 15.62L259 15.62Q258.90 15.58 258.83 15.43L258.83 15.43L258.83 15.43Q258.76 15.27 258.71 15.09L258.71 15.09L258.71 15.09Q258.66 14.90 258.64 14.70L258.64 14.70L258.64 14.70Q258.61 14.50 258.61 14.38ZM277.24 15.23L277.24 15.23L277.24 15.23Q277.12 15.36 276.87 15.52L276.87 15.52L276.87 15.52Q276.63 15.68 276.35 15.81L276.35 15.81L276.35 15.81Q276.07 15.95 275.78 16.05L275.78 16.05L275.78 16.05Q275.49 16.16 275.31 16.17L275.31 16.17L275.31 16.17Q275.13 16.17 274.99 16.03L274.99 16.03L274.99 16.03Q274.85 15.89 274.69 15.39L274.69 15.39L274.69 15.39Q274.54 14.90 274.34 13.95L274.34 13.95L274.34 13.95Q274.13 13.01 273.83 11.38L273.83 11.38L273.83 11.38Q273.03 12.21 272.34 12.98L272.34 12.98L272.34 12.98Q271.66 13.75 271.17 14.41L271.17 14.41L271.17 14.41Q270.68 15.06 270.40 15.55L270.40 15.55L270.40 15.55Q270.12 16.04 270.12 16.30L270.12 16.30L270.12 16.30Q269.95 16.28 269.77 16.17L269.77 16.17L269.77 16.17Q269.60 16.06 269.46 15.90L269.46 15.90L269.46 15.90Q269.32 15.75 269.23 15.57L269.23 15.57L269.23 15.57Q269.14 15.39 269.14 15.22L269.14 15.22L269.14 15.22Q269.18 15.06 269.35 14.78L269.35 14.78L269.35 14.78Q269.51 14.50 269.77 14.18L269.77 14.18L269.77 14.18Q270.30 13.50 271.29 12.59L271.29 12.59L271.29 12.59Q272.27 11.69 273.67 10.60L273.67 10.60L273.67 10.60Q272.76 6.08 271.10 6.08L271.10 6.08L271.10 6.08Q271.26 5.67 271.64 5.36L271.64 5.36L271.64 5.36Q272.01 5.05 272.43 4.98L272.43 4.98L272.43 4.98Q272.89 4.98 273.18 5.10L273.18 5.10L273.18 5.10Q273.48 5.22 273.71 5.70L273.71 5.70L273.71 5.70Q273.95 6.17 274.19 7.13L274.19 7.13L274.19 7.13Q274.43 8.09 274.79 9.76L274.79 9.76L274.79 9.76Q275.25 9.27 275.68 8.76L275.68 8.76L275.68 8.76Q276.11 8.25 276.47 7.77L276.47 7.77L276.47 7.77Q276.84 7.29 277.12 6.89L277.12 6.89L277.12 6.89Q277.40 6.48 277.55 6.19L277.55 6.19L277.55 6.19Q277.70 5.92 277.70 5.64L277.70 5.64L277.70 5.64Q277.70 5.39 277.55 4.98L277.55 4.98L277.55 4.98Q278.00 5.25 278.23 5.48L278.23 5.48L278.23 5.48Q278.46 5.71 278.63 6.12L278.63 6.12L278.63 6.12Q278.60 6.45 278.44 6.79L278.44 6.79L278.44 6.79Q278.28 7.13 277.88 7.59L277.88 7.59L277.88 7.59Q277.48 8.06 276.78 8.75L276.78 8.75L276.78 8.75Q276.08 9.44 274.95 10.46L274.95 10.46L274.95 10.46Q275.21 11.72 275.46 12.59L275.46 12.59L275.46 12.59Q275.72 13.45 275.98 14.01L275.98 14.01L275.98 14.01Q276.25 14.56 276.56 14.85L276.56 14.85L276.56 14.85Q276.86 15.13 277.24 15.23Z"></path></g></svg>